<svg width="256" height="256" viewBox="0 0 256 256" fill="none" xmlns="http://www.w3.org/2000/svg">
<rect width="256" height="256" rx="128" fill="url(#paint0_linear_1_20)"/>
<path d="M148.994 87.2727L145.005 77.8741C144.119 75.6362 142.79 73.3985 141.46 71.1606C140.131 68.923 138.358 67.5803 135.699 66.2377C133.484 64.895 130.825 64 127.279 64C123.734 64 121.076 64.895 118.86 66.2377C116.201 67.5803 114.428 68.923 113.099 71.1606C111.769 73.3985 110.44 76.0838 109.11 79.2168C107.781 82.3495 106.895 85.4824 106.008 87.7203L74.5452 167.831C73.2158 170.964 72.3295 173.651 71.8863 175.441C71 177.23 71 179.022 71 180.812C71 183.496 72.3295 186.183 74.5452 188.421C76.761 190.657 79.863 192 82.9648 192C86.51 192 89.1689 190.657 90.9415 188.421C92.271 186.629 94.4868 182.155 96.7025 175.889L102.463 160.225L109.11 141.427L127.279 90.4056L145.449 141.427L152.096 160.225L157.857 175.889L160.959 182.601C161.845 184.839 163.174 186.629 164.061 187.972C164.947 189.316 165.833 190.21 167.606 190.657C168.935 191.551 170.265 192 172.48 192C175.582 192 178.684 190.657 180.9 188.421C183.559 186.183 184.445 183.496 184.445 180.363C184.445 177.679 183.116 173.202 180.9 167.385L148.994 87.2727Z" fill="white"/>
<defs>
<linearGradient id="paint0_linear_1_20" x1="0" y1="0" x2="256" y2="256" gradientUnits="userSpaceOnUse">
<stop stop-color="#564194"/>
<stop offset="1" stop-color="#221A3B"/>
</linearGradient>
</defs>
</svg>
