<svg width="16" height="16" viewBox="0 0 16 16" fill="none" xmlns="http://www.w3.org/2000/svg">
<rect width="16" height="16" rx="8" fill="#B02F25"/>
<path d="M10.5328 3.98447C10.5096 3.95198 10.4353 3.85451 10.4121 3.82202C10.0593 3.33002 9.28885 3.34858 8.95467 3.84986C8.89433 3.93341 8.85255 4.04945 8.81078 4.13764C8.73187 4.3233 8.0635 6.20774 7.11199 7.20102C6.97739 7.10355 6.78245 6.98287 6.62928 6.92253C7.25124 6.49087 7.55758 5.77144 7.44618 5.34442C7.36728 5.04737 7.08879 4.81065 6.78245 4.77816C6.20226 4.69926 5.59423 4.89884 5.18114 5.30729C4.77269 5.69718 4.55453 6.27736 4.61487 6.83434C4.61487 5.72038 5.64064 4.82458 6.74068 5.04737C6.95418 5.0845 7.12128 5.25623 7.13984 5.46974C7.13984 5.5765 7.11664 5.69718 7.07022 5.79001C6.87064 6.28665 6.42041 6.66725 5.90057 6.78329C5.71027 6.84363 5.69634 7.1314 5.88664 7.20566C5.92377 7.21958 6.35079 7.24743 6.77317 7.58162C6.36936 8.11539 5.61279 8.52848 4.35495 9.19222C4.26212 9.24327 4.18322 9.3129 4.12288 9.40108C3.9465 9.64244 3.96507 9.98591 4.14608 10.218C4.898 11.1834 6.36007 11.3227 7.27909 10.5104C8.14705 9.78633 8.28165 8.46815 7.64112 7.57234C8.54622 6.59763 9.4838 4.28152 9.51164 4.23511C9.58591 4.11443 9.77157 4.09586 9.86904 4.20262C10.918 5.46046 11.3868 7.0989 11.4564 8.71878C11.54 10.5475 10.9366 12.8497 10.4631 13.5134C9.66481 14.6274 8.60655 13.648 9.47915 12.6223C8.40233 13.6527 9.68338 14.9198 10.672 13.6713C11.4147 12.7337 13.3223 7.80905 10.5281 3.98911M6.03053 7.20102C6.03053 7.20102 6.03517 7.20102 6.03981 7.20102C6.02589 7.20102 6.02124 7.20566 6.02124 7.20566M7.33943 8.92765C7.26052 10.3108 5.53389 10.8817 4.63808 9.81882C4.63344 9.80953 4.6288 9.80025 4.62416 9.79097C4.62416 9.77705 4.62416 9.78169 4.62416 9.7724C4.62416 9.76312 4.63344 9.74456 4.64736 9.73063C4.87016 9.61924 5.13008 9.50784 5.37608 9.37324C5.882 9.09475 6.3183 8.81162 6.74532 8.43101C6.85671 8.3289 7.00988 8.18966 7.12128 8.07826C7.29765 8.34747 7.35335 8.59811 7.33479 8.92301" fill="white"/>
<path d="M8.06877 3.31608C8.09198 3.69204 7.79957 4.01694 7.42361 4.04015C7.04765 4.06335 6.72274 3.77094 6.69953 3.39498C6.67633 3.01902 6.96874 2.69412 7.3447 2.67091C7.72066 2.6477 8.04557 2.94012 8.06877 3.31608Z" fill="#F89B22"/>
<path d="M6.47661 1.82146C6.46732 1.80289 6.43948 1.79825 6.42091 1.81217C6.41163 1.81681 6.40699 1.8261 6.40234 1.83538C6.40234 1.84466 6.40234 1.85395 6.40699 1.86323L6.86185 2.52232C6.87113 2.53625 6.88506 2.54089 6.90362 2.53625C6.90362 2.53625 6.91291 2.53625 6.91755 2.5316C6.92683 2.52696 6.93147 2.51768 6.93611 2.5084C6.93611 2.49911 6.93611 2.48983 6.93147 2.48055L6.47661 1.82146Z" fill="#F89B22"/>
<path d="M5.64482 1.6684C5.63089 1.65448 5.60769 1.65448 5.58912 1.6684C5.57984 1.67769 5.5752 1.68697 5.5752 1.69625C5.5752 1.70553 5.57519 1.71482 5.58912 1.7241L6.65666 2.68953C6.66594 2.69881 6.67987 2.70345 6.68915 2.69881C6.69379 2.69881 6.69843 2.69881 6.70308 2.69417C6.71236 2.68489 6.717 2.67096 6.717 2.66168C6.717 2.6524 6.717 2.64311 6.70308 2.63383L5.63553 1.6684H5.64482Z" fill="#F89B22"/>
<path d="M9.22413 1.60792C9.21021 1.59399 9.18236 1.59399 9.16844 1.60792L8.05912 2.63369C8.0452 2.64761 8.04055 2.67082 8.05912 2.68474C8.0684 2.69867 8.08233 2.70331 8.09161 2.69867C8.10089 2.69867 8.10553 2.69403 8.11018 2.68938L9.21949 1.66361C9.22878 1.65433 9.23342 1.64505 9.23342 1.63577C9.23342 1.62648 9.23342 1.6172 9.21949 1.60792H9.22413Z" fill="#F89B22"/>
<path d="M8.34617 1.78448C8.34617 1.7752 8.33689 1.76591 8.32761 1.76127C8.30904 1.75199 8.28583 1.76127 8.27655 1.77984L7.86346 2.49463C7.85418 2.50855 7.85882 2.52712 7.8681 2.54104C7.8681 2.54104 7.87274 2.54568 7.87738 2.55032C7.88667 2.55032 7.89595 2.55032 7.90059 2.55032C7.90987 2.55032 7.9238 2.54104 7.92844 2.53176L8.34153 1.81697C8.34617 1.80769 8.34617 1.7984 8.34153 1.78912L8.34617 1.78448Z" fill="#F89B22"/>
<path d="M6.44379 3.06552L4.97708 2.70813C4.95851 2.70349 4.93531 2.71277 4.93066 2.73598C4.93066 2.74526 4.93066 2.75454 4.93066 2.76383C4.93531 2.77311 4.94459 2.77775 4.95387 2.78239L6.42058 3.13979C6.42522 3.13979 6.43451 3.13979 6.43915 3.13979C6.45307 3.13979 6.467 3.12586 6.47164 3.11194C6.47164 3.08873 6.46235 3.07017 6.44379 3.06552Z" fill="#F89B22"/>
<path d="M5.8357 2.4203C5.81713 2.41101 5.79393 2.41565 5.78 2.42958C5.77536 2.43886 5.77072 2.44815 5.77536 2.45743C5.77536 2.46671 5.78464 2.47599 5.79393 2.48064L6.50407 2.90765C6.51336 2.91229 6.52264 2.91229 6.53192 2.91229C6.5412 2.91229 6.55049 2.90301 6.55513 2.89837C6.55513 2.89837 6.55513 2.88909 6.55977 2.88444C6.56441 2.86588 6.55977 2.85195 6.54121 2.84267L5.83106 2.41565L5.8357 2.4203Z" fill="#F89B22"/>
<path d="M8.12423 1.01857C8.11959 1.00928 8.11031 1.00464 8.10103 1C8.08246 1 8.05925 1.00928 8.05461 1.02785L7.62759 2.40173C7.62295 2.4203 7.62759 2.43886 7.6508 2.44814H7.65544C7.66008 2.44814 7.66937 2.44814 7.67401 2.44814C7.68793 2.44814 7.70186 2.43422 7.7065 2.4203L8.13352 1.04641C8.13352 1.03713 8.13352 1.02785 8.13352 1.01857H8.12423Z" fill="#F89B22"/>
<path d="M7.38088 1.54303C7.35768 1.54303 7.34375 1.5616 7.34375 1.5848L7.36696 2.3785C7.36696 2.39706 7.38088 2.41099 7.39481 2.41563C7.39481 2.41563 7.40409 2.41563 7.40873 2.41563C7.40873 2.41563 7.40873 2.41563 7.41337 2.41563C7.43194 2.41563 7.44586 2.39706 7.44586 2.3785L7.42266 1.5848C7.42266 1.57552 7.41801 1.56624 7.40873 1.55695C7.39945 1.54767 7.39017 1.54767 7.38088 1.54767V1.54303Z" fill="#F89B22"/>
<path d="M6.76009 1.01384C6.7508 1.01384 6.74152 1.02312 6.73688 1.0324C6.73224 1.04169 6.73224 1.05097 6.73688 1.06025L7.1082 2.41093C7.11284 2.42949 7.13141 2.43878 7.14997 2.43878C7.15925 2.43878 7.16854 2.42949 7.17318 2.42021C7.17782 2.41093 7.17782 2.40164 7.17318 2.39236L6.80186 1.04169C6.79722 1.02312 6.77401 1.0092 6.75545 1.01384H6.76009Z" fill="#F89B22"/>
</svg>
