<svg enable-background="new 0 0 792 216" height="216" viewBox="0 0 792 216" width="792" xmlns="http://www.w3.org/2000/svg" xmlns:xlink="http://www.w3.org/1999/xlink"><linearGradient id="a"><stop offset="0" stop-color="#004115"/><stop offset="1" stop-color="#00a651"/></linearGradient><linearGradient id="b" gradientUnits="userSpaceOnUse" x1="62.9468" x2="6.4893" xlink:href="#a" y1="180.3105" y2="180.3105"/><linearGradient id="c" gradientUnits="userSpaceOnUse" x1="48.7222" x2="200.3081" y1="91.9297" y2="91.9297"><stop offset="0" stop-color="#f9dd1a"/><stop offset="1" stop-color="#f7de1b"/></linearGradient><linearGradient id="d" gradientUnits="userSpaceOnUse" x1="186.0322" x2="242.4888" xlink:href="#a" y1="180.5098" y2="180.5098"/><linearGradient id="e"><stop offset="0" stop-color="#002a00"/><stop offset=".4" stop-color="#007f3e"/><stop offset="1"/></linearGradient><linearGradient id="f" gradientUnits="userSpaceOnUse" x1="63.0107" x2="40.482" xlink:href="#e" y1="182.2598" y2="182.2598"/><linearGradient id="g" gradientUnits="userSpaceOnUse" x1="186.0088" x2="208.5343" xlink:href="#e" y1="182.457" y2="182.457"/><linearGradient id="h" gradientUnits="userSpaceOnUse" x1="37.8149" x2="211.7841" y1="168.3203" y2="168.3203"><stop offset="0" stop-color="#a6ce39"/><stop offset=".03" stop-color="#00a651"/><stop offset=".08" stop-color="#007236"/><stop offset=".44" stop-color="#00652e"/><stop offset=".76" stop-color="#007236"/><stop offset=".95" stop-color="#00a651"/><stop offset="1" stop-color="#a6ce39"/></linearGradient><linearGradient id="i"><stop offset="0" stop-color="#01954a"/><stop offset="1" stop-color="#00633d"/></linearGradient><radialGradient id="j" cx="65.002" cy="109.5742" gradientUnits="userSpaceOnUse" r="10.4055" xlink:href="#i"/><radialGradient id="k" cx="184.0137" cy="109.5742" gradientUnits="userSpaceOnUse" r="10.4052" xlink:href="#i"/><g clip-rule="evenodd"><g fill-rule="evenodd"><path d="m751.688 90.531v-9.729c3.598-.004 6.605-1.243 9-3.701 2.413-2.46 3.604-5.579 3.604-9.389 0-3.794-1.205-6.93-3.62-9.422-2.411-2.489-5.416-3.743-8.983-3.748v-9.821c2.047.151 3.981.617 5.815 1.388 2.258.973 4.404 2.43 6.428 4.392v-4.688h16.993v9.092h-6.114v25.489h6.114v9.14h-16.993v-4.688c-1.834 1.865-3.918 3.292-6.271 4.265-1.89.798-3.885 1.269-5.973 1.42zm0-45.81v9.821h-.014c-3.716 0-6.727 1.224-9.078 3.669-2.336 2.444-3.511 5.612-3.511 9.5 0 3.856 1.175 7.007 3.511 9.437 2.352 2.429 5.362 3.653 9.078 3.653h.014v9.729c-.492.036-.988.054-1.489.054-6.489 0-11.821-2.166-15.989-6.475-4.155-4.311-6.24-9.814-6.24-16.491 0-6.475 2.118-11.931 6.335-16.335 4.232-4.405 9.53-6.617 15.895-6.617.502 0 .998.019 1.488.055zm-159.145 45.955v-9.333c.191.004.386.007.581.007 2.413 0 4.594-.406 6.521-1.238 1.931-.83 3.402-1.991 4.453-3.48h10.738c-1.286 4.467-3.841 7.932-7.666 10.378-3.824 2.445-8.605 3.669-14.328 3.669zm0-19.782v-7.666h12.698c-.892-3.026-2.396-5.331-4.529-6.897-2.116-1.552-4.781-2.335-7.963-2.335l-.206.001v-9.234l.206-.001c7.007 0 12.633 2.273 16.898 6.82 4.249 4.545 6.38 10.611 6.38 18.215v1.097zm45.728-19.156c2.603-2.477 5.142-4.28 7.604-5.394 2.461-1.112 5.078-1.678 7.838-1.678 4.624 0 8.042 1.255 10.282 3.748 2.243 2.492 3.357 6.334 3.357 11.507v20.472h6.112v9.14h-23.154v-9.14h6.114v-18.042c0-2.336-.596-4.124-1.772-5.378-1.175-1.253-2.867-1.881-5.08-1.881-1.988 0-3.901.534-5.769 1.583-1.849 1.051-3.698 2.665-5.532 4.844v18.875h6.114v9.14h-23.155v-9.14h6.114v-25.49h-6.114v-9.092h17.041zm45.147-20.802h-6.567v-9.14h17.401v44.034l13.918-10.926h-5.188v-9.092h22.418v9.092h-5.189l-14.469 11.85 14.922 13.639h4.736v9.14h-21.822v-9.14h3.858l-13.185-12.212v12.212h5.281v9.14h-22.777v-9.14h6.662v-49.457zm-90.875 13.826v9.234c-3.217.033-5.938.847-8.165 2.429-2.289 1.63-3.796 3.887-4.532 6.803h12.697v7.666h-12.697c.362 3.37 1.693 5.942 3.996 7.743 2.175 1.714 5.087 2.618 8.701 2.706v9.333c-7.117-.058-12.867-2.173-17.242-6.332-4.437-4.233-6.662-9.767-6.662-16.632 0-6.694 2.258-12.196 6.771-16.493 4.472-4.267 10.188-6.415 17.133-6.457zm-52.961 45.696v-9.374h.024c3.635 0 6.692-1.286 9.154-3.841 2.463-2.556 3.701-5.754 3.701-9.61 0-3.95-1.225-7.195-3.669-9.735-2.445-2.539-5.518-3.809-9.187-3.809h-.024v-9.423h.024c6.883 0 12.633 2.211 17.242 6.617 4.609 4.405 6.914 9.861 6.914 16.35 0 6.46-2.288 11.883-6.883 16.257-4.592 4.375-10.362 6.568-17.273 6.568zm0-45.792v9.423c-3.656.006-6.723 1.291-9.18 3.841-2.46 2.555-3.696 5.784-3.696 9.703 0 3.826 1.236 7.024 3.713 9.594 2.474 2.565 5.536 3.853 9.163 3.857v9.374c-6.871-.004-12.633-2.199-17.251-6.568-4.624-4.374-6.931-9.797-6.931-16.257 0-6.489 2.307-11.945 6.931-16.35 4.618-4.4 10.38-6.612 17.251-6.617zm-153.289 19.993v-9.52c2.497-.493 4.519-1.316 6.066-2.477 2.696-2.021 4.045-5.126 4.045-9.327 0-4.139-1.349-7.197-4.03-9.204-1.543-1.155-3.569-1.976-6.081-2.467v-9.559c6.382.663 11.419 2.391 15.11 5.175 4.844 3.669 7.259 9.045 7.259 16.148 0 7.1-2.428 12.461-7.274 16.099-3.701 2.761-8.736 4.473-15.095 5.132zm107.664 17.162c-2.729 2.994-5.877 5.251-9.483 6.772-3.591 1.52-7.619 2.274-12.057 2.274-9.874 0-18.167-3.355-24.862-10.065-6.693-6.694-10.033-15.066-10.033-25.114 0-10.251 3.31-18.686 9.94-25.286 6.631-6.599 15.143-9.892 25.553-9.892 4.075 0 7.774.564 11.066 1.677 3.308 1.113 6.005 2.712 8.089 4.798v-5.189h9.972v22.589h-9.972c-1.804-4.138-4.295-7.227-7.495-9.296-3.18-2.068-7.005-3.105-11.474-3.105-6.912 0-12.447 2.165-16.586 6.475-4.123 4.328-6.19 10.065-6.19 17.228 0 6.866 2.147 12.526 6.426 16.993 4.295 4.468 9.673 6.71 16.164 6.71 4.561 0 8.495-.955 11.788-2.869 3.291-1.912 6.161-4.907 8.605-8.982h-15.52v-9.783h32.372v9.783h-7.072v21.994h-8.854zm-180.339-37.419c-1.35-4.045-3.528-7.15-6.521-9.327-2.994-2.18-6.616-3.261-10.833-3.261-6.804 0-12.275 2.195-16.445 6.568-4.153 4.372-6.239 10.143-6.239 17.306 0 7.133 2.085 12.87 6.239 17.244 4.17 4.357 9.641 6.537 16.445 6.537 4.216 0 7.774-.955 10.675-2.853 2.899-1.897 5.377-4.923 7.462-9.092h11.757c-1.834 7.132-5.454 12.806-10.831 17.024-5.393 4.217-11.742 6.318-19.063 6.318-10.19 0-18.624-3.339-25.286-10.018-6.663-6.663-9.984-15.066-9.984-25.162 0-10.314 3.245-18.764 9.733-25.333 6.491-6.569 14.737-9.844 24.753-9.844 4.014 0 7.587.597 10.737 1.787 3.167 1.192 5.707 2.917 7.635 5.158l-.234-5.659h10.11v22.606h-10.11zm72.675-22.296v9.559c-1.852-.36-3.968-.542-6.349-.542h-3.765v24.564h3.765c2.377 0 4.493-.183 6.349-.548v9.52c-1.987.206-4.102.311-6.349.311h-3.765v15.142h8.779v9.422h-28.154v-9.422h7.259v-48.895h-7.259v-9.421h23.14c2.247 0 4.362.103 6.349.31z" fill="#01954a"/><path d="m750.168 150.373v-4.065c2.607-.002 4.777-.892 6.509-2.669 1.732-1.789 2.594-4.057 2.594-6.821 0-2.766-.861-5.033-2.594-6.822-1.731-1.775-3.901-2.666-6.509-2.668v-4.01c4.041.002 7.399 1.297 10.077 3.867 2.68 2.577 4.021 5.791 4.021 9.633 0 3.841-1.341 7.064-4.021 9.658-2.678 2.59-6.036 3.895-10.077 3.897zm21.413-37.156h-4.45v-3.953h9.285v36.611h4.449v3.871h-13.734v-3.871h4.45zm-21.413 10.1v4.01h-.013c-2.575 0-4.741.898-6.483 2.697-1.732 1.808-2.604 4.065-2.604 6.793 0 2.723.871 4.984 2.604 6.792 1.742 1.8 3.908 2.698 6.483 2.698h.013v4.065h-.013c-4.028 0-7.384-1.302-10.07-3.897-2.691-2.594-4.039-5.817-4.039-9.658 0-3.842 1.348-7.056 4.039-9.633 2.687-2.574 6.042-3.867 10.07-3.867zm-31.478 27.056v-4.065c2.606-.002 4.776-.892 6.505-2.669 1.733-1.789 2.595-4.057 2.595-6.821 0-2.766-.861-5.033-2.595-6.822-1.729-1.775-3.898-2.666-6.505-2.668v-4.01c4.041.002 7.399 1.297 10.077 3.867 2.676 2.577 4.018 5.791 4.018 9.633 0 3.841-1.342 7.064-4.018 9.658-2.677 2.59-6.036 3.895-10.077 3.897zm0-27.056v4.01h-.015c-2.576 0-4.74.898-6.483 2.697-1.732 1.808-2.604 4.065-2.604 6.793 0 2.723.871 4.984 2.604 6.792 1.743 1.8 3.907 2.698 6.483 2.698h.015v4.065h-.015c-4.028 0-7.382-1.302-10.071-3.897-2.689-2.594-4.036-5.817-4.036-9.658 0-3.842 1.347-7.056 4.036-9.633 2.689-2.574 6.043-3.867 10.071-3.867zm-163.059 27.043v-3.998h.012c2.502 0 4.601-.898 6.268-2.688 1.678-1.789 2.512-4.067 2.512-6.804 0-2.746-.834-5.001-2.512-6.779-1.667-1.773-3.766-2.661-6.268-2.661h-.012v-4.099c1.629.067 3.107.4 4.442.997 1.51.674 2.841 1.693 3.992 3.046v-3.374h8.787v3.869h-3.926v18.006h3.926v3.871h-8.787v-3.438c-1.041 1.338-2.332 2.352-3.867 3.035-1.367.606-2.885.946-4.567 1.017zm24.819-37.143h-4.45v-3.953h9.285v36.611h4.451v3.871h-13.736v-3.871h4.45zm33.899 32.136v4.394h-4.555v-13.887h4.555c.786 3.149 2.219 5.601 4.3 7.365 2.069 1.768 4.563 2.649 7.447 2.649 2.183 0 4.012-.675 5.48-2.033 1.472-1.348 2.211-3.035 2.211-5.045 0-1.754-.589-3.18-1.778-4.269-1.191-1.084-3.178-2.013-5.96-2.761l-4.225-1.124c-4.03-1.097-6.961-2.539-8.788-4.319-1.827-1.789-2.746-4.095-2.746-6.934 0-3.279 1.117-5.91 3.347-7.906 2.238-1.996 5.189-2.989 8.861-2.989 2.239 0 4.18.366 5.837 1.087 1.658.721 3.008 1.789 4.047 3.224v-3.542h3.925v11.637h-3.925c-.694-2.531-1.921-4.471-3.69-5.818-1.763-1.357-3.945-2.033-6.539-2.033-2.071 0-3.757.552-5.07 1.658-1.302 1.107-1.957 2.539-1.957 4.3 0 1.63.533 2.905 1.592 3.844 1.061.934 3.047 1.767 5.951 2.499l3.27.851c4.666 1.154 8.039 2.699 10.127 4.647 2.089 1.95 3.13 4.498 3.13 7.647 0 3.474-1.266 6.35-3.785 8.626-2.531 2.276-5.736 3.421-9.614 3.421-2.192 0-4.346-.47-6.435-1.415-2.1-.936-3.767-2.2-5.013-3.774zm51.769-3.075 2.586 2.521c-1.405 1.835-3.102 3.233-5.077 4.188-1.979.966-4.169 1.442-6.56 1.442-3.907 0-7.007-1.219-9.313-3.664-2.304-2.445-3.456-5.703-3.456-9.781 0-4.103 1.123-7.4 3.363-9.91 2.239-2.502 5.19-3.757 8.854-3.757 1.667 0 3.138.254 4.422.768 1.283.517 2.436 1.311 3.456 2.392v-2.477h3.757v8.893h-3.43c-.729-1.848-1.741-3.234-3.044-4.17-1.302-.928-2.856-1.396-4.665-1.396-2.332 0-4.197.88-5.622 2.651-1.413 1.76-2.127 4.095-2.127 7.006 0 2.942.759 5.239 2.277 6.897 1.518 1.657 3.646 2.48 6.37 2.48 1.574 0 3.046-.337 4.414-1.01 1.359-.673 2.624-1.704 3.795-3.073zm32.162 3.597h3.926v3.871h-12.771v-3.871h4.011v-11.578c0-2.709-.347-4.479-1.039-5.321s-1.865-1.265-3.514-1.265c-1.358 0-2.689.355-4.011 1.066-1.313.714-2.678 1.828-4.084 3.327v13.771h3.982v3.871h-12.77v-3.871h3.952v-32.658h-3.952v-3.953h8.787v18.392c1.498-1.479 3.018-2.576 4.544-3.279 1.527-.704 3.139-1.059 4.843-1.059 1.461 0 2.773.262 3.926.787 1.154.513 2.092 1.273 2.818 2.257.479.646.827 1.357 1.033 2.155.214.796.317 1.979.317 3.531v.487 13.34zm-142.649-22.543v4.099c-2.571.002-4.685.882-6.321 2.652-1.649 1.76-2.475 4.025-2.475 6.788 0 2.736.846 5.015 2.521 6.804 1.684 1.784 3.778 2.686 6.275 2.688v3.998c-.213.009-.429.013-.644.013-3.759 0-6.895-1.294-9.426-3.879-2.538-2.596-3.804-5.798-3.804-9.623 0-3.822 1.273-7.034 3.814-9.646 2.537-2.607 5.678-3.907 9.415-3.907.216-.002.43.002.645.013zm-63.999 27.041v-4.065c2.607-.002 4.776-.892 6.506-2.669 1.732-1.789 2.595-4.057 2.595-6.821 0-2.766-.862-5.033-2.595-6.822-1.729-1.775-3.898-2.666-6.506-2.668v-4.01c4.039.002 7.398 1.297 10.077 3.867 2.679 2.577 4.019 5.791 4.019 9.633 0 3.841-1.34 7.064-4.019 9.658-2.679 2.59-6.038 3.895-10.077 3.897zm43.841-4.498h3.926v3.871h-12.684v-3.871h3.923v-11.578c0-2.709-.346-4.498-1.039-5.353-.691-.86-1.862-1.289-3.515-1.289-1.34 0-2.659.364-3.979 1.086-1.313.722-2.689 1.835-4.113 3.353v13.781h3.979v3.871h-12.74v-3.871h3.981v-18.006h-3.981v-3.869h8.761v3.655c1.498-1.479 3.015-2.576 4.544-3.279 1.527-.704 3.139-1.059 4.843-1.059 1.479 0 2.802.262 3.965.776 1.16.523 2.106 1.284 2.838 2.268.46.61.784 1.272.991 2.004.197.732.301 1.8.301 3.212v.958 13.34zm-43.841-22.558v4.01h-.015c-2.576 0-4.741.898-6.482 2.697-1.733 1.808-2.603 4.065-2.603 6.793 0 2.723.869 4.984 2.603 6.792 1.741 1.8 3.906 2.698 6.482 2.698h.015v4.065h-.015c-4.028 0-7.381-1.302-10.071-3.897-2.688-2.594-4.036-5.817-4.036-9.658 0-3.842 1.348-7.056 4.036-9.633 2.69-2.574 6.043-3.867 10.071-3.867zm-66.596 27.043v-3.998h.015c2.504 0 4.603-.898 6.268-2.688 1.677-1.789 2.514-4.067 2.514-6.804 0-2.746-.837-5.001-2.514-6.779-1.665-1.773-3.764-2.661-6.268-2.661h-.015v-4.099c1.631.067 3.112.4 4.448.997 1.508.674 2.837 1.693 3.989 3.046v-3.374h8.786v3.869h-3.923v18.006h3.923v3.871h-8.786v-3.438c-1.038 1.338-2.333 2.352-3.868 3.035-1.364.606-2.885.946-4.569 1.017zm28.48-9.731v.843c0 2.071.178 3.316.532 3.749.354.431 1.181.646 2.455.646.208 0 .797-.086 1.79-.242l.272-.029v4.094c-.553.086-1.145.159-1.78.205-.647.05-1.397.066-2.251.066-2.106 0-3.557-.367-4.364-1.086-.806-.722-1.21-2.005-1.21-3.86v-17.146h-4.663v-3.869h4.663v-9.602h4.556v9.602h5.05v3.869h-5.05zm10.518-23.027v-5.189h6.916v5.189zm6.916 28.273h4.496v3.871h-13.724v-3.871h4.45v-18.006h-4.45v-3.869h9.228zm-45.914-22.543v4.099c-2.567.002-4.68.882-6.317 2.652-1.648 1.76-2.473 4.025-2.473 6.788 0 2.736.842 5.015 2.519 6.804 1.683 1.784 3.778 2.686 6.271 2.688v3.998c-.21.009-.424.013-.641.013-3.757 0-6.893-1.294-9.424-3.879-2.538-2.596-3.804-5.798-3.804-9.623 0-3.822 1.273-7.034 3.813-9.646 2.538-2.607 5.678-3.907 9.415-3.907.217-.002.431.002.641.013zm-83.777 27.098v-4.082c.207.011.415.015.627.015 1.631 0 3.14-.363 4.517-1.104 1.386-.74 2.52-1.8 3.392-3.166h4.506c-1.189 2.594-2.94 4.638-5.256 6.117-2.301 1.472-4.897 2.211-7.786 2.22zm0-12.152v-3.758h8.646c-.365-2.36-1.282-4.157-2.753-5.394-1.481-1.239-3.438-1.855-5.894-1.855v-3.954c4.104 0 7.402 1.313 9.912 3.926 2.501 2.612 3.756 6.097 3.756 10.436v.6h-13.667zm25.914-10.239c.955-1.649 2.108-2.856 3.475-3.628 1.36-.767 3.047-1.149 5.061-1.149.111 0 .29.009.542.027.264.018.449.028.581.028v4.338h-1.339c-2.624 0-4.657.691-6.127 2.068-1.462 1.377-2.192 3.319-2.192 5.8v10.352h3.98v3.871h-12.74v-3.871h3.982v-18.006h-3.982v-3.869h8.76v4.039zm37.71 17.836h3.924v3.871h-12.687v-3.871h3.928v-11.578c0-2.709-.346-4.498-1.04-5.353-.693-.86-1.866-1.289-3.514-1.289-1.34 0-2.661.364-3.981 1.086-1.312.722-2.689 1.835-4.113 3.353v13.781h3.981v3.871h-12.741v-3.871h3.983v-18.006h-3.983v-3.869h8.76v3.655c1.498-1.479 3.017-2.576 4.544-3.279 1.526-.704 3.139-1.059 4.845-1.059 1.479 0 2.8.262 3.96.776 1.163.523 2.111 1.284 2.841 2.268.457.61.787 1.272.992 2.004.199.732.302 1.8.302 3.212v.958 13.34zm-133.787-.167h4.422v4.038h-14.165v-4.038h4.394v-32.38h-4.394v-4.064h14.165v4.064h-4.422zm70.163-22.391v3.954h-.001c-2.453 0-4.411.616-5.892 1.855-1.472 1.236-2.389 3.033-2.755 5.394h8.647v3.758h-8.647c.188 2.409 1.134 4.366 2.839 5.854 1.573 1.369 3.511 2.103 5.809 2.216v4.082h-.058c-4.074 0-7.361-1.265-9.863-3.787-2.502-2.529-3.749-5.873-3.749-10.043 0-4.009 1.247-7.223 3.729-9.646 2.493-2.428 5.809-3.637 9.941-3.637zm-36.097 22.558h3.924v3.871h-12.685v-3.871h3.925v-11.578c0-2.709-.346-4.498-1.039-5.353-.693-.86-1.864-1.289-3.514-1.289-1.339 0-2.66.364-3.98 1.086-1.312.722-2.689 1.835-4.113 3.353v13.781h3.981v3.871h-12.742v-3.871h3.982v-18.006h-3.982v-3.869h8.76v3.655c1.498-1.479 3.017-2.576 4.544-3.279 1.527-.704 3.139-1.059 4.844-1.059 1.48 0 2.801.262 3.963.776 1.16.523 2.107 1.284 2.838 2.268.459.61.786 1.272.993 2.004.196.732.301 1.8.301 3.212v.958zm13.996-5.246v.843c0 2.071.177 3.316.534 3.749.354.431 1.18.646 2.453.646.207 0 .797-.086 1.789-.242l.272-.029v4.094c-.552.086-1.143.159-1.779.205-.647.05-1.398.066-2.25.066-2.107 0-3.559-.367-4.365-1.086-.806-.722-1.21-2.005-1.21-3.86v-17.146h-4.664v-3.869h4.664v-9.602h4.556v9.602h5.049v3.869h-5.049z" fill="#01954a"/><path d="m740.672 190.948v-1.569h.023c2.373 0 4.162-.497 5.361-1.496 1.2-.993 1.801-2.436 1.801-4.32 0-1.89-.601-3.338-1.801-4.335-1.199-.997-2.988-1.5-5.361-1.5h-.023v-1.57h.023c1.266 0 2.444.145 3.538.433 1.09.289 2.038.736 2.846 1.338.804.604 1.436 1.369 1.894 2.31.462.937.692 2.048.692 3.325 0 1.287-.23 2.391-.692 3.321-.458.928-1.09 1.69-1.894 2.293-.808.602-1.756 1.051-2.846 1.342-1.094.284-2.272.43-3.538.43h-.023zm11.037-14.395h7.265v1.645h-2.778l4.133 10.193 4.78-11.838h2.234l4.792 11.838 4.092-10.193h-2.737v-1.645h7.251v1.645h-2.646l-5.001 12.356h-1.896l-4.971-12.162-4.946 12.162h-1.922l-5.031-12.356h-2.619zm-11.037-.396v1.57c-2.376.004-4.164.506-5.368 1.5-1.212.997-1.817 2.445-1.817 4.335 0 1.894.605 3.336 1.817 4.33 1.204.987 2.992 1.482 5.368 1.486v1.569c-1.268-.002-2.444-.147-3.536-.43-1.101-.291-2.055-.74-2.862-1.342-.808-.603-1.44-1.365-1.902-2.293-.461-.931-.692-2.034-.692-3.321 0-1.272.231-2.376.697-3.311.467-.938 1.104-1.71 1.925-2.31.812-.602 1.766-1.054 2.866-1.344 1.091-.292 2.258-.439 3.504-.439zm-51.661 14.791v-1.569h.023c2.371 0 4.16-.497 5.359-1.496 1.2-.993 1.803-2.436 1.803-4.32 0-1.89-.603-3.338-1.803-4.335-1.199-.997-2.988-1.5-5.359-1.5h-.023v-1.57h.023c1.264 0 2.444.145 3.538.433 1.09.289 2.038.736 2.846 1.338.804.604 1.436 1.369 1.892 2.31.462.937.694 2.048.694 3.325 0 1.287-.232 2.391-.694 3.321-.456.928-1.088 1.69-1.892 2.293-.808.602-1.756 1.051-2.846 1.342-1.094.284-2.274.43-3.538.43h-.023zm11.126-14.395h5.146v2.942c.401-.475.832-.911 1.296-1.316.462-.405.958-.763 1.489-1.06.539-.301 1.109-.537 1.722-.707.613-.173 1.269-.255 1.979-.255.352 0 .682.025.984.078.307.056.575.114.812.186.231.064.428.136.588.205.156.066.262.112.321.134l-.661 1.69c-.248-.13-.563-.261-.948-.396-.388-.141-.874-.207-1.463-.207-.748 0-1.431.114-2.053.347-.622.226-1.185.519-1.691.859-.502.34-.954.723-1.346 1.139-.393.416-.731.809-1.028 1.17v7.531h3.618v1.661h-8.765v-1.661h3.308v-10.695h-3.308zm15.398 0h5.146v2.942c.399-.475.832-.911 1.294-1.316s.958-.763 1.492-1.06c.536-.301 1.109-.537 1.721-.707.612-.173 1.27-.255 1.979-.255.351 0 .682.025.982.078.308.056.577.114.814.186.23.064.426.136.587.205.155.066.261.112.322.134l-.664 1.69c-.245-.13-.563-.261-.947-.396-.388-.141-.874-.207-1.461-.207-.748 0-1.431.114-2.054.347-.624.226-1.186.519-1.691.859-.503.34-.954.723-1.346 1.139s-.733.809-1.028 1.17v7.531h3.619v1.661h-8.765v-1.661h3.308v-10.695h-3.308zm-26.524-.396v1.57c-2.374.004-4.164.506-5.37 1.5-1.21.997-1.815 2.445-1.815 4.335 0 1.894.605 3.336 1.815 4.33 1.206.987 2.996 1.482 5.37 1.486v1.569c-1.268-.002-2.444-.147-3.538-.43-1.099-.291-2.053-.74-2.86-1.342-.81-.603-1.442-1.365-1.901-2.293-.465-.931-.695-2.034-.695-3.321 0-1.272.23-2.376.699-3.311.467-.938 1.104-1.71 1.923-2.31.813-.602 1.768-1.054 2.866-1.344 1.091-.292 2.257-.439 3.506-.439zm-54.96 14.791v-1.569h.023c2.373 0 4.162-.497 5.361-1.496 1.199-.993 1.801-2.436 1.801-4.32 0-1.89-.602-3.338-1.801-4.335s-2.988-1.5-5.361-1.5h-.023v-1.57h.023c1.264 0 2.442.145 3.538.433 1.09.289 2.038.736 2.846 1.338.806.604 1.436 1.369 1.894 2.31.462.937.692 2.048.692 3.325 0 1.287-.23 2.391-.692 3.321-.458.928-1.088 1.69-1.894 2.293-.808.602-1.756 1.051-2.846 1.342-1.096.284-2.274.43-3.538.43h-.023zm35.585-2.055h3.308v-7.403c0-.742-.095-1.358-.28-1.839-.186-.487-.454-.874-.793-1.156-.342-.284-.759-.487-1.241-.598-.486-.106-1.028-.169-1.626-.169-.636 0-1.261.098-1.867.297-.607.194-1.194.444-1.751.746-.559.307-1.08.64-1.559.994-.479.357-.901.698-1.266 1.024v.161 7.942h3.311v1.661h-8.46v-1.661h3.311v-7.403c0-.742-.091-1.358-.279-1.839-.185-.487-.455-.874-.802-1.156-.348-.284-.762-.487-1.25-.598-.486-.106-1.024-.169-1.612-.169-.657 0-1.293.098-1.912.297-.616.194-1.199.44-1.756.733-.555.295-1.065.623-1.537.976-.472.357-.888.7-1.248 1.024v8.135h3.321v1.661h-8.468v-1.661h3.308v-10.695h-3.308v-1.645h5.146v2.5c.46-.401.951-.786 1.469-1.147.523-.364 1.069-.682 1.646-.953.58-.264 1.186-.481 1.818-.64.633-.167 1.294-.247 1.993-.247 1.401 0 2.52.274 3.353.834.835.552 1.401 1.319 1.709 2.299.461-.391.962-.779 1.514-1.155.549-.379 1.13-.713 1.744-1.003.611-.297 1.249-.533 1.912-.709.657-.174 1.33-.266 2.003-.266.882 0 1.657.117 2.318.347.664.23 1.216.557 1.652.977.441.422.773.937.994 1.538.22.603.331 1.275.331 2.023v7.942h3.322v1.661h-8.468zm-35.585-12.736v1.57c-2.374.004-4.163.506-5.368 1.5-1.21.997-1.817 2.445-1.817 4.335 0 1.894.607 3.336 1.817 4.33 1.205.987 2.994 1.482 5.368 1.486v1.569c-1.268-.002-2.444-.147-3.536-.43-1.099-.291-2.053-.74-2.862-1.342-.808-.603-1.441-1.365-1.902-2.293-.462-.931-.692-2.034-.692-3.321 0-1.272.23-2.376.699-3.311.465-.938 1.103-1.71 1.922-2.31.813-.602 1.766-1.054 2.867-1.344 1.091-.292 2.257-.439 3.504-.439zm-58.284 14.787v-1.565h.022c.726 0 1.411-.088 2.051-.261.643-.172 1.244-.394 1.796-.669.554-.276 1.06-.579 1.516-.913.453-.331.865-.659 1.226-.985v-6.721c-.373-.27-.789-.537-1.251-.784-.462-.251-.964-.477-1.503-.671-.545-.196-1.126-.351-1.738-.47-.611-.115-1.26-.178-1.949-.178h-.169v-1.57h.14c.596 0 1.189.044 1.767.141.576.088 1.142.217 1.691.385.549.171 1.08.363 1.588.583.513.222.984.451 1.425.695v-5.967h-3.338v-1.648h5.177v18.547h3.312v1.661h-5.15v-2.044c-.462.361-.938.691-1.439.992-.5.297-1.035.552-1.611.771-.574.213-1.188.387-1.839.502-.54.096-1.112.151-1.724.169zm24.659-13.348v-7.25h22.015v7.25h-1.659v-5.57h-8.43v16.867h4.517v1.661h-10.866v-1.661h4.514v-16.867h-8.432v5.57zm-24.659-1.439v1.57c-.941.017-1.809.144-2.595.382-.834.255-1.548.627-2.14 1.114-.593.482-1.054 1.081-1.38 1.793-.331.713-.496 1.52-.496 2.431 0 1.904.565 3.365 1.691 4.39 1.125 1.026 2.761 1.538 4.919 1.542v1.565c-.132.002-.266.004-.402.004-1.018 0-2.013-.15-2.978-.444-.971-.304-1.819-.759-2.569-1.376-.742-.618-1.34-1.402-1.793-2.339-.452-.946-.677-2.056-.677-3.342 0-1.23.225-2.307.668-3.223.445-.907 1.06-1.666 1.83-2.268.775-.6 1.683-1.054 2.72-1.354 1.002-.284 2.068-.432 3.202-.445zm-21.265 14.675v-1.551c.208-.029.418-.067.632-.109.703-.14 1.38-.309 2.039-.521.659-.213 1.261-.451 1.807-.715.553-.265.983-.526 1.296-.783v-4.245c-2.143.075-3.957.213-5.428.416l-.346.05v-1.544l.466-.055c1.627-.188 3.393-.321 5.308-.414v-.691c0-.519-.141-.964-.429-1.336-.28-.376-.668-.679-1.141-.915-.483-.234-1.043-.412-1.674-.522-.635-.106-1.301-.169-2.007-.169-.182 0-.354.002-.523.008v-1.573c.152-.005.309-.005.466-.005 1.03 0 1.979.082 2.852.264.874.178 1.628.453 2.259.84.635.383 1.125.878 1.487 1.488.354.614.536 1.356.536 2.23v7.913h3.499v1.661h-5.325v-1.633c-.453.227-.95.458-1.5.696-.549.245-1.142.46-1.78.656-.635.192-1.314.359-2.027.485-.154.027-.311.051-.467.074zm0-14.67v1.573c-.608.017-1.152.067-1.633.148-.612.103-1.13.255-1.55.456-.422.198-.759.447-1.009.733-.246.29-.431.621-.549.99l-1.871-.44c.314-1.098 1.063-1.946 2.242-2.559 1.097-.56 2.548-.86 4.37-.901zm0 5.668v1.544c-1.311.192-2.387.438-3.219.729-.907.32-1.561.696-1.959 1.133-.395.438-.596.935-.596 1.492 0 .861.378 1.521 1.128 1.972s1.849.679 3.299.679c.429 0 .88-.035 1.347-.098v1.551c-.573.075-1.169.116-1.787.116-.88 0-1.682-.083-2.395-.265-.717-.176-1.325-.436-1.823-.782-.504-.353-.889-.783-1.165-1.296-.276-.516-.41-1.109-.41-1.789 0-1.049.336-1.906 1.014-2.572.677-.669 1.611-1.202 2.803-1.595 1.074-.361 2.327-.633 3.763-.819zm-18.768 9.09v-1.633h.112c.959 0 1.798-.079 2.507-.234.713-.156 1.314-.365 1.808-.635.496-.264.896-.561 1.209-.899.305-.328.546-.671.714-1.028h1.838c-.579 1.49-1.564 2.603-2.949 3.334-1.391.729-3.098 1.096-5.126 1.096h-.113zm0-6.488v-1.586h6.462c-.049-.665-.199-1.298-.455-1.896-.251-.598-.639-1.125-1.144-1.582-.513-.458-1.155-.817-1.929-1.089-.772-.272-1.709-.401-2.797-.401h-.138v-1.637l.138-.002c1.286 0 2.44.188 3.458.548 1.02.363 1.884.886 2.593 1.567.702.684 1.244 1.509 1.615 2.477.371.972.559 2.066.559 3.281v.319h-8.362zm0-8.191v1.637c-.963.01-1.815.142-2.565.401-.785.271-1.453.631-1.999 1.089-.549.457-.981.984-1.296 1.582-.312.598-.511 1.23-.603 1.896h6.463v1.586h-6.463c.07.749.262 1.42.584 2.021.317.598.756 1.104 1.314 1.523.556.422 1.228.748 2.007.974.749.218 1.6.331 2.558.337v1.633c-1.238-.011-2.368-.176-3.382-.506-1.043-.337-1.934-.826-2.669-1.457-.733-.634-1.304-1.4-1.709-2.301-.4-.901-.601-1.913-.601-3.031 0-1.089.21-2.081.633-2.992.422-.909 1.007-1.685 1.766-2.339.755-.65 1.653-1.154 2.69-1.516 1.002-.344 2.092-.522 3.272-.537zm-84.332 14.591v-1.551c.208-.029.418-.067.632-.109.703-.14 1.38-.309 2.039-.521.659-.213 1.261-.451 1.809-.715.551-.265.981-.526 1.295-.783v-4.245c-2.144.075-3.957.213-5.429.416l-.346.05v-1.544l.466-.055c1.628-.188 3.395-.321 5.309-.414v-.691c0-.519-.142-.964-.43-1.336-.28-.376-.668-.679-1.141-.915-.483-.234-1.043-.412-1.674-.522-.635-.106-1.301-.169-2.009-.169-.18 0-.353.002-.521.008v-1.573c.152-.005.309-.005.466-.005 1.03 0 1.979.082 2.852.264.874.178 1.628.453 2.259.84.635.383 1.125.878 1.487 1.488.354.614.536 1.356.536 2.23v7.913h3.499v1.661h-5.324v-1.633c-.453.227-.951.458-1.501.696-.549.245-1.142.46-1.78.656-.635.192-1.314.359-2.027.485-.153.027-.31.051-.467.074zm31.379-12.635h-2.78l-5.44 10.695-.342.631c-.362.719-.704 1.39-1.02 2.023-.322.633-.647 1.21-.979 1.73-.329.528-.688 1.003-1.06 1.419-.37.416-.787.767-1.24 1.06-.457.284-.968.506-1.542.656-.566.154-1.22.229-1.951.229-.587 0-1.206-.083-1.849-.251-.641-.167-1.216-.415-1.71-.748l.808-1.561c.136.09.292.186.462.296.171.107.371.205.598.302.227.09.476.171.758.233.276.063.586.097.934.097.692 0 1.301-.101 1.817-.293.512-.198.976-.479 1.383-.847.415-.369.792-.823 1.132-1.358.335-.545.678-1.155 1.02-1.843l-6.235-12.472h-2.736v-1.645h7.266v1.645h-2.411l5.117 10.547 5.203-10.547h-2.469v-1.645h7.269v1.647zm1.807 10.753c0-.235.045-.455.124-.662.087-.205.207-.385.362-.537.157-.148.337-.276.542-.368.206-.092.438-.138.695-.138.255 0 .49.046.706.138.217.092.402.224.559.389.154.165.281.37.366.603.089.236.136.493.136.769 0 .441-.063.87-.176 1.283-.121.421-.28.813-.486 1.191-.209.381-.453.734-.73 1.068-.28.332-.577.638-.889.909l-.782-.746c.367-.372.661-.744.896-1.112.239-.363.408-.763.52-1.183-.317 0-.587-.046-.818-.14-.23-.093-.422-.218-.574-.368-.153-.152-.265-.324-.34-.517-.072-.192-.111-.382-.111-.579zm17.797-18.604h10.266v1.648h-4.207v16.837h14.632v-4.633h1.662v6.355h-22.353v-1.661h4.221v-16.898h-4.221zm-50.983 5.816v1.573c-.606.017-1.152.067-1.633.148-.612.103-1.127.255-1.55.456-.422.198-.758.447-1.009.733-.246.29-.431.621-.549.99l-1.871-.44c.315-1.098 1.063-1.946 2.242-2.559 1.097-.56 2.548-.86 4.37-.901zm0 5.668v1.544c-1.311.192-2.387.438-3.219.729-.907.32-1.561.696-1.959 1.133-.395.438-.596.935-.596 1.492 0 .861.378 1.521 1.128 1.972s1.849.679 3.299.679c.429 0 .88-.035 1.347-.098v1.551c-.573.075-1.169.116-1.787.116-.88 0-1.682-.083-2.395-.265-.717-.176-1.325-.436-1.823-.782-.504-.353-.889-.783-1.165-1.296-.274-.516-.41-1.109-.41-1.789 0-1.049.336-1.906 1.014-2.572.677-.669 1.611-1.202 2.803-1.595 1.075-.361 2.328-.633 3.763-.819zm-21.18 9.114v-1.565h.024c.726 0 1.411-.088 2.049-.261.643-.172 1.247-.394 1.799-.669.551-.276 1.058-.579 1.515-.913.451-.331.865-.659 1.224-.985v-6.721c-.37-.27-.786-.537-1.248-.784-.462-.251-.965-.477-1.505-.671-.544-.196-1.125-.351-1.739-.47-.61-.115-1.259-.178-1.947-.178h-.171v-1.57h.143c.596 0 1.188.044 1.766.141.577.088 1.139.217 1.692.385.545.171 1.079.363 1.586.583.513.222.983.451 1.424.695v-5.967h-3.336v-1.648h5.175v18.547h3.313v1.661h-5.152v-2.044c-.462.361-.937.691-1.438.992-.5.297-1.034.552-1.612.771-.573.213-1.187.387-1.838.502-.537.096-1.112.151-1.724.169zm0-14.787v1.57c-.941.017-1.81.144-2.593.382-.837.255-1.55.627-2.139 1.114-.594.482-1.056 1.081-1.383 1.793-.33.713-.496 1.52-.496 2.431 0 1.904.568 3.365 1.691 4.39 1.127 1.026 2.763 1.538 4.919 1.542v1.565c-.132.002-.265.004-.4.004-1.02 0-2.013-.15-2.979-.444-.969-.304-1.82-.759-2.567-1.376-.742-.618-1.34-1.402-1.793-2.339-.451-.946-.679-2.056-.679-3.342 0-1.23.228-2.307.668-3.223.447-.907 1.062-1.666 1.832-2.268.775-.6 1.682-1.054 2.721-1.354.999-.284 2.064-.432 3.198-.445zm-20.292 14.791v-1.569h.022c2.374 0 4.161-.497 5.361-1.496 1.2-.993 1.802-2.436 1.802-4.32 0-1.89-.602-3.338-1.802-4.335s-2.987-1.5-5.361-1.5h-.022v-1.57h.022c1.265 0 2.443.145 3.538.433 1.09.289 2.038.736 2.846 1.338.805.604 1.437 1.369 1.893 2.31.462.937.693 2.048.693 3.325 0 1.287-.231 2.391-.693 3.321-.456.928-1.088 1.69-1.893 2.293-.808.602-1.756 1.051-2.846 1.342-1.095.284-2.273.43-3.538.43h-.022zm0-14.791v1.57c-2.376.004-4.165.506-5.369 1.5-1.211.997-1.817 2.445-1.817 4.335 0 1.894.606 3.336 1.817 4.33 1.204.987 2.993 1.482 5.369 1.486v1.569c-1.268-.002-2.444-.147-3.538-.43-1.099-.291-2.053-.74-2.86-1.342-.808-.603-1.443-1.365-1.903-2.293-.463-.931-.693-2.034-.693-3.321 0-1.272.23-2.376.698-3.311.468-.938 1.104-1.71 1.923-2.31.813-.602 1.768-1.054 2.868-1.344 1.091-.292 2.257-.439 3.505-.439zm-95.695 14.675v-1.551c.207-.029.418-.067.632-.109.704-.14 1.38-.309 2.038-.521.659-.213 1.261-.451 1.808-.715.553-.265.983-.526 1.295-.783v-4.245c-2.144.075-3.955.213-5.428.416l-.345.05v-1.544l.467-.055c1.626-.188 3.393-.321 5.306-.414v-.691c0-.519-.14-.964-.427-1.336-.281-.376-.667-.679-1.143-.915-.482-.234-1.041-.412-1.674-.522-.633-.106-1.3-.169-2.008-.169-.18 0-.353.002-.521.008v-1.573c.153-.005.31-.005.467-.005 1.028 0 1.978.082 2.852.264.873.178 1.625.453 2.258.84.633.383 1.125.878 1.487 1.488.354.614.535 1.356.535 2.23v7.913h3.499v1.661h-5.325v-1.633c-.451.227-.948.458-1.501.696-.547.245-1.139.46-1.777.656-.637.192-1.314.359-2.027.485-.155.027-.31.051-.468.074zm12.097-14.279h5.146v2.942c.4-.475.833-.911 1.295-1.316s.959-.763 1.491-1.06c.537-.301 1.109-.537 1.722-.707.612-.173 1.27-.255 1.978-.255.353 0 .682.025.984.078.307.056.576.114.813.186.229.064.425.136.586.205.157.066.262.112.322.134l-.663 1.69c-.245-.13-.563-.261-.947-.396-.388-.141-.874-.207-1.463-.207-.746 0-1.43.114-2.053.347-.622.226-1.186.519-1.692.859-.501.34-.954.723-1.345 1.139s-.732.809-1.028 1.17v7.531h3.618v1.661h-8.765v-1.661h3.309v-10.695h-3.309v-1.645zm15.397 0h5.146v2.646c.462-.44.974-.849 1.546-1.227.567-.38 1.18-.706 1.836-.993.659-.286 1.348-.508 2.073-.666.729-.167 1.471-.247 2.235-.247.913 0 1.713.117 2.39.347.683.23 1.249.557 1.701.977.452.422.789.937 1.016 1.538.225.603.335 1.275.335 2.023v7.942h3.324v1.661h-8.469v-1.661h3.309v-7.403c0-.742-.097-1.358-.288-1.839-.188-.487-.461-.874-.817-1.156-.351-.284-.778-.487-1.286-.598-.507-.106-1.069-.169-1.696-.169-.737 0-1.455.098-2.163.297-.709.194-1.372.44-1.992.733-.623.295-1.196.623-1.723.976-.523.357-.969.7-1.33 1.024v8.135h3.323v1.661h-8.469v-1.661h3.308v-10.695h-3.308v-1.645zm34.574 1.043v-7.25h22.016v7.25h-1.66v-5.57h-8.429v16.867h4.518v1.661h-10.868v-1.661h4.512v-16.867h-8.429v5.57zm-62.068-1.434v1.573c-.608.017-1.152.067-1.633.148-.611.103-1.128.255-1.55.456-.423.198-.758.447-1.01.733-.245.29-.431.621-.548.99l-1.871-.44c.315-1.098 1.064-1.946 2.243-2.559 1.096-.558 2.547-.86 4.369-.901zm0 5.668v1.544c-1.312.192-2.387.438-3.219.729-.908.32-1.561.696-1.958 1.133-.396.438-.596.935-.596 1.492 0 .861.376 1.521 1.128 1.972.75.451 1.848.679 3.298.679.43 0 .879-.035 1.347-.098v1.551c-.574.075-1.17.116-1.787.116-.88 0-1.682-.083-2.395-.265-.717-.176-1.326-.436-1.824-.782-.501-.353-.888-.783-1.164-1.296-.276-.516-.411-1.109-.411-1.789 0-1.049.337-1.906 1.015-2.572.677-.669 1.611-1.202 2.802-1.595 1.078-.361 2.33-.633 3.764-.819zm-18.767 9.09v-1.633h.112c.959 0 1.798-.079 2.506-.234.713-.156 1.314-.365 1.809-.635.495-.264.897-.561 1.208-.899.307-.328.548-.671.714-1.028h1.837c-.578 1.49-1.563 2.603-2.946 3.334-1.391.729-3.099 1.096-5.127 1.096h-.113zm0-6.488v-1.586h6.462c-.049-.665-.199-1.298-.456-1.896-.249-.598-.637-1.125-1.144-1.582-.512-.458-1.155-.817-1.929-1.089-.772-.272-1.706-.401-2.794-.401h-.139v-1.637l.139-.002c1.284 0 2.438.188 3.457.548 1.02.363 1.884.886 2.592 1.567.703.684 1.245 1.509 1.616 2.477.371.972.558 2.066.558 3.281v.319h-8.362zm-33.352-14.086h10.266v1.648h-4.205v16.837h14.632v-4.633h1.662v6.355h-22.355v-1.661h4.223v-16.898h-4.223zm33.352 5.895v1.637c-.962.01-1.816.142-2.566.401-.784.271-1.452.631-1.999 1.089-.546.457-.979.984-1.296 1.582-.31.598-.51 1.23-.602 1.896h6.463v1.586h-6.463c.07.749.262 1.42.582 2.021.317.598.758 1.104 1.316 1.523.559.422 1.229.748 2.008.974.748.218 1.6.331 2.557.337v1.633c-1.239-.011-2.367-.176-3.382-.506-1.044-.337-1.932-.826-2.67-1.457-.733-.634-1.305-1.4-1.706-2.301s-.603-1.913-.603-3.031c0-1.089.21-2.081.632-2.992.422-.909 1.008-1.685 1.767-2.339.754-.65 1.651-1.154 2.69-1.516 1.001-.344 2.091-.522 3.272-.537z" fill="#58595b"/><path d="m16.615 193.285h.002c19.182-4.625 23.321-4.707 39.329-4.887 9.406.297 8.535-3.441 2.11-3.026-4.405-.902-12.085-.112-17.617-.226-.09-5.939-.18-11.875-.271-17.811-18.092.748-20.651 1.542-33.679 5.039 17.146.938 25.831 5.595 27.541 6.667-15.206 8.881-14.785 11.117-17.415 14.244z" fill="url(#b)"/></g><path d="m16.615 193.285h.003c19.181-4.627 23.32-4.707 39.328-4.887 9.406.297 8.535-3.441 2.11-3.026-4.405-.902-12.085-.112-17.616-.226-.091-5.939-.181-11.875-.271-17.811-18.092.748-20.651 1.542-33.679 5.037 17.146.94 25.831 5.595 27.541 6.669-15.207 8.881-14.785 11.117-17.416 14.244z" fill="none" stroke="#fff" stroke-miterlimit="2.6131" stroke-width=".1474"/><path d="m124.515 23.504c44.646 0 80.839 36.157 80.839 80.758 0 19.577-6.976 37.523-18.575 51.502-39.592-5.827-79.85-6.3-124.195.396-11.799-14.034-18.909-32.136-18.909-51.898 0-44.601 36.194-80.758 80.84-80.758z" fill="#fff" fill-rule="evenodd"/><path d="m124.515 23.504c44.646 0 80.839 36.156 80.839 80.758 0 19.575-6.975 37.521-18.575 51.502m-124.195.396c-11.799-14.034-18.909-32.136-18.909-51.898 0-44.602 36.193-80.758 80.839-80.758" fill="none" stroke="#007136" stroke-miterlimit="22.9256" stroke-width="1.1262"/><path d="m48.722 104.25v.051c.008 19.648 7.513 37.549 19.809 51.001 39.807-5.48 76.392-5.161 112.291-.375 12.102-13.415 19.471-31.177 19.471-50.66 0-41.813-33.93-75.709-75.786-75.709-41.849 0-75.777 33.886-75.785 75.692z" fill="url(#c)" fill-rule="evenodd"/><path d="m179.706 52.396c-7.131 12.363-31.058 21.452-59.481 21.452-24.302 0-45.316-6.645-55.358-16.297 13.874-17.652 35.433-28.993 59.641-28.993 21.76 0 41.377 9.165 55.198 23.838z" fill="#fff" fill-rule="evenodd" opacity=".27"/><path d="m124.515 28.551c41.855 0 75.786 33.897 75.786 75.711 0 19.486-7.371 37.25-19.477 50.665m-112.282.372c-12.307-13.457-19.814-31.372-19.814-51.037 0-41.814 33.932-75.711 75.787-75.711" fill="none" stroke="#007136" stroke-miterlimit="22.9256" stroke-width="1.1262"/><path d="m83.03 69.288-4.49-4.333.574-.594 2.228 2.149-.074-4.377.778-.803v3.637l4.57.612-.757.784-3.817-.597.008 1.426 1.556 1.501zm4.052-4.237.606-.509-3.153-3.754 5.665 1.647.649-.544-4.013-4.777-.607.509 3.151 3.75-5.663-1.645-.649.544zm2.907-6.397c-.595-.848-.833-1.671-.712-2.47.121-.798.54-1.449 1.261-1.954.472-.33.977-.515 1.513-.555.538-.038 1.047.073 1.528.337.481.263.901.652 1.258 1.162.364.518.585 1.055.663 1.609.076.556-.003 1.073-.239 1.551-.237.48-.577.874-1.021 1.185-.482.337-.992.522-1.535.553-.542.035-1.052-.083-1.528-.349-.478-.264-.874-.621-1.188-1.069zm.705-.478c-.539-.768-.751-1.438-.636-2.008.114-.571.412-1.022.892-1.359.337-.235.7-.362 1.091-.381.39-.019.765.077 1.123.29.358.212.684.525.975.941.46.657.651 1.281.574 1.868-.077.589-.372 1.062-.882 1.417-.5.35-1.04.464-1.62.341-.58-.124-1.086-.492-1.517-1.109zm7.827-1.426.752-.383-.979-4.832c-.042-.207-.097-.452-.169-.736.059.07.228.259.507.563l3.331 3.637.71-.362-1.309-6.333-.741.377.95 4.016c.117.512.229.962.339 1.349-.403-.568-.881-1.15-1.435-1.747l-2.232-2.407-.888.453.856 4.291c.021.105.112.489.272 1.156-.257-.345-.529-.683-.814-1.019l-2.705-3.211-.755.385zm6.483-3.056-1.93-5.932.788-.256 1.701 5.231 2.924-.949.228.7zm4.569-1.601 4.557-.968-.154-.72-3.748.795-.442-2.076 3.379-.718-.154-.716-3.377.718-.397-1.868 3.606-.766-.153-.72-4.414.938zm5.722-1.246-.76-6.19 2.134-.261c.48-.06.853-.074 1.114-.046.364.037.686.148.963.331.36.237.648.559.863.968.215.41.356.89.424 1.442.058.47.055.892-.013 1.27-.065.377-.167.695-.312.954-.141.258-.307.47-.495.63-.187.161-.42.295-.701.401s-.609.183-.983.228zm.729-.832 1.323-.162c.409-.05.725-.127.948-.231.224-.105.395-.234.516-.39.171-.216.291-.499.359-.838.068-.343.074-.746.016-1.213-.079-.647-.248-1.131-.502-1.453-.255-.323-.542-.522-.863-.604-.229-.059-.589-.056-1.075.003l-1.303.16zm8.365-2.293-.012-.729 2.644-.051.04 2.314c-.399.33-.813.579-1.242.751-.43.17-.872.26-1.324.268-.614.009-1.174-.111-1.68-.365-.505-.253-.89-.626-1.155-1.117-.264-.492-.401-1.043-.412-1.657-.011-.607.108-1.176.352-1.705.245-.532.603-.929 1.075-1.193.473-.262 1.021-.399 1.643-.41.45-.008.86.059 1.227.198.368.138.657.337.869.596.212.258.375.594.491 1.012l-.742.217c-.101-.316-.222-.563-.361-.742-.144-.181-.345-.323-.606-.427-.258-.103-.547-.154-.861-.148-.377.007-.704.07-.977.189-.274.12-.493.274-.66.464-.165.19-.292.396-.382.624-.152.388-.225.807-.216 1.259.009.556.113 1.018.312 1.39.198.371.482.645.851.818.37.176.76.261 1.17.253.359-.006.707-.082 1.045-.226.338-.142.594-.295.766-.454l-.019-1.162zm3.918 2.506.761-6.189 4.479.55-.09.73-3.659-.448-.235 1.895 3.428.42-.09.727-3.427-.421-.258 2.108 3.804.467-.089.73zm8.263 1.306 1.298-6.101.808.172-1.297 6.1zm2.62-1.519.763.176c-.063.309-.06.578.007.809.065.233.216.451.447.657.231.204.515.362.854.471.299.097.578.138.835.125.258-.015.47-.081.631-.199.163-.121.274-.271.334-.455.061-.187.06-.366-.004-.54-.063-.176-.203-.349-.42-.523-.14-.114-.459-.324-.963-.633-.501-.308-.844-.556-1.024-.742-.236-.239-.388-.493-.456-.758-.067-.265-.056-.533.033-.806.097-.299.272-.552.527-.756.254-.206.568-.322.937-.351.372-.029.757.021 1.155.151.442.143.806.339 1.096.592.291.249.481.541.573.875.089.333.087.677-.012 1.029l-.772-.188c.081-.387.036-.716-.136-.983-.171-.267-.484-.475-.94-.622-.476-.154-.85-.18-1.125-.077-.274.103-.451.278-.531.522-.07.214-.048.414.06.601.107.188.455.457 1.046.808.591.352.989.62 1.192.805.293.272.483.558.568.854.086.297.075.605-.027.922-.103.317-.29.584-.562.804-.271.221-.603.353-.991.399-.388.044-.795-.001-1.219-.139-.538-.174-.963-.397-1.274-.672-.313-.274-.521-.602-.626-.983-.102-.381-.095-.773.024-1.173zm7.38 4.775 2.833-5.556.737.375-2.499 4.9 2.739 1.395-.335.655zm4.471 2.283 3.026-5.455.722.4-3.026 5.453zm5.798.794 1.502 1.052-.667.95c-.234.029-.53.001-.887-.083-.357-.081-.683-.224-.978-.43-.337-.236-.603-.534-.798-.892-.196-.359-.266-.746-.207-1.163.057-.417.245-.852.565-1.307.26-.37.564-.667.916-.892.206-.13.431-.223.677-.279.247-.057.514-.053.806.011.292.063.592.204.903.42.256.179.46.39.609.626.149.238.229.471.239.699.009.228-.04.499-.144.813l.728.259c.151-.405.218-.773.198-1.107-.019-.332-.138-.663-.353-.991-.214-.329-.507-.623-.876-.881-.509-.356-1.033-.566-1.569-.631-.537-.064-1.061.045-1.572.333-.51.284-.939.675-1.288 1.171-.352.502-.565 1.03-.641 1.583-.075.552.015 1.081.276 1.583.258.5.642.927 1.144 1.278.372.261.782.448 1.229.562s.931.155 1.448.122l1.328-1.895-2.168-1.511zm1.661 4.313 4.012-4.778.634.532-1.648 1.962 2.486 2.083 1.647-1.963.634.532-4.013 4.778-.634-.532 1.891-2.251-2.485-2.083-1.891 2.25zm5.764 5.359.574.593 3.961-3.82 1.435 1.483.53-.511-3.437-3.556-.53.512 1.429 1.478z" fill-rule="evenodd"/><path d="m232.363 193.486c-2.63-3.131-2.208-5.365-17.416-14.248 1.71-1.072 10.396-5.727 27.541-6.665-13.028-3.497-15.587-4.293-33.678-5.041-.09 5.938-.18 11.873-.272 17.812-5.531.112-13.212-.676-17.618.228-6.423-.416-7.294 3.321 2.111 3.024 16.01.181 20.149.258 39.332 4.89z" fill="url(#d)" fill-rule="evenodd"/><path d="m232.363 193.484c-2.63-3.131-2.207-5.363-17.415-14.246 1.711-1.074 10.395-5.727 27.542-6.667-13.028-3.495-15.587-4.291-33.679-5.041-.09 5.939-.18 11.875-.272 17.813-5.531.112-13.212-.678-17.617.226-6.424-.414-7.295 3.323 2.11 3.026 16.009.18 20.148.259 39.331 4.889z" fill="none" stroke="#fff" stroke-miterlimit="2.6131" stroke-width=".1474"/><path d="m208.903 169.437c8.312-.297 16.623.083 24.935 2.583-8.55 1.021-16.126 3.214-22.525 6.815 6.722 4.32 13.34 8.153 17.264 12.26-12.868-3.476-26.567-4.136-39.005-3.958-1.571-.103-2.057-.713-2.379-1.037" fill="none" stroke="#fff" stroke-linejoin="round" stroke-miterlimit="2.6131" stroke-width=".3756"/><path d="m40.475 185.146c12.578-.16 23.459-.066 22.479 1.796l.022-9.365c-11.733 2.037-19.265 4.759-22.501 7.569z" fill="url(#f)" fill-rule="evenodd"/><path d="m62.976 177.574c-11.733 2.04-19.264 4.762-22.5 7.572 12.578-.16 23.459-.066 22.479 1.796z" fill="none" stroke="#fff" stroke-miterlimit="2.6131" stroke-width=".1474"/><path d="m40.123 169.242c-8.312-.299-16.624.079-24.935 2.579 8.55 1.021 16.125 3.214 22.523 6.817-6.72 4.317-13.339 8.153-17.262 12.26 12.867-3.478 26.568-4.136 39.005-3.961 1.571-.102 2.057-.71 2.378-1.034" fill="none" stroke="#fff" stroke-linejoin="round" stroke-miterlimit="2.6131" stroke-width=".3753"/><path d="m186.04 177.773c11.733 2.04 19.264 4.759 22.5 7.57-12.577-.161-23.458-.065-22.478 1.797z" fill="url(#g)" fill-rule="evenodd"/><path d="m186.04 177.773c11.733 2.04 19.264 4.759 22.5 7.57-12.576-.161-23.458-.065-22.478 1.797z" fill="none" stroke="#fff" stroke-miterlimit="2.6131" stroke-width=".1474"/><path d="m40.118 185.348c16.461-15.777 148.952-16.228 168.469 0h.001l4.972-22.664c-35.463-15.065-136.923-15.304-177.52-.025v.002z" fill="url(#h)" fill-rule="evenodd"/><path d="m36.04 162.658 4.078 22.689c16.458-15.777 148.955-16.228 168.47 0l4.973-22.666c-35.464-15.065-136.927-15.303-177.521-.023z" fill="none" stroke="#fff" stroke-miterlimit="2.6131" stroke-width=".1474"/><path d="m47.256 171.578 2.414-.691.437 1.52c.268.934.123 1.722-.434 2.365-.558.645-1.262 1.09-2.112 1.332-1.134.326-2.031.305-2.689-.061-.659-.364-1.145-1.089-1.458-2.178l-1.274-4.439c-.611-2.13.166-3.494 2.329-4.093 1.061-.305 1.947-.294 2.658.029.713.326 1.213.991 1.501 1.996l.054.192.193.673-2.442.7-.191-.675c-.253-.876-.638-1.239-1.16-1.089l-.027.008c-.278.099-.475.234-.589.404-.113.173-.115.449-.005.831l1.49 5.194c.171.596.53.813 1.08.656.547-.13.747-.55.6-1.271l-.099-.444zm8.292 2.222-2.042-10.496 3.012-.585c1.026-.2 1.932-.18 2.715.063.784.24 1.296 1.056 1.54 2.454.163.992.099 1.764-.196 2.315-.295.552-.715.937-1.259 1.154-.544.215-1.242.396-2.096.545l.793 4.071zm1.305-6.442.097-.017c.507-.09.86-.215 1.062-.376.202-.159.308-.332.32-.519.013-.186-.011-.48-.07-.886-.097-.496-.253-.792-.472-.889-.217-.098-.495-.115-.831-.05-.087-.002-.206.01-.356.039l-.265.053zm14.468 2.642-.028.003c-.278.825-.939 1.314-1.984 1.461l-.481.064c-.63.025-1.208-.194-1.735-.654-.525-.458-.858-1.183-.996-2.172l-.688-4.682c-.136-.97.003-1.789.418-2.455.416-.669 1.24-1.096 2.472-1.277.687-.106 1.299-.092 1.835.038.538.131.97.4 1.295.805.327.405.551.95.676 1.632l.129.918-2.487.351-.133-.946c-.085-.401-.211-.659-.376-.775-.165-.115-.374-.157-.628-.119-.469.083-.72.353-.751.811l-.01.33.756 5.38c.038.273.159.477.359.612.202.136.413.196.632.187.385-.057.63-.195.728-.412.099-.222.113-.581.043-1.081l-.121-.844-.889.123-.268-1.906 3.377-.475.81 5.761-1.682.233zm2.896-2.585-.492-4.678c-.174-2.112.86-3.287 3.102-3.521.973-.121 1.802.04 2.491.485.687.44 1.09 1.216 1.206 2.324l.492 4.677c.064 1.149-.129 2.015-.581 2.596-.45.586-1.29.94-2.519 1.07-1.192.126-2.068-.075-2.625-.6-.558-.522-.916-1.308-1.074-2.353zm2.011-5.171-.005.232.497 4.706c.039.377.15.69.335.938.183.251.422.357.716.326.577-.061.814-.583.71-1.563l-.484-4.596-.024-.228c-.104-.713-.437-1.024-1-.926-.49.092-.738.464-.745 1.111zm6.231 7.363-.936-10.678 5.714-.5.187 2.13-3.212.282.173 1.973 3.127-.275.187 2.132-3.127.273.203 2.314 3.413-.297.186 2.132zm7.08-.696-.748-10.667 2.592-.18 2.326 5.84.056-.005-.659-5.956 2.392-.165.746 10.663-2.591.182-2.369-5.835-.025.029.644 5.929zm7.977-.559-.563-10.707 2.509-.132.225 4.284 1.642-4.381 2.579-.136-2.032 4.847 2.736 5.851-2.651.14-1.579-3.657-.499 1.111.139 2.648zm7.422-.4 1.964-10.766 3.039-.108 2.684 10.604-2.538.092-.401-2.057-1.982.069-.228 2.077zm2.984-4.056 1.441-.05-.895-4.76zm9.145 3.632v-10.723h2.54v10.723zm3.838 0v-10.693h2.599l1.911 5.988h.058l-.243-5.988h2.397v10.693h-2.597l-1.955-5.986-.029.027.228 5.959zm9.619 0v-8.555h-1.983v-2.139h6.536v2.139h-2.04v8.555zm5.523.012.188-10.72 5.735.101-.037 2.141-3.225-.059-.035 1.983 3.14.052-.037 2.141-3.14-.057-.041 2.322 3.424.061-.037 2.14zm7.05.293.372-10.685 3.766.132c1.92.065 2.891 1.019 2.913 2.855-.016.742-.137 1.304-.36 1.69-.223.387-.58.692-1.073.911 0 0-.003.005-.007.009-.005.004-.012.013-.022.021.323.013.601.165.833.464.232.297.367.612.403.947l.026 2.526c.011.753.106 1.164.285 1.235l-.005.145-2.724-.097c-.106-.202-.148-.624-.126-1.26l.041-1.195c.021-.571-.026-.999-.14-1.29-.114-.288-.337-.453-.668-.495l-.857-.029-.146 4.205zm2.724-6.067.856.031c.295.009.527-.081.695-.275s.262-.571.282-1.131c.017-.506-.128-.832-.438-.98-.308-.148-.744-.229-1.305-.251zm5.252 6.366.561-10.678 2.594.136 1.596 6.08.057.004.071-5.994 2.395.123-.56 10.681-2.595-.136-1.638-6.082-.03.026-.084 5.963zm7.449.546 3.082-10.503 3.032.209 1.56 10.829-2.534-.178-.183-2.084-1.979-.138-.443 2.039zm3.395-3.723 1.438.101-.392-4.828zm5.787 4.483.747-8.523-1.976-.171.187-2.128 6.511.568-.188 2.13-2.033-.178-.746 8.521zm5.585.589 1.121-10.661 2.528.266-1.122 10.661zm4.207-2.464.656-4.656c.341-2.095 1.629-2.98 3.863-2.669.973.117 1.738.477 2.299 1.072.559.596.761 1.446.606 2.545l-.655 4.661c-.216 1.129-.615 1.925-1.193 2.378-.577.456-1.479.601-2.704.429-1.187-.167-1.987-.574-2.401-1.216-.414-.644-.571-1.492-.471-2.544zm3.203-4.529-.06.22-.661 4.688c-.053.377-.02.709.098.995.119.284.324.447.616.487.575.081.931-.368 1.068-1.344l.644-4.575.032-.229c.073-.719-.176-1.099-.747-1.141-.494-.032-.825.268-.99.899zm4.23 8.735 2.333.412.81-5.907.034-.024.884 6.236 2.557.449 1.859-10.529-2.362-.414-.8 5.938-.057-.011-.841-6.229-2.559-.449zm7.312 1.345 4.688-9.892 2.962.684-.156 10.937-2.475-.57.146-2.088-1.932-.445-.758 1.943zm3.935-3.145 1.404.324.369-4.832zm4.265 5.269 3.137-10.25 2.429.742-2.511 8.205 2.933.895-.626 2.047z" fill="#fff" fill-rule="evenodd"/><path d="m36.498 165.189c40.955-14.778 132.283-16.233 176.504.059" fill="none" stroke="#fff" stroke-miterlimit="2.6131" stroke-width=".3753"/><path d="m39.451 181.61c37.076-16.206 140.161-14.793 169.886.341" fill="none" stroke="#fff" stroke-miterlimit="2.6131" stroke-width=".3753"/><ellipse cx="124.507" cy="104.267" fill="#005e3a" fill-rule="evenodd" rx="43.984" ry="43.939"/><path d="m155.05 72.651c.475 1.199.728 2.444.728 3.722 0 9.681-14.386 17.529-32.131 17.529-17.746 0-32.132-7.848-32.132-17.529 0-.422.029-.839.082-1.253 8.058-9.072 19.815-14.793 32.911-14.793 11.865 0 22.63 4.694 30.542 12.324z" fill="#fff" fill-rule="evenodd" opacity=".22"/><path d="m105.704 72.505h35.854c3.079 8.028 7.307 12.68 12.48 13.811 1.192 27.206-9.588 44.095-30.18 52.53-18.571-6.742-29.232-23.767-30.861-52.53 6.634-1.563 10.912-6.11 12.707-13.811z" fill="#e6e7e8" fill-rule="evenodd"/><path d="m105.704 72.505h35.854c3.079 8.028 7.309 12.678 12.48 13.81 1.192 27.207-9.588 44.096-30.18 52.531-18.571-6.742-29.231-23.767-30.861-52.531 6.635-1.563 10.912-6.111 12.707-13.81z" fill="none" stroke="#ed1c24" stroke-miterlimit="2.6131" stroke-width="1.5619"/><path d="m122.647 109.865-.57-.51c-3.475-2.079-4.427-3.741-5.699-6.109-2.086 1.365-.615 1.958-4.559 2.036v1.018c7.012.522 9.474 4.295 10.196 10.239.239 1.968.212 7.567-.07 9.5-.496 3.405-1.474 4.83-3.287 7.246 3.88-.809 2.644-2.324 5.7-3.054 2.192 2.306 3.215 2.826 6.268 3.054-.745-2.857-2.993-3.883-3.782-7.82-.646-3.215-.543-7.856.572-10.32 1.313-2.904 2.727-4.689 4.672-7.028 1.517-1.824 1.347-2.059 2.939-2.974 2.301-1.323 2.753-.179 3.008-2.915-1.572.329-1.072.453-2.541.738-3.289.64.167-.736-2.588.281-.716 1.334-.604 1.804-1.607 3.146-2.348 3.14-5.75 7.343-8.652 3.472zm-.043-.665c.059-2.34.671-3.43 1.907-4.916 1.229-1.477 1.941-2.033 4.361-2.213 2.771 4.679.403 7.637-5.699 7.637zm-5.129-9.165v.509l.665-.425zm-18.817-3.069c2.281-.174 4.563-.346 6.844-.521.078-3.625.154-7.252.233-10.877.463 3.367.956 9.479 1.391 10.101 1.153 3.051 4.283 1.769 9.74 5.594-1.914-.225-3.827-.448-5.74-.673-.038 1.675-.076 3.35-.115 5.025-.557-3.091-1.821-5.611-4.696-6.838-2.321-1.019-5.105-1.208-7.657-1.811zm1.434-7.045c-1.012.626-.872 2.374.314 3.902 1.187 1.527 2.969 2.258 3.98 1.631 1.012-.627.871-2.375-.315-3.902-1.186-1.528-2.967-2.258-3.979-1.631zm16.967-7.809c-.045 2.594-.599 5.284-.134 7.782.538 3.086 2.908 5.038 6.085 6.489-1.814-.466-3.628-.931-5.442-1.395-.279 1.876-.559 3.752-.837 5.63-2.633-6.306-.4-8.883-3.374-10.886-.552-.598-7-2.895-10.5-4.341 3.927 1.013 7.852 2.025 11.778 3.038.808-2.106 1.616-4.211 2.424-6.317zm-7.98-.754c-.949.77-.648 2.674.674 4.253 1.323 1.58 3.167 2.236 4.118 1.466.951-.769.648-2.673-.675-4.252-1.322-1.579-3.166-2.236-4.117-1.467zm9.958-2.183c1.083 2.942 2.737 5.825 3.248 8.827.669 3.696-1.035 6.706-3.786 9.413 1.715-1.13 3.431-2.263 5.147-3.394 1.042 2.047 2.083 4.094 3.125 6.14.24-8.06-3.127-10.258-.812-13.527.338-.864 6.178-5.619 9.267-8.428-3.709 2.456-7.417 4.911-11.128 7.368-1.687-2.135-3.374-4.266-5.061-6.399zm8.059-3.505c-1.304-.562-2.972.797-3.728 3.038-.756 2.238-.311 4.508.992 5.069 1.304.563 2.972-.797 3.727-3.037.757-2.237.312-4.507-.991-5.07zm15.298 13.33c-2.222 1.271-4.806 2.212-6.667 3.815-2.317 1.954-2.66 4.699-2.129 7.794-.61-1.585-1.22-3.168-1.832-4.752-1.743.737-3.489 1.474-5.233 2.21 3.886-5.131 7.305-4.768 7.357-7.989.201-.71-1.424-6.664-2.135-9.997 1.315 3.431 2.632 6.862 3.947 10.293 2.231-.457 4.461-.916 6.692-1.374zm-3.777-6.316c1.178.32 1.642 2.022 1.037 3.8-.606 1.78-2.051 2.963-3.23 2.643-1.179-.321-1.643-2.021-1.036-3.802.604-1.778 2.051-2.961 3.229-2.641zm9.894 12.957c-2.066.576-4.339.818-6.2 1.725-2.307 1.094-3.243 3.199-3.576 5.75-.099-1.372-.196-2.743-.294-4.113-1.558.244-3.116.489-4.675.732 4.319-3.303 6.933-2.352 7.758-4.888.332-.524.495-5.546.742-8.318.206 2.967.413 5.935.618 8.902 1.876.07 3.752.14 5.627.21zm-1.45-5.725c-.855-.481-2.285.172-3.196 1.462-.912 1.289-.958 2.725-.105 3.207.854.481 2.284-.173 3.195-1.463.912-1.29.958-2.725.106-3.206z" fill="#00633d" fill-rule="evenodd"/><path d="m57.458 111.266v.002l5.771-.012 1.773 5.485 1.773-5.485 5.771.012-4.676-3.381 1.794-5.479-4.662 3.398-4.662-3.398 1.794 5.479z" fill="url(#j)" fill-rule="evenodd" stroke="#fff" stroke-miterlimit="2.6131" stroke-width="1.1395"/><path d="m184.014 116.741 1.772-5.485 5.77.012-4.675-3.381 1.795-5.479-4.662 3.398-4.662-3.398 1.794 5.479-4.675 3.381 5.77-.012z" fill="url(#k)" fill-rule="evenodd" stroke="#fff" stroke-miterlimit="2.6131" stroke-width="1.1395"/></g></svg>