<svg viewBox="0 0 51.86 49.71" xmlns:xlink="http://www.w3.org/1999/xlink" xmlns="http://www.w3.org/2000/svg" data-name="Layer 1" id="a">
  <defs>
    <style>
      .ao {
        clip-path: url(#ad);
      }

      .ap {
        fill: url(#m);
      }

      .aq {
        fill: url(#aa);
      }

      .ar {
        fill: url(#am);
      }

      .as {
        clip-path: url(#j);
      }

      .at {
        fill: #361811;
      }

      .at, .au {
        fill-rule: evenodd;
      }

      .av {
        clip-path: url(#t);
      }

      .aw {
        fill: url(#i);
      }

      .ax {
        clip-path: url(#z);
      }

      .ay {
        clip-path: url(#r);
      }

      .az {
        fill: url(#s);
      }

      .ba {
        clip-path: url(#p);
      }

      .bb {
        fill: url(#q);
      }

      .bc {
        clip-path: url(#aj);
      }

      .bd {
        clip-path: url(#d);
      }

      .be {
        fill: url(#g);
      }

      .bf {
        clip-path: url(#ab);
      }

      .bg {
        clip-path: url(#v);
      }

      .bh {
        clip-path: url(#x);
      }

      .bi {
        clip-path: url(#b);
      }

      .au, .bj {
        fill: #231f20;
      }

      .bk {
        clip-path: url(#f);
      }

      .bl {
        fill: url(#e);
      }

      .bm {
        clip-path: url(#l);
      }

      .bn {
        fill: url(#ai);
      }

      .bo {
        clip-path: url(#af);
      }

      .bp {
        fill: url(#y);
      }

      .bq {
        clip-path: url(#n);
      }

      .br {
        fill: url(#o);
      }

      .bs {
        clip-rule: evenodd;
      }

      .bs, .bt {
        fill: none;
      }

      .bu {
        fill: url(#u);
      }

      .bv {
        fill: url(#ae);
      }

      .bw {
        fill: url(#ag);
      }

      .bx {
        fill: url(#an);
      }

      .by {
        fill: url(#c);
      }

      .bz {
        clip-path: url(#ah);
      }

      .ca {
        fill: url(#w);
      }

      .cb {
        clip-path: url(#h);
      }

      .cc {
        fill: url(#k);
      }

      .bt {
        stroke: #361811;
        stroke-linecap: round;
        stroke-linejoin: round;
        stroke-width: .18px;
      }

      .cd {
        fill: url(#ac);
      }

      .ce {
        clip-path: url(#al);
      }

      .cf {
        fill: url(#ak);
      }
    </style>
    <clipPath id="b">
      <path d="m21.09,3.15c-.74.03-1.15.51-1.27.9l-.11.39s-.24-.67-.9-.45c-.66.22-.8,1.12-.83,1.56-.02.44-.03.57-.03.57,0,0-.19-.47-.63-.23-.44.24-.62,1-.65,1.21-.02.22-.37.04-.52.2-.15.17-.4.53-.7.81-.29.28-.55.4-.44.55.11.14.12.14.12.14,0,0-.32.24-.35.48-.03.24.27,0,.5,0,.07,0,.13,0,.19.02.12.02.21.04.35-.05.09-.06.21,0,.33.04.14.06.3.12.44.01.27-.2.21-.49.41-.48.2,0,.45.42.78.25.33-.17.16-.4.2-.59.03-.19.31-.02.36.03.06.06,1.09,1.16,1.77.88.67-.28.6-.76.62-.89.03-.12.09-.11.3.06.2.17.58.58,1.23.24.66-.34.49-.75.43-1.1-.06-.35.11-.3.31-.3.2,0,.6.12,1-.38.41-.5.04-.94.04-.94,0,0,.52-.31.35-.87-.06-.21-.04-.14-.06-.21-.16-.45-.45-.74-.73-.82-.32-.1-.22-.11-.22-.11,0,0-.29-.83-.91-.58-.57.24-.59.36-.59.38,0,0,0,0,0,0,0,0,0,0,0,0,0-.05-.06-.76-.73-.76-.02,0-.03,0-.05,0" class="bs"></path>
    </clipPath>
    <linearGradient gradientUnits="userSpaceOnUse" y2="8.38" x2="160.36" y1="5.69" x1="-32.43" id="c">
      <stop stop-color="#fbc83c" offset="0"></stop>
      <stop stop-color="#fbc83c" offset="0"></stop>
      <stop stop-color="#fbf7c6" offset=".31"></stop>
      <stop stop-color="#b88a36" offset=".51"></stop>
      <stop stop-color="#e8d087" offset=".69"></stop>
      <stop stop-color="#fbf7c6" offset="1"></stop>
    </linearGradient>
    <clipPath id="d">
      <path d="m14.52,6.48h-.01c-.13,0-.26.05-.38.18-.43.44-.4.56-.39.58,0,0,0,0,0,0,0,0,0,0,0,0-.02-.04-.38-.7-1.02-.39-.66.32-.86.92-.81,1.33l.05.41s-.49-.52-1-.06c-.52.46-.29,1.34-.14,1.76.15.42.19.54.19.54,0,0-.36-.35-.67.04-.31.4-.18,1.16-.11,1.37.06.21-.32.18-.4.39-.07.21-.16.65-.32,1.02-.16.38-.34.59-.19.68.16.09.16.08.16.08,0,0-.2.34-.13.58.07.23.25-.1.46-.2.21-.1.34-.05.48-.24.14-.19.57.03.74-.26.17-.29,0-.53.19-.61.07-.03.17,0,.29.02.18.04.38.08.52-.1.23-.28,0-.43-.05-.62-.05-.19.28-.14.35-.11.07.03,1.46.63,1.97.11.51-.52.25-.93.22-1.06-.03-.12.04-.13.3-.06.25.07.76.31,1.23-.27.47-.58.16-.88-.04-1.18-.2-.3-.01-.32.17-.4.19-.08.59-.13.77-.75.18-.62-.34-.88-.34-.88,0,0,.35-.49-.03-.94-.14-.16-.09-.11-.14-.16-.33-.35-.7-.5-.99-.46-.33.04-.25,0-.25,0,0,0-.32-.35-.67-.35" class="bs"></path>
    </clipPath>
    <linearGradient gradientUnits="userSpaceOnUse" y2="12.93" x2="158.27" y1="10.2" x1="-31.96" id="e">
      <stop stop-color="#fbc83c" offset="0"></stop>
      <stop stop-color="#fbc83c" offset="0"></stop>
      <stop stop-color="#fbf7c6" offset=".31"></stop>
      <stop stop-color="#b88a36" offset=".51"></stop>
      <stop stop-color="#e8d087" offset=".69"></stop>
      <stop stop-color="#fbf7c6" offset="1"></stop>
    </linearGradient>
    <clipPath id="f">
      <path d="m9.28,12.08c-.29.16-.23.08-.23.08,0,0-.79-.38-1.05.24-.23.57-.16.67-.14.69,0,0,0,0,0,0,0,0,0,0,0,0-.04-.03-.61-.51-1.09.02-.5.55-.45,1.18-.26,1.53l.2.36s-.64-.3-.95.32c-.31.62.23,1.35.52,1.68.3.33.38.43.38.43,0,0-.47-.19-.61.29-.14.48.27,1.14.4,1.31.14.17-.23.29-.22.52,0,.23.09.66.08,1.07,0,.41-.1.67.08.7.18.02.18.01.18.01,0,0-.06.39.1.59.15.19.19-.19.35-.35.16-.17.3-.17.35-.4.06-.23.54-.18.59-.52.05-.33-.19-.49-.05-.63.14-.14.61-.03.72-.38.11-.35-.17-.4-.28-.55-.11-.15.2-.23.28-.23s1.59.04,1.87-.63c.28-.67-.12-.96-.19-1.06-.07-.11-.01-.14.25-.16.26-.03.82,0,1.04-.71.22-.71-.18-.88-.48-1.08-.29-.2-.13-.29,0-.43.14-.14.5-.34.43-.98-.07-.64-.64-.69-.64-.69,0,0,.14-.59-.37-.86-.19-.1-.13-.07-.19-.1-.24-.11-.46-.16-.66-.16-.17,0-.31.03-.43.1" class="bs"></path>
    </clipPath>
    <linearGradient gradientUnits="userSpaceOnUse" y2="19.06" x2="153.66" y1="16.37" x1="-30.92" id="g">
      <stop stop-color="#fbc83c" offset="0"></stop>
      <stop stop-color="#fbc83c" offset="0"></stop>
      <stop stop-color="#fbf7c6" offset=".31"></stop>
      <stop stop-color="#b88a36" offset=".51"></stop>
      <stop stop-color="#e8d087" offset=".69"></stop>
      <stop stop-color="#fbf7c6" offset="1"></stop>
    </linearGradient>
    <clipPath id="h">
      <path d="m5.42,19.61c-.21.26-.18.17-.18.17,0,0-.88-.04-.87.63,0,.61.11.68.13.69,0,0,0,0,0,0,0,0,0,0,0,0-.05-.02-.76-.23-.99.45-.24.7.04,1.26.36,1.51l.32.25s-.71-.02-.75.67c-.04.69.73,1.16,1.14,1.34.4.19.52.25.52.25,0,0-.51,0-.45.51.06.5.69.95.88,1.05.19.1-.1.35,0,.56.1.21.34.57.49.95.15.38.17.66.34.61.17-.05.17-.06.17-.06,0,0,.1.38.32.5.21.12.1-.25.19-.46.08-.22.21-.27.17-.51-.04-.23.42-.38.34-.7-.08-.33-.37-.38-.3-.56.08-.18.56-.26.52-.63-.03-.36-.31-.3-.47-.4-.16-.1.09-.29.17-.32.07-.03,1.48-.59,1.47-1.31,0-.73-.48-.83-.59-.9-.11-.07-.06-.12.17-.25.23-.13.76-.32.69-1.06-.07-.74-.51-.74-.86-.81-.35-.07-.24-.22-.16-.4.08-.19.33-.51.02-1.08-.31-.56-.86-.38-.86-.38,0,0-.1-.6-.68-.65-.21-.02-.15-.02-.21-.02-.02,0-.04,0-.07,0-.44,0-.79.15-.96.37" class="bs"></path>
    </clipPath>
    <linearGradient gradientUnits="userSpaceOnUse" y2="26.72" x2="157" y1="23.96" x1="-32.05" id="i">
      <stop stop-color="#fbc83c" offset="0"></stop>
      <stop stop-color="#fbc83c" offset="0"></stop>
      <stop stop-color="#fbf7c6" offset=".31"></stop>
      <stop stop-color="#b88a36" offset=".51"></stop>
      <stop stop-color="#e8d087" offset=".69"></stop>
      <stop stop-color="#fbf7c6" offset="1"></stop>
    </linearGradient>
    <clipPath id="j">
      <path d="m5.8,27.18c-.2.07-.14.04-.2.07-.45.17-.73.46-.81.74-.09.32-.1.23-.1.23,0,0-.83.31-.56.92.27.61.39.58.39.58,0,0-.79.06-.74.79.05.74.53,1.15.92,1.25l.39.11s-.66.25-.43.91c.23.66,1.13.78,1.57.8.44.02.57.03.57.03,0,0-.46.2-.22.64.25.44,1,.61,1.22.63.22.02.05.37.21.52.17.15.53.4.82.69.29.29.41.54.55.43.14-.11.14-.12.14-.12,0,0,.24.31.48.34.24.02,0-.27,0-.5,0-.23.08-.33-.04-.53-.13-.2.24-.51.04-.78-.2-.27-.49-.21-.49-.4,0-.2.41-.46.24-.78-.12-.23-.27-.21-.42-.19-.06,0-.12.02-.17,0-.19-.03-.03-.31.03-.36.06-.06,1.14-1.11.85-1.78-.29-.67-.77-.58-.89-.61-.13-.02-.11-.09.06-.3.16-.21.58-.58.22-1.24-.35-.65-.75-.48-1.11-.41-.35.07-.3-.11-.31-.31,0-.2.11-.6-.4-1-.51-.4-.94-.02-.94-.02,0,0-.23-.37-.64-.37-.07,0-.15.01-.23.04" class="bs"></path>
    </clipPath>
    <linearGradient gradientUnits="userSpaceOnUse" y2="34.15" x2="156.38" y1="31.37" x1="-32.14" id="k">
      <stop stop-color="#fbc83c" offset="0"></stop>
      <stop stop-color="#fbc83c" offset="0"></stop>
      <stop stop-color="#fbf7c6" offset=".31"></stop>
      <stop stop-color="#b88a36" offset=".51"></stop>
      <stop stop-color="#e8d087" offset=".69"></stop>
      <stop stop-color="#fbf7c6" offset="1"></stop>
    </linearGradient>
    <clipPath id="l">
      <path d="m9.17,35.08s-.5-.34-.94.05c-.16.14-.11.1-.16.14-.34.33-.48.71-.44,1,.05.33,0,.25,0,.25,0,0-.64.61-.15,1.07.45.42.57.39.59.38,0,0,0,0,0,0,0,0,0,0,0,0-.05.03-.69.39-.36,1.03.34.66.94.84,1.35.78l.4-.06s-.5.5-.03,1.01c.47.51,1.34.26,1.76.1.41-.16.53-.21.53-.21,0,0-.34.37.06.67.4.3,1.16.15,1.37.08.21-.07.19.32.4.39.22.07.65.15,1.03.3.38.15.6.33.68.17.08-.16.08-.16.08-.16,0,0,.35.19.58.12.23-.08-.11-.25-.21-.46-.1-.21-.06-.34-.25-.47-.2-.13.02-.57-.28-.73-.15-.08-.28-.08-.38-.08-.11,0-.19,0-.23-.09-.08-.18.19-.58-.1-.81-.29-.23-.43.02-.61.07-.18.05-.15-.27-.12-.34.03-.07.59-1.48.06-1.97-.53-.5-.93-.23-1.06-.2-.13.03-.14-.04-.07-.3.07-.26.29-.77-.29-1.22-.59-.46-.88-.13-1.18.07-.29.2-.32.02-.41-.16-.08-.18-.15-.59-.77-.75-.08-.02-.16-.03-.23-.03-.46,0-.64.39-.64.39" class="bs"></path>
    </clipPath>
    <linearGradient gradientUnits="userSpaceOnUse" y2="40.64" x2="154.92" y1="37.9" x1="-31.39" id="m">
      <stop stop-color="#fbc83c" offset="0"></stop>
      <stop stop-color="#fbc83c" offset="0"></stop>
      <stop stop-color="#fbf7c6" offset=".31"></stop>
      <stop stop-color="#b88a36" offset=".51"></stop>
      <stop stop-color="#e8d087" offset=".69"></stop>
      <stop stop-color="#fbf7c6" offset="1"></stop>
    </linearGradient>
    <clipPath id="n">
      <path d="m17.33,40.09h-.02c-.45,0-.58.33-.73.58-.19.31-.28.15-.43.02-.15-.14-.37-.48-1-.38-.64.1-.65.68-.65.68,0,0-.59-.11-.84.42-.09.2-.07.13-.09.2-.18.44-.16.85,0,1.1.18.28.1.23.1.23,0,0-.33.82.3,1.04.58.2.68.12.69.11,0,0,0,0,0,0,0,0,0,0,0,0-.03.04-.47.64.09,1.09.58.46,1.2.39,1.54.17l.34-.22s-.26.66.38.93c.64.28,1.34-.3,1.65-.62.31-.31.41-.4.41-.4,0,0-.16.48.32.59.49.11,1.13-.33,1.29-.48.09-.08.18,0,.27.08.07.06.15.12.25.11.23-.02.65-.13,1.07-.14.11,0,.21,0,.29,0,.24,0,.39.01.39-.12.01-.18,0-.18,0-.18,0,0,.4.03.58-.13.18-.16-.2-.18-.37-.33-.18-.15-.19-.29-.42-.33-.23-.04-.21-.53-.55-.56-.14-.01-.25.02-.34.06-.12.05-.21.1-.29.02-.15-.13-.06-.61-.41-.7-.36-.09-.39.19-.54.31-.15.12-.24-.19-.25-.27,0-.08-.05-1.59-.74-1.83-.69-.24-.95.17-1.05.25-.1.08-.14.02-.18-.24-.04-.26-.04-.82-.76-1-.12-.03-.21-.04-.3-.05" class="bs"></path>
    </clipPath>
    <linearGradient gradientUnits="userSpaceOnUse" y2="45.19" x2="158.89" y1="42.49" x1="-32.56" id="o">
      <stop stop-color="#fbc83c" offset="0"></stop>
      <stop stop-color="#fbc83c" offset="0"></stop>
      <stop stop-color="#fbf7c6" offset=".31"></stop>
      <stop stop-color="#b88a36" offset=".51"></stop>
      <stop stop-color="#e8d087" offset=".69"></stop>
      <stop stop-color="#fbf7c6" offset="1"></stop>
    </linearGradient>
    <clipPath id="p">
      <path d="m29.99,3.91s0,0,0,0c0,0,0,0,0,0,0-.02-.02-.15-.59-.38-.62-.26-.91.58-.91.58,0,0,.1.01-.23.11-.28.08-.56.37-.73.82-.02.07,0,0-.06.21-.17.56.35.87.35.87,0,0-.37.44.04.94.41.5.8.38,1,.38.2,0,.38-.05.31.3-.06.35-.23.76.43,1.1.66.34,1.03-.07,1.23-.24.2-.17.27-.19.3-.06.02.13-.05.61.62.89.67.27,1.71-.82,1.77-.88.06-.06.33-.22.36-.03.03.19-.13.42.2.59.33.17.58-.25.78-.25.2,0,.14.28.41.48.15.11.3.05.44-.01.12-.05.24-.1.34-.04.14.09.23.07.35.05.06,0,.11-.02.19-.02.23,0,.53.24.5,0-.03-.24-.35-.48-.35-.48,0,0,0,0,.12-.14.11-.14-.14-.26-.44-.55-.29-.28-.55-.65-.7-.81-.15-.17-.5.01-.52-.2-.02-.22-.21-.97-.65-1.21-.44-.24-.63.23-.63.23,0,0-.01-.13-.03-.57-.02-.44-.17-1.34-.82-1.56-.66-.22-.9.45-.9.45l-.11-.39c-.11-.39-.53-.86-1.27-.9-.02,0-.03,0-.05,0-.67,0-.73.71-.73.76" class="bs"></path>
    </clipPath>
    <linearGradient gradientUnits="userSpaceOnUse" y2="8.2" x2="160.68" y1="5.52" x1="-32.11" id="q">
      <stop stop-color="#fbc83c" offset="0"></stop>
      <stop stop-color="#fbc83c" offset="0"></stop>
      <stop stop-color="#fbf7c6" offset=".31"></stop>
      <stop stop-color="#b88a36" offset=".51"></stop>
      <stop stop-color="#e8d087" offset=".69"></stop>
      <stop stop-color="#fbf7c6" offset="1"></stop>
    </linearGradient>
    <clipPath id="r">
      <path d="m37.35,6.48h-.01c-.35,0-.67.35-.67.35,0,0,.09.05-.25,0-.29-.04-.67.12-.99.46-.05.05,0,0-.14.16-.38.45-.02.94-.02.94,0,0-.51.26-.34.88.18.62.59.67.77.75.18.08.36.1.17.4-.2.3-.51.6-.04,1.18.47.57.97.34,1.23.27.25-.07.32-.06.3.06-.03.13-.29.54.22,1.06.51.52,1.9-.08,1.97-.11.07-.03.39-.08.35.11-.05.19-.29.33-.05.62.14.17.35.13.52.1.11-.02.22-.05.29-.02.18.08.01.32.19.61.17.29.6.07.74.26.14.19.27.15.48.24.21.1.39.43.46.2.07-.23-.13-.58-.13-.58,0,0,0,0,.16-.08.16-.09-.03-.3-.19-.68-.16-.38-.25-.81-.32-1.02-.08-.21-.46-.19-.4-.39.07-.21.2-.97-.11-1.37-.31-.4-.67-.04-.67-.04,0,0,.04-.12.19-.54.15-.42.38-1.3-.14-1.76-.52-.46-1,.06-1,.06l.05-.41c.05-.4-.15-1-.81-1.33-.64-.31-.99.34-1.02.39,0,0,0,0,0,0,0,0,0,0,0,0,0-.02.04-.15-.39-.58-.12-.13-.25-.17-.38-.18" class="bs"></path>
    </clipPath>
    <linearGradient gradientUnits="userSpaceOnUse" y2="12.57" x2="159.09" y1="9.84" x1="-31.16" id="s">
      <stop stop-color="#fbc83c" offset="0"></stop>
      <stop stop-color="#fbc83c" offset="0"></stop>
      <stop stop-color="#fbf7c6" offset=".31"></stop>
      <stop stop-color="#b88a36" offset=".51"></stop>
      <stop stop-color="#e8d087" offset=".69"></stop>
      <stop stop-color="#fbf7c6" offset="1"></stop>
    </linearGradient>
    <clipPath id="t">
      <path d="m41.49,12.14c-.06.03,0,0-.19.1-.52.27-.37.86-.37.86,0,0-.57.05-.64.69-.07.64.29.84.43.98.14.14.3.23,0,.43-.29.2-.7.37-.48,1.08.22.71.78.68,1.04.71.26.02.32.06.25.16-.07.11-.47.39-.19,1.06.28.67,1.79.63,1.87.63s.39.08.28.23c-.11.16-.39.2-.28.55.11.35.58.24.72.38.14.14-.1.3-.05.63.05.33.53.28.59.52.06.23.19.24.35.4.16.17.2.55.35.35.15-.19.09-.59.09-.59,0,0,0,0,.18-.01.18-.02.09-.29.08-.7,0-.41.07-.84.08-1.07,0-.23-.36-.34-.22-.52.14-.17.55-.83.41-1.31-.14-.48-.61-.29-.61-.29,0,0,.08-.1.38-.43.3-.33.83-1.06.52-1.68-.31-.62-.95-.32-.95-.32l.2-.36c.2-.35.24-.98-.26-1.53-.48-.53-1.05-.06-1.09-.02,0,0,0,0,0,0,0,0,0,0,0,0,.01-.01.09-.12-.15-.69-.25-.62-1.05-.24-1.05-.24,0,0,.06.08-.23-.08-.12-.06-.26-.1-.43-.1-.2,0-.43.05-.66.16" class="bs"></path>
    </clipPath>
    <linearGradient gradientUnits="userSpaceOnUse" y2="18.59" x2="155.63" y1="15.9" x1="-28.94" id="u">
      <stop stop-color="#fbc83c" offset="0"></stop>
      <stop stop-color="#fbc83c" offset="0"></stop>
      <stop stop-color="#fbf7c6" offset=".31"></stop>
      <stop stop-color="#b88a36" offset=".51"></stop>
      <stop stop-color="#e8d087" offset=".69"></stop>
      <stop stop-color="#fbf7c6" offset="1"></stop>
    </linearGradient>
    <clipPath id="v">
      <path d="m45.41,19.24c-.07,0,0,0-.21.02-.58.05-.68.65-.68.65,0,0-.55-.18-.86.38-.31.56-.06.89.02,1.08.07.19.19.33-.16.4-.35.07-.79.07-.86.81-.07.74.45.93.69,1.06.23.13.27.18.17.25-.11.07-.58.18-.59.9,0,.73,1.4,1.28,1.47,1.31.07.03.33.22.17.32-.16.1-.44.04-.47.4-.03.37.45.44.52.63.07.18-.21.24-.3.56-.08.33.38.47.34.7-.04.23.08.29.17.51.08.22-.02.58.19.46.21-.12.32-.5.32-.5,0,0,0,0,.17.06.17.05.19-.23.34-.61.15-.38.4-.75.49-.95.1-.21-.2-.46,0-.56.19-.1.82-.55.88-1.05.06-.5-.44-.51-.44-.51,0,0,.11-.06.52-.25.4-.19,1.18-.65,1.14-1.34-.04-.69-.75-.67-.75-.67l.32-.25c.32-.25.61-.81.36-1.51-.23-.67-.94-.46-.99-.45,0,0,0,0,0,0,0,0,0,0,0,0,.02,0,.13-.08.13-.69,0-.67-.87-.63-.87-.63,0,0,.02.09-.18-.17-.17-.22-.52-.37-.97-.37-.02,0-.04,0-.06,0" class="bs"></path>
    </clipPath>
    <linearGradient gradientUnits="userSpaceOnUse" y2="26.17" x2="158.29" y1="23.41" x1="-30.7" id="w">
      <stop stop-color="#fbc83c" offset="0"></stop>
      <stop stop-color="#fbc83c" offset="0"></stop>
      <stop stop-color="#fbf7c6" offset=".31"></stop>
      <stop stop-color="#b88a36" offset=".51"></stop>
      <stop stop-color="#e8d087" offset=".69"></stop>
      <stop stop-color="#fbf7c6" offset="1"></stop>
    </linearGradient>
    <clipPath id="x">
      <path d="m45.18,27.52s-.43-.38-.94.02c-.5.4-.4.79-.4,1,0,.2.04.38-.31.31-.35-.07-.75-.24-1.1.41-.35.65.06,1.03.22,1.24.17.21.19.27.06.3-.13.02-.61-.06-.89.61-.29.67.8,1.73.85,1.78.05.06.22.34.03.36-.05,0-.11,0-.17,0-.15-.02-.3-.04-.42.19-.17.32.24.58.24.78,0,.2-.29.14-.49.4-.2.27.17.58.04.78-.13.2-.03.3-.04.53,0,.23-.25.53,0,.5.24-.03.48-.34.48-.34,0,0,0,0,.14.12.14.11.26-.14.55-.43.29-.29.65-.53.82-.69.17-.15,0-.5.21-.52.22-.02.98-.19,1.22-.63.25-.44-.22-.64-.22-.64,0,0,.13-.01.57-.03.44-.02,1.34-.14,1.57-.8.23-.66-.43-.91-.43-.91l.39-.11c.39-.11.87-.52.92-1.25.05-.74-.74-.79-.74-.79,0,0,.13.03.39-.58.27-.61-.56-.92-.56-.92,0,0-.01.1-.1-.23-.08-.28-.36-.57-.81-.74-.06-.02,0,0-.2-.07-.08-.03-.16-.04-.23-.04-.41,0-.64.37-.64.37" class="bs"></path>
    </clipPath>
    <linearGradient gradientUnits="userSpaceOnUse" y2="33.62" x2="158" y1="30.84" x1="-30.51" id="y">
      <stop stop-color="#fbc83c" offset="0"></stop>
      <stop stop-color="#fbc83c" offset="0"></stop>
      <stop stop-color="#fbf7c6" offset=".31"></stop>
      <stop stop-color="#b88a36" offset=".51"></stop>
      <stop stop-color="#e8d087" offset=".69"></stop>
      <stop stop-color="#fbf7c6" offset="1"></stop>
    </linearGradient>
    <clipPath id="z">
      <path d="m41.82,34.72c-.62.16-.68.57-.77.75-.08.18-.11.36-.4.16-.29-.2-.59-.52-1.18-.07-.59.46-.36.97-.29,1.22.07.26.06.32-.07.3-.12-.03-.53-.3-1.06.2-.53.5.04,1.9.06,1.97.03.07.06.39-.12.34-.18-.05-.33-.3-.61-.07-.29.23-.02.63-.1.81-.04.09-.12.09-.23.09s-.23,0-.38.08c-.29.16-.08.6-.28.73-.2.13-.15.26-.25.47-.1.21-.44.38-.21.46.23.07.58-.12.58-.12,0,0,0,0,.08.16.08.16.3-.02.68-.17.38-.15.82-.23,1.03-.3.22-.07.2-.46.4-.39.21.07.97.22,1.37-.08.4-.3.06-.67.06-.67,0,0,.12.04.53.21.41.16,1.29.41,1.76-.1.47-.51-.03-1.01-.03-1.01l.4.06c.4.06,1.01-.12,1.35-.78.33-.63-.31-1-.36-1.03,0,0,0,0,0,0,0,0,0,0,0,0,.02,0,.14.04.59-.38.49-.45-.15-1.07-.15-1.07,0,0-.05.08,0-.25.04-.29-.1-.67-.44-1-.05-.05,0,0-.16-.14-.44-.39-.94-.05-.94-.05,0,0-.18-.39-.64-.39-.07,0-.15,0-.23.03" class="bs"></path>
    </clipPath>
    <linearGradient gradientUnits="userSpaceOnUse" y2="40.24" x2="156.2" y1="37.49" x1="-30.11" id="aa">
      <stop stop-color="#fbc83c" offset="0"></stop>
      <stop stop-color="#fbc83c" offset="0"></stop>
      <stop stop-color="#fbf7c6" offset=".31"></stop>
      <stop stop-color="#b88a36" offset=".51"></stop>
      <stop stop-color="#e8d087" offset=".69"></stop>
      <stop stop-color="#fbf7c6" offset="1"></stop>
    </linearGradient>
    <clipPath id="ab">
      <path d="m34.55,40.09h-.02c-.09,0-.19.02-.3.05-.72.18-.72.74-.76,1-.04.26-.08.32-.18.24-.1-.08-.36-.49-1.05-.25-.69.24-.73,1.75-.74,1.83,0,.08-.1.39-.25.27-.15-.12-.18-.4-.53-.31-.35.09-.27.57-.41.7-.09.08-.17.03-.29-.02-.09-.04-.2-.08-.34-.06-.34.03-.31.52-.55.56-.23.04-.25.18-.42.33-.18.15-.56.17-.37.33.18.16.58.13.58.13,0,0,0,0,0,.18,0,.13.15.13.39.12.09,0,.19,0,.3,0,.41.02.84.12,1.06.14.1,0,.18-.05.25-.11.1-.08.18-.16.27-.08.16.15.8.59,1.29.48.49-.11.32-.59.32-.59,0,0,.09.09.41.4.31.32,1.01.89,1.65.62.64-.27.38-.93.38-.93l.34.22c.35.22.97.29,1.54-.17.56-.45.12-1.04.08-1.09,0,0,0,0,0,0,0,0,0,0,0,0,.01.01.12.09.69-.11.63-.22.3-1.04.3-1.04,0,0-.08.06.1-.23.16-.25.18-.65,0-1.1-.03-.07,0,0-.09-.2-.24-.53-.84-.42-.84-.42,0,0-.02-.58-.65-.68-.63-.1-.85.24-1,.38-.15.14-.25.29-.43-.02-.15-.25-.28-.58-.73-.58" class="bs"></path>
    </clipPath>
    <linearGradient gradientUnits="userSpaceOnUse" y2="44.98" x2="159.26" y1="42.29" x1="-32.19" id="ac">
      <stop stop-color="#fbc83c" offset="0"></stop>
      <stop stop-color="#fbc83c" offset="0"></stop>
      <stop stop-color="#fbf7c6" offset=".31"></stop>
      <stop stop-color="#b88a36" offset=".51"></stop>
      <stop stop-color="#e8d087" offset=".69"></stop>
      <stop stop-color="#fbf7c6" offset="1"></stop>
    </linearGradient>
    <clipPath id="ad">
      <path d="m30.73,41.61c-.74.02-.87.56-.97.81-.1.25-.15.3-.23.2-.08-.1-.25-.56-.97-.47-.72.08-1.1,1.54-1.13,1.62-.02.08-.18.35-.3.2-.12-.15-.09-.43-.45-.42-.37,0-.39.5-.56.59-.17.1-.26-.18-.59-.23-.17-.02-.28.09-.37.21-.09.11-.17.22-.28.21-.24-.01-.28.12-.49.23-.21.11-.58.05-.44.24.14.2.53.25.53.25,0,0,0,0-.03.18-.03.18.25.16.65.27.39.11.79.31,1,.38.09.03.19-.01.28-.06.11-.06.21-.12.28-.01.12.18.65.75,1.15.75s.45-.5.45-.5c0,0,.07.11.31.49.23.38.79,1.09,1.47.97.68-.13.57-.83.57-.83l.29.29c.29.29.88.5,1.54.18.64-.31.35-.99.32-1.04,0,0,0,0,0,0,0,0,0,0,0,0,0,.02.09.12.7.05.66-.07.52-.94.52-.94,0,0-.09.04.15-.2.21-.21.32-.6.24-1.07,0-.07,0,0-.04-.21-.12-.57-.73-.6-.73-.6,0,0,.11-.57-.48-.81-.6-.24-.89.05-1.07.15-.18.1-.31.23-.42-.11-.11-.33-.16-.76-.86-.76h-.04" class="bs"></path>
    </clipPath>
    <linearGradient gradientUnits="userSpaceOnUse" y2="46.48" x2="160.27" y1="43.75" x1="-32.81" id="ae">
      <stop stop-color="#fbc83c" offset="0"></stop>
      <stop stop-color="#fbc83c" offset="0"></stop>
      <stop stop-color="#fbf7c6" offset=".31"></stop>
      <stop stop-color="#b88a36" offset=".51"></stop>
      <stop stop-color="#e8d087" offset=".69"></stop>
      <stop stop-color="#fbf7c6" offset="1"></stop>
    </linearGradient>
    <clipPath id="af">
      <path d="m20.28,42.5c-.11.33-.24.2-.42.11-.17-.09-.46-.38-1.05-.14-.59.24-.48.79-.48.79,0,0-.6.02-.71.58-.04.21-.03.14-.04.21-.07.46.04.84.24,1.04.23.23.14.2.14.2,0,0-.14.85.52.92.6.06.68-.03.69-.05,0,0,0,0,0,0,0,0,0,0,0,0-.02.05-.31.71.32,1.01.66.32,1.24.11,1.53-.17l.28-.28s-.11.68.57.8c.67.12,1.22-.58,1.46-.95.23-.37.3-.47.3-.47,0,0-.05.49.45.49s1.01-.56,1.14-.73c.07-.1.17-.04.28.01.09.05.18.09.27.06.21-.07.6-.26,1-.37.39-.1.67-.09.64-.26-.03-.17-.03-.17-.03-.17,0,0,.39-.06.53-.25.14-.19-.23-.13-.43-.24-.2-.1-.25-.23-.48-.22-.11,0-.19-.1-.28-.21-.09-.11-.2-.23-.37-.2-.33.04-.42.32-.59.22-.17-.1-.19-.57-.56-.58-.36-.01-.33.26-.45.41-.12.15-.28-.13-.3-.2-.02-.07-.4-1.5-1.12-1.58-.71-.08-.87.37-.96.46-.08.1-.13.05-.23-.19-.1-.24-.22-.77-.96-.79h-.04c-.7,0-.74.41-.85.74" class="bs"></path>
    </clipPath>
    <linearGradient gradientUnits="userSpaceOnUse" y2="46.64" x2="160.12" y1="43.9" x1="-32.98" id="ag">
      <stop stop-color="#fbc83c" offset="0"></stop>
      <stop stop-color="#fbc83c" offset="0"></stop>
      <stop stop-color="#fbf7c6" offset=".31"></stop>
      <stop stop-color="#b88a36" offset=".51"></stop>
      <stop stop-color="#e8d087" offset=".69"></stop>
      <stop stop-color="#fbf7c6" offset="1"></stop>
    </linearGradient>
    <clipPath id="ah">
      <path d="m11.03,24.82c0-8.21,6.68-14.88,14.9-14.88s14.9,6.68,14.9,14.88-6.68,14.88-14.9,14.88-14.9-6.68-14.9-14.88m-.63,0c0,8.55,6.96,15.51,15.53,15.51s15.52-6.96,15.52-15.51-6.96-15.51-15.52-15.51-15.53,6.96-15.53,15.51Z" class="bs"></path>
    </clipPath>
    <linearGradient gradientUnits="userSpaceOnUse" y2="23.15" x2="115.46" y1="25.75" x1="-23.97" id="ai">
      <stop stop-color="#fbc83c" offset="0"></stop>
      <stop stop-color="#fbc83c" offset="0"></stop>
      <stop stop-color="#fbf7c6" offset=".31"></stop>
      <stop stop-color="#b88a36" offset=".51"></stop>
      <stop stop-color="#e8d087" offset=".69"></stop>
      <stop stop-color="#fbf7c6" offset="1"></stop>
    </linearGradient>
    <clipPath id="aj">
      <path d="m26.65,11.72h-1.61c-.2,0-.36.17-.36.37v.16h0v9.55l-5.26-5.26,4.03-4.02c.14-.15.15-.38,0-.53-.1-.1-.69-.16-2.14.45-.74.31-1.68.62-3.04,1.68-.31.24-.64.53-.99.86-.04.02-.08.05-.11.09l-.92.92-.04.04-.04.04h-.01s-.11.12-.11.12c-.15.15-.15.38,0,.53l.11.11h.01s1.48,1.49,1.48,1.49l5.26,5.26h-7.44v-5.69c0-.2-.17-.37-.37-.37-.13,0-.6.37-1.19,1.82-.3.74-.75,1.62-.96,3.33-.05.39-.08.82-.09,1.3-.01.05-.02.09-.02.14v1.41h0v.17c0,.21.17.37.37.37h9.52l-5.07,5.07-3.93-3.93c-.2-.2-.52-.2-.72,0-.18.17-.17.88.42,2.28.04.09.08.19.12.29.29.7.64,1.57,1.58,2.78.22.28.5.6.85.98.03.05.06.1.11.14l1.12,1.12c.1.1.22.15.36.15h0c.14,0,.26-.05.36-.15l6.77-6.77v7.25h-5.7c-.21,0-.37.17-.37.37,0,.13.37.6,1.82,1.19.74.3,1.62.75,3.34.96.38.05.82.08,1.31.09.05.01.09.02.14.02h1.59c.21,0,.37-.17.37-.37v-.16h0v-9.55l5.26,5.26-4.03,4.02c-.15.15-.15.38,0,.53.09.1.69.16,2.13-.44.74-.31,1.68-.62,3.04-1.68.31-.24.64-.53.99-.86.04-.02.08-.05.12-.09l.92-.92.04-.04.04-.04h0s.11-.12.11-.12c.15-.15.15-.38,0-.53l-.11-.11h0s-1.49-1.49-1.49-1.49l-5.26-5.26h7.44v5.69c0,.2.17.37.37.37.13,0,.6-.37,1.19-1.82.3-.74.75-1.62.97-3.34.05-.38.08-.82.09-1.31.01-.05.02-.09.02-.14v-1.42h0v-.17c0-.21-.17-.37-.37-.37h-9.52l5.07-5.07,3.93,3.93c.2.2.52.2.72,0,.18-.18.17-.88-.42-2.28-.04-.09-.08-.19-.12-.29-.29-.7-.64-1.58-1.58-2.78-.22-.28-.5-.6-.85-.97-.03-.05-.07-.1-.11-.14l-1.12-1.12c-.19-.19-.53-.19-.72,0l-6.77,6.77v-7.25h5.7c.21,0,.37-.17.37-.37,0-.13-.37-.6-1.82-1.19-.75-.3-1.63-.75-3.34-.96-.39-.05-.82-.08-1.31-.09-.04-.01-.08-.02-.13-.02" class="bs"></path>
    </clipPath>
    <linearGradient gradientUnits="userSpaceOnUse" y2="27.72" x2="108" y1="23.41" x1="-14.07" id="ak">
      <stop stop-color="#fbc83c" offset="0"></stop>
      <stop stop-color="#fbc83c" offset="0"></stop>
      <stop stop-color="#fbf7c6" offset=".31"></stop>
      <stop stop-color="#b88a36" offset=".51"></stop>
      <stop stop-color="#e8d087" offset=".69"></stop>
      <stop stop-color="#fbf7c6" offset="1"></stop>
    </linearGradient>
    <clipPath id="al">
      <path d="m30.86,49.41h0s0,0,0,0Zm0,0h0s0,0,0,0Zm7.44-2.03h0s0,0,0,0Zm-24.76,0h0s0,0,0,0Zm0,0h0s0,0,0,0Zm24.77,0h0s0,0,0,0Zm-26.3-3.2h0s0,0,0,0Zm-2.03-1.09h0s0,0,0,0Zm36.85-7.24h0s0,0,0,0Zm0,0h0s0,0,0,0Zm-6.12-31.31h0s0,0,0,0Zm-10.82,45.12s0,0,0,0h0Zm-8.91-.25h0s0,0,0,0h0Zm0,0h0s0,0,0,0h0s0,0,0,0Zm-2.27-.25h0s.02,0,.02.01c-.01,0-.02-.01-.02-.01Zm14.4,0h0s-.04.02-.04.02c.01,0,.02-.02.03-.02Zm-16.58-1.31h0s0,0,0,0h0s0,0,0,0h0s0,0,0,0h0Zm0,0h0,0Zm18.76,0h0s0,0,0,0Zm-18.77,0h0,0Zm18.77,0h0,0s0,0,0,0Zm4.53-3.67s0,0,0,0h0s0,0,0,0Zm-27.82,0s0,0,0,0c0,0,0,0,0,0h0s0,0,0,0,0,0,0,0Zm0-.02h0s0-.02,0,0Zm29.85-1.07s0,0,0,0h0s0,0,0,0h0Zm.01,0s0,0,0,0c0,0,0,0,0,0h0s0,0,0,0c0,0,0,0,0,0Zm4.42-5.24h0s0,0,0,0Zm-41.29-1.99h0s0,0,0,0c0,0,0,0,0,0,0,0-.02,0-.02-.01Zm-2.39-8.5h0s0,0,0,0Zm6.23-18.2s0,0,0,0h.02s0,0,0,0h-.02Zm0,0s.03-.01.02,0h-.02Zm2.27-4.62s.01,0,0,0h0s0,0,0,0Zm29.61,0h0s0,0,0,0h0s0,0,0,0c0,0,0,0,0,0h0Zm-8.3-3.82s.04,0,.06,0c.07,0,.14.03.18.08.16.16.33.3.45.51.13.22.14.49.26.71.02.03,0,.09,0,.13-.02.18,0,.21.17.25.12.03.23.11.3.22.03.04.06.07.1.09.11.06.2.14.27.24.07.12.15.22.25.31.16.13.26.31.29.52.01.13.12.23.25.23.11.02.2.07.26.16.04.06.1.08.15.12.12.1.23.21.34.33.01.01.02.03.03.05.07.11.16.21.23.32.04.08.12.14.21.14h.02c.09,0,.18-.01.27-.04.1-.04.21-.06.31-.06.05,0,.1,0,.15.01.06.02.13,0,.19.02.35.06.7.08,1.02.24.04.02.09.03.14.03.05,0,.11-.01.15-.04.13-.07.25-.04.37.02.15.07.3.13.45.18.02,0,.05.01.08.01.05,0,.1-.02.14-.05.29-.23.65-.25,1-.23.07,0,.14.03.21.03.51,0,.75.37,1,.73,0,.03.02.05.02.08,0,0,0,0,0,0,.01.11.06.22.14.31.13.15.12.29-.01.44-.02.02-.03.04-.05.05-.08.07-.08.15-.09.24,0,.02,0,.04,0,.05,0,.22.1.43.26.57.05.05.08.11.11.18.06.18.11.36.18.54.02.04.03.09.03.13s0,.09-.03.13c0,.01-.01.02-.01.04l.76.41h-.02s0,0,.02,0l-.76-.41c-.04.12.04.23.08.4,0,.01,0,.03,0,.04.02.18.03.33.15.46.19.21.34.44.37.73.02.17.13.24.3.26.16.01.31.03.47.05.13,0,.25.06.34.14.06.04.12.07.18.1.14.08.32.14.33.35.01.05.04.1.09.12.19.1.38.19.57.27.02,0,.03,0,.05,0,0,0,0,0,0,0,.28.04.55.1.73.34.14.19.31.28.52.21.04-.02.09-.02.14-.02.02,0,.05,0,.07,0,.18.02.36.07.53.14.27.13.41.42.57.67.03.05.04.11.04.16,0,.01,0,.02,0,.04,0,.08,0,.17,0,.25,0,.15.01.3.03.45,0,.01,0,.02,0,.04,0,.1-.02.19-.07.27-.06.13-.14.25-.25.36-.16.15-.2.28-.12.49.06.16.04.35.04.53,0,.3-.03.6-.21.85-.02.05-.04.1-.05.16,0,.06-.01.11-.03.17-.02.04-.02.08-.02.12,0,.06.02.12.05.17.1.2.12.43.14.65,0,.02,0,.03,0,.05,0,.04,0,.07-.02.11-.09.3-.08.3.24.33.19.02.38.05.52.2.17.18.33.37.49.55.09.09.14.21.14.34h0c0,.08.02.14.06.19.14.16.28.33.45.44.19.13.35.29.47.48.06.09.16.15.26.17.1.01.19.05.28.11.13.11.27.18.43.23.16.06.28.16.3.36.02.17.08.32.18.45.05.06.07.14.07.21,0,.04,0,.09-.03.13-.02.07-.06.14-.1.21-.07.09-.11.19-.11.31,0,.02,0,.03,0,.05,0,.01,0,.02,0,.04,0,.09-.05.18-.12.22-.23.16-.45.34-.67.53-.11.1-.18.23-.19.37-.03.3-.15.58-.35.81-.05.05-.09.12-.1.2,0,.1-.07.19-.16.24-.16.1-.26.27-.27.46-.02.36-.06.72-.24,1.05-.08.15-.14.31-.21.47-.03.04-.04.08-.05.12,0,.02,0,.03,0,.05,0,.05,0,.09.03.13.1.15.21.29.33.42.1.11.17.24.19.39.01.2.04.41.08.61.05.19.07.39.07.59,0,.02,0,.04,0,.06,0,.02,0,.04,0,.05,0,.14.06.27.16.36.16.13.23.27.19.47,0,.04.02.1.04.15.01.05.04.09.06.14.03.11.1.19.2.24.19.08.32.27.32.49h0s0,.09.02.13c.04.11.07.22.07.34,0,.08-.01.17-.04.25-.08.24-.16.47-.25.7-.04.1-.12.17-.21.2-.13.04-.25.1-.35.18-.13.11-.28.17-.45.17-.02,0-.04,0-.06,0h-.15c-.13,0-.25.08-.32.19-.08.15-.17.3-.27.44-.05.07-.12.13-.2.16-.13.02-.23.1-.29.21,0,.02-.04.03-.05.06-.16.19-.4.24-.63.28-.12.01-.24.09-.29.21-.07.12-.18.22-.23.35-.03.06-.07.12-.13.16-.08.07-.18.25-.3.28-.15.04-.29.13-.37.27-.04.05-.09.09-.14.13-.24.2-.24.38,0,.57.1.07.15.18.15.3h0c0,.11.02.23.03.33,0,.03.01.06.01.09,0,.08-.03.16-.08.22-.08.1-.12.22-.12.35,0,.02,0,.04,0,.06,0,.02,0,.04,0,.06,0,.16-.05.31-.13.43-.04.06-.05.14-.05.21h0c-.01.19,0,.38-.02.58,0,.14-.05.28-.12.4-.04.06-.05.12-.05.19h0c0,.18.02.35.04.52.02.06.05.11.09.16.03.06.09.12.09.18,0,.25-.02.49-.17.71-.05.07-.1.14-.14.22-.1.17-.22.32-.43.34-.05.01-.1.03-.15.04-.09.03-.18.04-.27.05-.13,0-.26-.02-.39-.03-.24-.02-.49-.03-.73-.05h-.01c-.1,0-.19.04-.26.11-.19.16-.39.31-.65.28h-.01s-.09.01-.14.03c-.17.09-.37.01-.54.13-.03.02-.1,0-.15,0-.04,0-.08-.02-.12-.02-.08,0-.16.02-.23.06-.05.03-.1.05-.16.06-.08,0-.15.06-.2.13-.04.06-.09.1-.16.13-.2.11-.42.17-.65.18-.08,0-.16.02-.24.06-.06.03-.11.07-.14.13-.07.16-.12.32-.18.48-.03.08-.1.16-.13.23-.01.03-.03.06-.06.08-.17.18-.24.45-.5.56-.07.03-.11.13-.14.21-.02.06-.03.12-.03.19v.02c0,.19-.07.36-.2.5-.06.08-.12.15-.18.22-.07.08-.12.18-.12.29,0,.05.01.11.03.15.07.18,0,.35-.04.53-.02.09-.07.16-.14.22-.1.08-.13.21-.19.32-.08.18-.25.3-.44.32-.22.03-.43.08-.64.15-.34.11-.48.06-.69-.24-.03-.04-.05-.07-.09-.1-.13-.11-.29-.18-.46-.18-.05,0-.11,0-.16.02-.16.04-.33.08-.49.14-.09.02-.16.06-.23.12-.11.13-.27.22-.43.25-.08.01-.16.05-.22.1-.12.11-.23.25-.35.37-.17.18-.38.31-.61.39-.04.01-.08.03-.11.05-.38.28-.79.42-1.26.24-.16-.05-.31-.09-.48-.12-.24-.04-.45.05-.64.17-.08.05-.17.08-.27.08-.03,0-.06,0-.09,0-.03,0-.06,0-.1,0-.04,0-.09,0-.13.02-.08.02-.16.03-.25.03-.25,0-.49-.09-.68-.26-.04-.04-.08-.06-.13-.08-.2-.05-.37-.16-.51-.32-.13-.18-.33-.29-.55-.29h0c-.26.01-.49-.08-.73-.12-.2-.03-.38-.15-.57-.23-.09-.04-.18-.06-.24.02-.05.06-.11.11-.17.14-.06-.03-.12-.07-.17-.14-.06-.08-.16-.06-.24-.02-.19.08-.37.2-.57.23-.24.04-.47.14-.73.12h0c-.22,0-.42.11-.55.29-.13.16-.31.27-.51.32-.05.02-.09.05-.13.08-.19.17-.43.26-.68.26-.08,0-.17,0-.25-.03-.04-.01-.09-.02-.13-.02-.03,0-.06,0-.1,0-.03,0-.06,0-.09,0-.09,0-.19-.03-.26-.08-.2-.12-.4-.22-.64-.17-.16.02-.32.06-.48.12-.47.18-.87.04-1.26-.24-.03-.02-.07-.04-.11-.05-.23-.07-.45-.21-.61-.39-.12-.12-.22-.26-.35-.37-.06-.05-.14-.09-.22-.1-.17-.03-.32-.12-.43-.25-.07-.06-.14-.1-.23-.12-.16-.05-.32-.1-.49-.14-.05-.01-.1-.02-.16-.02-.17,0-.33.06-.46.18-.03.03-.06.06-.09.1-.22.29-.35.35-.69.24-.21-.07-.42-.12-.64-.15-.19-.02-.36-.15-.44-.32-.05-.11-.09-.24-.19-.32-.07-.05-.12-.13-.14-.22-.03-.17-.11-.34-.03-.53.02-.05.03-.1.03-.15,0-.11-.04-.21-.12-.29-.06-.07-.12-.15-.18-.22-.12-.14-.19-.32-.2-.5v-.02c0-.07-.01-.13-.03-.19-.03-.08-.08-.18-.15-.21-.26-.11-.32-.39-.5-.56-.02-.02-.04-.05-.05-.08-.03-.07-.1-.14-.13-.23-.06-.16-.11-.33-.17-.48-.03-.06-.08-.11-.14-.13-.07-.04-.16-.06-.24-.06-.23-.02-.45-.08-.65-.18-.06-.03-.12-.07-.16-.13-.04-.07-.12-.12-.2-.13-.06-.01-.11-.03-.16-.06-.07-.04-.15-.06-.23-.06-.04,0-.08,0-.12.02-.05,0-.12.03-.15,0-.16-.12-.37-.05-.54-.13-.04-.02-.09-.03-.13-.03h-.01c-.27.02-.47-.12-.65-.28-.07-.07-.17-.11-.26-.11h-.01c-.25.01-.49.03-.73.05-.13,0-.26.03-.39.03-.09,0-.19-.02-.27-.05-.05-.02-.1-.03-.14-.04-.22-.02-.33-.17-.43-.34-.04-.07-.09-.15-.14-.22-.16-.21-.18-.46-.18-.71,0-.06.06-.12.09-.18.04-.05.07-.1.09-.16.02-.17.04-.34.04-.51h0c0-.08-.02-.14-.05-.2-.08-.12-.12-.26-.13-.4-.01-.19,0-.38-.01-.57h0c0-.08-.02-.15-.05-.22-.09-.13-.13-.28-.13-.43,0-.02,0-.04,0-.06,0-.02,0-.04,0-.06,0-.13-.04-.25-.12-.35-.05-.07-.07-.14-.07-.22,0-.03,0-.06,0-.09.02-.11.03-.22.03-.33,0,0,0,0,0,0,0-.12.06-.23.15-.3.25-.2.24-.37,0-.57-.05-.04-.1-.08-.13-.13-.09-.13-.22-.23-.37-.27-.12-.03-.22-.21-.3-.28-.05-.04-.1-.1-.13-.16-.05-.13-.16-.23-.23-.35-.06-.11-.17-.19-.3-.21-.23-.04-.46-.09-.63-.28-.02-.02-.04-.03-.05-.06-.06-.11-.17-.19-.29-.21-.08-.03-.15-.08-.2-.16-.1-.14-.18-.29-.27-.44-.07-.11-.19-.19-.32-.19h-.15s-.04,0-.06,0c-.16,0-.32-.06-.45-.17-.1-.08-.22-.14-.35-.18-.1-.03-.18-.11-.21-.2-.09-.23-.17-.46-.25-.7-.02-.08-.04-.17-.04-.25,0-.12.02-.23.07-.34.02-.04.02-.09.02-.13h0c0-.21.13-.41.32-.49.1-.04.17-.13.2-.24.01-.05.04-.1.06-.14.02-.05.05-.1.04-.15-.05-.21.03-.34.19-.47.1-.09.16-.22.16-.36,0-.02,0-.04,0-.05,0-.02,0-.04,0-.06,0-.2.02-.4.07-.59.04-.2.07-.4.08-.61.02-.15.09-.29.19-.39.12-.13.23-.27.33-.42.02-.04.03-.08.03-.13,0-.01,0-.03,0-.05-.01-.04-.03-.08-.05-.12-.07-.16-.13-.32-.21-.47-.18-.32-.22-.68-.24-1.05,0-.19-.11-.36-.27-.46-.09-.05-.15-.14-.16-.24-.01-.07-.05-.14-.1-.2-.19-.23-.32-.51-.35-.81-.02-.14-.08-.28-.19-.37-.21-.19-.43-.37-.67-.53-.08-.05-.12-.13-.12-.22,0-.01,0-.02,0-.04,0-.02,0-.03,0-.05,0-.11-.04-.22-.1-.31-.04-.06-.08-.13-.1-.21-.02-.04-.02-.09-.02-.13,0-.08.02-.15.07-.21.1-.13.16-.29.18-.45.01-.19.13-.3.3-.36.16-.05.3-.13.43-.23.08-.06.18-.1.28-.11.11-.02.2-.08.26-.17.12-.19.28-.35.47-.48.17-.11.31-.28.45-.44.04-.05.06-.12.06-.18h0c0-.14.05-.27.14-.36.17-.18.33-.37.49-.55.14-.15.33-.18.51-.2.32-.03.33-.03.24-.33,0-.04-.02-.07-.02-.11,0-.01,0-.03,0-.05.03-.22.04-.44.15-.65.03-.05.05-.11.05-.17,0-.04,0-.08-.02-.12-.02-.06-.02-.11-.03-.17,0-.06-.02-.11-.05-.16-.18-.26-.22-.55-.21-.85,0-.18-.02-.37.04-.53.08-.21.04-.35-.12-.49-.1-.1-.19-.22-.25-.36-.05-.08-.07-.18-.07-.27v-.04c.02-.15.03-.3.03-.45,0-.09,0-.17,0-.25,0-.01,0-.03,0-.04,0-.06.01-.11.04-.16.16-.25.29-.54.57-.67.17-.07.34-.11.52-.14.02,0,.05,0,.07,0,.05,0,.09,0,.14.02.21.07.38-.02.52-.21.19-.24.45-.31.73-.34,0,0,0,0,.01,0,.01,0,.03,0,.05,0,.19-.09.39-.17.57-.27.04-.02.08-.07.08-.12.02-.21.19-.27.33-.35.06-.03.12-.06.18-.1.1-.08.22-.13.34-.14.16-.02.31-.04.47-.05.17-.02.28-.09.3-.26.03-.3.17-.53.37-.73.12-.13.13-.28.15-.46,0-.02,0-.03,0-.04.04-.18.13-.3.06-.43-.02-.04-.03-.08-.03-.13s0-.09.03-.13c.06-.18.11-.36.18-.54.02-.07.06-.13.1-.18.17-.14.26-.35.26-.57,0-.02,0-.03,0-.05,0-.09,0-.17-.09-.24-.02-.02-.04-.03-.05-.05-.13-.15-.14-.29-.01-.44.08-.09.12-.19.14-.31,0,0,0,0,0,0,0-.03,0-.06.02-.08.25-.36.49-.73,1-.73.07,0,.14-.02.21-.03.35-.02.71,0,1,.23.04.03.08.05.13.05.03,0,.05,0,.08-.01.15-.05.31-.11.45-.18.13-.07.24-.1.37-.02.05.03.1.04.15.04.05,0,.1-.01.14-.03.32-.15.68-.18,1.02-.24.06,0,.13,0,.19-.02.05,0,.1-.01.15-.01.11,0,.21.02.31.06.09.02.18.04.27.04h.02c.09,0,.17-.06.21-.14.07-.11.16-.21.23-.32.01-.02.02-.04.03-.05.11-.12.22-.23.34-.33.05-.04.11-.07.15-.12.06-.09.15-.14.25-.16.13,0,.24-.1.25-.23.03-.2.13-.39.29-.52.1-.09.18-.19.25-.31.07-.1.16-.19.27-.24.04-.02.07-.06.1-.09.07-.11.18-.19.3-.22.17-.04.19-.07.17-.25,0-.05-.02-.1,0-.13.12-.22.13-.49.26-.71.12-.2.29-.34.45-.51.05-.05.11-.08.19-.08.02,0,.04,0,.06,0,.12.01.24.02.36.02s.24-.01.36-.02c.02,0,.05,0,.07,0,.18,0,.37.01.55.05.07,0,.14.11.17.13.06.04.1.09.14.15.15.25.4.42.68.47.27.05.54.13.79.24.11.04.23.06.35.06.03,0,.06,0,.09,0,.02,0,.03,0,.05,0,.15,0,.29.03.43.09.15.07.31.11.48.12,0,0,.01,0,.02,0,.08,0,.17.03.23.08.15.12.31.22.33.44.01.11.11.16.21.2.2.1.39.21.58.32.05.03.09.07.12.12.13.18.26.36.39.53.04.05.07.08.11.1.04-.02.07-.06.11-.1.13-.18.26-.36.39-.53.03-.05.07-.09.12-.12.19-.11.38-.22.58-.32.09-.04.19-.1.21-.2.02-.22.18-.32.33-.44.06-.05.15-.08.23-.08.01,0,.02,0,.02,0,.17,0,.33-.04.48-.12.14-.06.28-.09.43-.09.02,0,.03,0,.05,0,.03,0,.06,0,.09,0,.12,0,.24-.02.35-.06.26-.11.52-.19.79-.24.28-.06.53-.23.68-.47.03-.06.08-.11.14-.15.03-.02.1-.12.17-.13.18-.03.36-.05.54-.05.02,0,.05,0,.07,0,.12.01.24.02.36.02s.24-.01.36-.02Zm.07-.72h-.05s-.03,0-.03,0h-.09s-.01.01-.01.01c-.03,0-.07,0-.11,0-.03,0-.08,0-.13,0s-.1,0-.14,0c-.05,0-.09,0-.13-.01h-.09s-.07,0-.07,0h0c-.11,0-.22,0-.33.01-.1,0-.21.02-.33.04-.26.04-.4.17-.51.28-.05.04-.1.08-.14.13h0c-.06.06-.11.13-.16.21-.02.03-.05.06-.09.09-.03.02-.08.04-.12.05-.15.03-.31.07-.47.12h0c-.14.04-.28.09-.43.15-.02,0-.04.01-.05.01h0s-.04,0-.06,0h0s0,0,0,0h0s-.04,0-.04,0h-.07s-.01,0-.01,0c-.11,0-.23.01-.36.04-.12.02-.23.06-.34.11l-.04.02s-.05.02-.08.03h0s-.05,0-.07.01h-.03c-.11,0-.24.02-.35.06h0c-.11.04-.21.1-.31.18l-.04.03c-.2.15-.39.3-.49.59-.06.03-.13.07-.2.11h0s-.28.17-.28.17l-.06.03c-.06.04-.11.09-.16.14h0s-.04.04-.05.06c-.02-.02-.03-.04-.05-.06h0c-.05-.05-.1-.1-.16-.14l-.05-.03-.29-.16h0c-.07-.04-.14-.08-.2-.11-.1-.29-.29-.44-.49-.59h0s-.04-.03-.04-.03h0c-.1-.08-.2-.14-.32-.18-.12-.04-.24-.06-.36-.06h-.02s-.01,0-.01,0c-.02,0-.05,0-.07-.01h0s-.05-.02-.08-.03l-.05-.02c-.11-.05-.23-.08-.34-.11-.13-.03-.25-.04-.36-.04h-.01s-.05,0-.05,0h-.07s0,0,0,0h0s-.04,0-.06,0h0s-.04,0-.06-.01c-.14-.06-.29-.11-.42-.15h0c-.17-.05-.32-.09-.47-.12h0s-.08-.02-.12-.05h0s-.06-.05-.08-.08h0c-.04-.07-.1-.14-.16-.21h0s-.09-.09-.15-.13c-.11-.11-.25-.24-.51-.27-.22-.04-.44-.05-.65-.05h0s-.07,0-.07,0h-.09s-.08.02-.13.02c-.03,0-.08,0-.14,0-.06,0-.11,0-.14,0-.04,0-.07,0-.1,0-.06-.01-.12-.02-.17-.02h-.02c-.12,0-.25.03-.36.08h0c-.11.05-.22.12-.31.21l-.11.1c-.16.16-.32.31-.45.55h0c-.11.2-.16.37-.21.53h0c-.02.08-.04.15-.07.2h0c-.04.07-.06.13-.07.19-.02.01-.04.03-.06.04-.09.07-.17.14-.23.23-.07.04-.13.09-.19.15-.09.08-.17.17-.23.26l-.03.05s-.03.05-.05.08h0s-.03.04-.06.06h0c-.14.12-.25.25-.34.41-.04.08-.08.16-.11.25-.05.02-.09.05-.14.07h0c-.09.06-.18.14-.25.22-.02.02-.05.04-.09.07-.07.06-.14.12-.2.19-.05.05-.12.12-.19.2l-.06.07-.04.05-.03.04s-.03.05-.05.07c-.04-.01-.07-.02-.1-.02h0c-.09-.02-.19-.03-.28-.03-.03,0-.07,0-.13,0h0s-.09,0-.14.02h-.02c-.06,0-.11,0-.16.01l-.19.03c-.28.04-.56.08-.86.2-.14-.05-.28-.06-.42-.04-.15.02-.29.06-.42.13-.04.02-.1.05-.16.07-.18-.1-.36-.16-.55-.19-.24-.04-.47-.05-.7-.03-.08,0-.13.01-.17.02h0c-.86,0-1.21.51-1.56,1.01l-.02.03-.07.13c-.02.06-.04.12-.06.17h0s0,.06-.01.08c-.17.21-.24.43-.23.67,0,.21.08.41.22.59l-.05.05c-.06.06-.11.13-.15.2h0c-.04.08-.08.16-.1.23h0c-.04.12-.07.21-.1.3-.02.06-.04.13-.07.21-.02.06-.04.11-.05.17h0c-.02.08-.03.15-.03.22s0,.14.03.22h0s0,.02,0,.02c-.01.04-.03.1-.04.18v.06s-.02.04-.02.04h0s0,.04,0,.04h0s.02.01.03,0h.02s0,0,0,.01c-.14.14-.26.3-.35.48-.05.1-.1.2-.13.31-.06,0-.12.01-.19.02h0c-.13,0-.26.04-.39.09h0c-.1.04-.2.1-.29.17h-.02s-.03.03-.03.03l-.08.04-.07.04h0c-.22.12-.43.24-.55.53-.07.03-.14.06-.21.1-.18.03-.35.07-.53.14-.21.09-.39.21-.56.39-.06,0-.11-.01-.16-.01h-.03s-.04,0-.04,0h-.07s-.03,0-.03,0h0c-.12.02-.24.04-.35.07-.12.03-.23.07-.34.11l-.04.02c-.41.2-.6.51-.79.81l-.08.12h0c-.05.1-.09.18-.11.27h0c-.03.09-.04.18-.04.27v.05s0,.04,0,.04v.12h0v.09s0,0,0,0c0,.06,0,.12,0,.17,0,.06-.01.12-.02.18v.08s0,.04,0,.04v.02c0,.1.01.21.04.31.02.09.05.18.1.26.05.1.1.2.16.29h0c.04.06.08.12.13.17-.05.19-.04.36-.04.52v.09c0,.2,0,.4.05.59.04.19.11.38.22.56,0,.02,0,.04,0,.06h0s0,.03,0,.05c-.1.25-.13.47-.16.69v.02s-.02,0-.02,0h0c-.19.06-.38.17-.54.34h0c-.12.13-.22.25-.31.35l-.16.19c-.11.11-.19.24-.25.38h0c-.04.1-.07.2-.08.3-.07.08-.14.16-.19.19h0c-.14.1-.26.2-.37.32h0c-.08.08-.15.17-.22.26-.05.01-.1.03-.15.05h0c-.11.04-.2.09-.29.16l-.04.03s-.05.04-.09.06h0s-.06.03-.1.04h-.03c-.19.07-.36.18-.49.33-.15.17-.25.38-.27.66,0,0,0,.02,0,.02h0s-.01.03-.02.04v.02c-.08.09-.13.19-.17.29-.04.11-.05.22-.06.32v.03c0,.05,0,.12.02.18h0c.01.08.03.14.06.2h0s.04.1.06.14h0c.03.06.06.11.09.16v.03c0,.16.04.32.12.47H.34c.08.14.18.26.31.35.11.07.21.15.3.22.1.08.19.16.26.22.03.2.08.4.16.58h0c.08.19.19.36.31.51.03.11.07.22.14.31h0c.07.11.16.2.27.27.01.19.03.39.07.57.05.24.13.48.26.72.03.06.07.14.1.23-.04.05-.08.09-.11.13h0c-.1.1-.18.22-.24.34h0c-.06.14-.11.29-.13.44v.03c0,.1-.02.18-.03.26,0,.08-.03.17-.04.27-.03.12-.05.23-.06.35h0c-.02.13-.02.26-.02.38v.02c-.11.11-.21.24-.27.39-.07.15-.1.31-.09.49,0,0,0,0,0,0-.16.1-.29.23-.39.38h0c-.12.18-.19.4-.21.62-.02.07-.04.14-.06.22h0c-.02.11-.03.21-.03.31,0,.08,0,.16.02.23,0,.07.03.14.05.23v.02c.06.15.1.27.13.37h0c.05.14.09.25.13.36h0c.06.15.15.28.25.38.11.11.25.19.4.24h.01s.04.02.06.03h0s.03.02.06.04h0c.12.1.25.17.39.23h0c.16.06.32.09.48.09h0c.05.09.11.18.19.29h0c.06.1.15.19.24.27h0c.08.07.18.13.29.17.03.04.06.07.09.09.17.18.35.3.55.37.12.05.24.08.35.1.03.04.05.07.08.1.02.02.02.01.03.03v.02c.05.09.1.17.16.24h0c.05.07.11.13.18.18h0c.13.16.26.33.55.41v.02s-.02.06-.04.09c-.08.15-.12.32-.12.49h0s0,.07,0,.1h0s-.02.13-.02.13h0v.02s-.02.08-.02.08v.04s0,.04,0,.04c0,.12.02.24.06.35h0c.03.1.08.19.14.27v.05s0,.02,0,.02c0,.14.02.28.07.43h0c.03.1.07.2.13.29,0,.08,0,.14,0,.2,0,.12,0,.25,0,.34h0c0,.13.03.26.06.37h0c.03.09.06.18.11.26,0,.03,0,.07,0,.12h0s0,.08,0,.11v.02h-.01c-.09.13-.19.27-.19.53h0c0,.17,0,.34.04.51h0c.05.21.13.42.28.62l.05.07h0s.05.07.05.07h0c.08.14.17.27.31.4h0c.16.15.36.25.61.28l.05.02h.02c.07.03.14.04.21.06h0c.08.01.15.02.21.03h.04c.13,0,.23,0,.33-.02h0s.11-.01.11-.01h0s.37-.02.37-.02h.23c.1.07.22.15.35.22h0c.18.09.38.15.6.15.15.06.28.07.41.08h0s0,0,0,0h0c.22.14.41.11.58.07.03.01.06.02.1.04,0,0,.02,0,.03,0,.03.04.07.07.11.1h0c.08.06.16.12.26.16.13.07.27.12.41.16.11.03.22.05.34.07,0,.01.01.03.01.04h0s.05.17.05.17h0c.05.13.1.21.14.28h0s0,0,0,0h0s.05.09.08.14v.02s.08.09.12.13c.01.02.04.06.06.1h0c.1.17.21.34.41.48.01.15.05.29.1.43.06.16.15.31.26.44h.01s0,.01,0,.01c.03.03.06.07.08.11-.07.27-.02.47.04.68,0,.02,0,.04.02.07v.02c.04.13.09.25.16.35.05.08.12.15.19.21,0,0,0,0,0,0,.02.01.03.03.05.04h0c.06.05-.03-.02-.06-.04,0,0,0,0,0,0h0s.03.08.03.08h0c.09.21.23.39.41.52.17.13.38.21.6.24.07,0,.15.03.24.05.09.02.18.05.26.07h.02c.32.1.57.12.83.03.26-.09.44-.25.63-.51.08.02.15.04.2.05h0c.06.02.12.04.2.06.09.08.19.16.3.22.13.07.26.13.4.16.04.05.08.09.12.13h0s.11.13.11.13h0c.12.14.27.26.42.35h0c.14.09.29.16.45.22.25.17.52.31.81.38.33.08.68.06,1.05-.07h0c.07-.02.12-.04.17-.05h0c.06-.01.12-.03.18-.03h.03s0,0,0,0t0,0h0s.1.05.15.08c.09.06.18.1.28.13.12.03.23.05.35.05h.04s.05,0,.05,0h.06s.04,0,.04,0c.05,0,.1.02.17.03h0c.09.01.16.01.21.01.21,0,.42-.04.62-.12.17-.07.34-.16.49-.28.13-.05.25-.1.36-.18.14-.09.28-.21.39-.34l.03-.04c.25,0,.45-.04.65-.09h0c.06-.01.12-.03.18-.04.19-.03.35-.1.5-.17.02.01.04.02.06.03l.3.14.31-.14s.04-.02.06-.03c.15.07.31.13.5.17.06.01.12.03.18.04h0c.2.05.4.1.65.09l.03.04c.11.14.25.25.39.34h0c.12.07.24.13.36.17.15.12.31.22.49.28.2.08.41.12.62.12.06,0,.13,0,.21-.01h0c.06,0,.12-.02.17-.03h.03s.07,0,.07,0h.05s.04,0,.04,0c.11,0,.23-.02.35-.05h0c.1-.03.19-.08.28-.13h0c.06-.03.11-.06.16-.08h0s0,0,0,0c0,0,0,0,0,0,0,0,0,0,0,0h.03c.05.01.11.03.18.04h0s.09.02.15.04c.37.14.73.15,1.07.07.29-.07.55-.2.8-.37.16-.05.31-.13.45-.22.15-.1.3-.22.42-.35h0s.12-.13.12-.13h0s.08-.09.12-.14c.14-.03.27-.09.4-.16.11-.06.21-.14.3-.22.08-.03.14-.05.2-.06h0c.05-.02.12-.03.2-.05.19.25.37.42.63.51.27.09.51.07.83-.02h.02c.08-.03.16-.05.25-.08.09-.02.17-.04.24-.05.22-.03.43-.11.6-.24h0c.17-.13.31-.3.4-.5h0s.03-.08.03-.08h0s0,0-.01,0c-.03.02-.1.08-.05.04.02-.01.03-.03.05-.04,0,0,0,0,0,0,.07-.06.14-.14.19-.21h0c.07-.11.12-.23.15-.35v-.02s.02-.05.02-.07c.05-.2.1-.41.04-.68.02-.03.04-.05.06-.08h0s.03-.04.03-.04c.11-.13.2-.28.26-.44h0c.05-.14.09-.28.1-.43.19-.14.3-.31.41-.48h0s.05-.08.07-.1h0s.08-.08.11-.13v-.02s.07-.1.09-.14h0c.05-.07.1-.15.14-.28h0s.06-.16.06-.16h0s0-.03.02-.05c.12-.01.23-.04.34-.07.14-.04.28-.09.41-.16.09-.04.17-.09.24-.15h0s.07-.07.11-.11c.01,0,.02,0,.03-.01.03-.01.06-.02.09-.03.17.04.35.07.59-.07h0s0,0,0,0c.13,0,.26-.02.41-.08.23,0,.43-.06.61-.15h0c.14-.07.25-.15.35-.23h.22s.37.04.37.04h0s.11,0,.11,0h0c.1.01.2.02.33.02h.04c.07,0,.14-.01.22-.03h0c.07-.01.14-.03.21-.05h.02s.05-.02.05-.02c.25-.03.44-.14.6-.28h0c.14-.12.23-.26.31-.39h0s.04-.08.04-.08h0l.05-.08c.15-.19.23-.4.28-.62h0c.04-.18.04-.35.04-.52h0c0-.26-.09-.4-.19-.53h0s0,0,0,0h0s0,0,0,0v-.02s-.02-.07-.02-.11c0-.05,0-.09,0-.12.04-.08.08-.17.11-.25h0c.04-.12.06-.24.07-.38,0-.09,0-.21,0-.34,0-.06,0-.12,0-.2.05-.09.1-.19.13-.3h0c.04-.15.07-.29.07-.43h0s0-.07,0-.07h0c.06-.09.11-.18.14-.27h0c.04-.12.06-.24.06-.35v-.04s0-.04,0-.04v-.09s-.02-.01-.02-.01l-.02-.13h0s0-.06,0-.09h0c0-.18-.04-.35-.12-.5-.02-.03-.03-.06-.05-.09v-.02c.3-.08.44-.25.56-.4h0s0,0,0,0t0,0s-.04.02-.01,0h0s0,0,.01,0h0c.07-.05.13-.11.18-.17h0c.06-.08.11-.17.15-.26v-.02s.02,0,.04-.03c.02-.03.05-.07.08-.1.11-.02.23-.05.35-.1.19-.07.38-.18.54-.36h0s.02-.02.02-.02c.03-.03.06-.05.08-.09.1-.04.2-.1.29-.17h0c.09-.08.17-.16.24-.26h0c.07-.11.13-.2.19-.3h.01c.16,0,.33-.03.49-.09h0c.15-.06.29-.14.41-.24.01,0,.03-.02.04-.03h0s.05-.02.07-.02h.01c.15-.05.29-.13.4-.24.11-.11.2-.23.25-.38.04-.11.09-.23.13-.36h0c.04-.1.08-.22.13-.37v-.02c.03-.07.05-.15.06-.22.01-.08.02-.16.02-.23,0-.1-.01-.21-.03-.31h0c-.01-.08-.04-.16-.06-.23-.01-.23-.08-.44-.21-.62h0c-.1-.15-.24-.28-.39-.38,0,0,0,0,0,0,0-.17-.02-.33-.08-.48h0c-.06-.15-.16-.28-.27-.39h0s0-.02,0-.02c0-.12,0-.25-.02-.38-.01-.13-.04-.25-.06-.37-.02-.08-.03-.16-.04-.24h0c0-.08-.02-.17-.03-.26v-.03c-.02-.15-.07-.3-.14-.43-.07-.14-.16-.27-.26-.37h0s-.05-.06-.08-.1c.04-.09.07-.17.11-.23.14-.24.21-.48.26-.72h0c.04-.19.06-.38.07-.57.11-.08.2-.17.26-.27h0c.06-.1.11-.21.14-.32.13-.16.23-.33.31-.51h0c.08-.19.13-.38.16-.59.08-.06.16-.14.26-.22.09-.07.19-.14.3-.22.13-.09.24-.21.31-.34h0c.08-.15.12-.31.12-.47v-.03s.06-.1.08-.16h0c.03-.06.05-.11.07-.17.02-.06.04-.11.05-.18.01-.07.02-.14.02-.2,0-.11-.02-.23-.06-.34h0c-.03-.11-.09-.21-.16-.3h0s-.02-.03-.02-.05h0s0-.02,0-.03c-.02-.27-.12-.49-.27-.66h0c-.14-.15-.31-.26-.49-.32h-.03s-.06-.03-.1-.05h0s-.06-.04-.09-.06l-.04-.03c-.08-.06-.19-.11-.29-.15h0s-.1-.04-.15-.05c-.07-.09-.14-.17-.22-.25-.11-.12-.24-.22-.37-.31h-.01s-.12-.12-.19-.2c-.01-.1-.04-.2-.08-.3h0c-.06-.15-.14-.27-.25-.38l-.15-.17c-.13-.15-.27-.3-.33-.37-.16-.18-.35-.28-.54-.34h0s-.01,0-.02,0v-.02h0c-.02-.22-.05-.45-.16-.69,0-.02.01-.04.01-.06h0s0-.04,0-.05c.11-.18.18-.37.22-.56.04-.2.05-.39.05-.59v-.1c0-.17.01-.34-.03-.52.05-.05.09-.11.13-.17.06-.08.11-.18.16-.28.04-.08.08-.17.1-.27h0c.02-.1.04-.21.04-.31v-.03s0-.03,0-.03v-.07c-.01-.06-.02-.12-.02-.18h0c0-.05,0-.11,0-.17h0v-.09s0-.11,0-.11c0-.04,0-.07,0-.1,0-.09-.01-.18-.04-.27h0c-.02-.08-.06-.17-.11-.25h0s-.08-.14-.08-.14h0c-.18-.3-.37-.61-.79-.81l-.04-.02c-.11-.04-.22-.08-.34-.11-.11-.03-.22-.05-.35-.07h0s-.03,0-.03,0h-.07s-.04,0-.04,0h-.03c-.05,0-.11,0-.16.01-.16-.18-.35-.3-.56-.39-.18-.07-.36-.11-.53-.14-.07-.03-.14-.07-.21-.1-.12-.29-.34-.42-.56-.53h0l-.06-.04-.08-.04h-.03s-.01-.02-.01-.02h-.02c-.09-.08-.19-.13-.29-.18h0c-.13-.05-.26-.08-.39-.09h0c-.07,0-.13-.01-.19-.02-.03-.11-.08-.21-.13-.31h0c-.1-.18-.22-.34-.36-.49,0,0,0,0,0,0h.02s.03,0,.03,0v-.03s0-.01,0-.01v-.04s-.02-.06-.02-.06c-.01-.07-.03-.13-.05-.17,0,0,0-.01,0-.02v-.02c.02-.08.03-.15.03-.21s0-.14-.02-.21h0c-.01-.07-.03-.13-.05-.18-.02-.05-.04-.13-.06-.2-.03-.08-.05-.16-.1-.3-.02-.07-.06-.15-.1-.22h0c-.04-.08-.09-.15-.15-.21l-.04-.05c.14-.18.21-.37.22-.59h0c0-.25-.07-.47-.23-.68,0-.02,0-.05-.01-.07v-.02c-.01-.06-.03-.12-.06-.17l-.06-.12-.02-.03h0c-.35-.5-.7-1-1.55-1h0s0,0,0,0h0s-.09-.01-.16-.02c-.23-.01-.46-.01-.7.03-.19.03-.37.1-.55.19-.06-.02-.11-.05-.16-.07-.13-.07-.26-.11-.42-.13-.14-.02-.28,0-.42.04-.3-.12-.58-.16-.87-.2h0s-.19-.03-.19-.03c-.05,0-.1,0-.16-.01h-.02s-.1-.02-.14-.02h0c-.06,0-.1,0-.13,0-.09,0-.19,0-.28.03h0s-.07.01-.1.02c-.02-.03-.04-.06-.05-.07l-.03-.04-.04-.05-.06-.07c-.07-.08-.14-.15-.19-.2-.07-.07-.13-.13-.2-.19h0s-.07-.06-.09-.07c-.07-.09-.16-.16-.25-.22-.05-.03-.09-.05-.14-.07-.03-.09-.07-.17-.11-.25-.09-.15-.2-.29-.33-.4-.03-.03-.05-.05-.06-.06h0s-.04-.06-.06-.08l-.03-.04c-.07-.1-.14-.19-.23-.27h0c-.06-.06-.12-.1-.19-.15-.07-.09-.15-.17-.23-.23h0s-.03-.02-.05-.04c-.01-.06-.04-.12-.08-.2-.02-.04-.04-.12-.06-.19-.05-.16-.1-.33-.21-.53h0c-.14-.24-.29-.39-.45-.55h0s-.11-.11-.11-.11h0c-.09-.09-.2-.16-.31-.21h0c-.12-.05-.24-.08-.36-.08Z" class="bs"></path>
    </clipPath>
    <linearGradient gradientUnits="userSpaceOnUse" y2="26" x2="212.52" y1="24.33" x1="-60.4" id="am">
      <stop stop-color="#fbc83c" offset="0"></stop>
      <stop stop-color="#fbc83c" offset="0"></stop>
      <stop stop-color="#fbf7c6" offset=".31"></stop>
      <stop stop-color="#b88a36" offset=".51"></stop>
      <stop stop-color="#e8d087" offset=".69"></stop>
      <stop stop-color="#fbf7c6" offset="1"></stop>
    </linearGradient>
    <linearGradient xlink:href="#am" y2="2.64" x2="53.14" y1="40.52" x1="1.26" id="an"></linearGradient>
  </defs>
  <path d="m5.01,35.86s.04.02.01,0h0s0,0,0,0h0Z" class="au"></path>
  <polygon points="9.99 43.09 9.99 43.09 9.99 43.09 9.99 43.09" class="au"></polygon>
  <path d="m12.01,44.17h0s0-.01,0,0" class="au"></path>
  <polygon points="12.02 44.18 12.02 44.18 12.02 44.18 12.02 44.18" class="au"></polygon>
  <polygon points="12.02 44.19 12.02 44.18 12.02 44.18 12.02 44.19 12.02 44.19" class="au"></polygon>
  <path d="m13.55,47.39h0s.11.09.06.04h0s-.03-.03-.05-.04" class="au"></path>
  <polyline points="13.55 47.39 13.55 47.39 13.55 47.39 13.54 47.39 13.55 47.39" class="au"></polyline>
  <polygon points="16.55 47.86 16.54 47.85 16.54 47.86 16.55 47.86" class="au"></polygon>
  <polygon points="16.55 47.86 16.55 47.86 16.55 47.86 16.55 47.86 16.54 47.86 16.55 47.86 16.55 47.86 16.55 47.86" class="au"></polygon>
  <path d="m18.75,49.18s-.01,0-.02-.01h0s.01,0,.02.01" class="au"></path>
  <path d="m21,49.41h0s0,0,0,0h0Z" class="au"></path>
  <rect height="0" width="0" y="49.41" x="21" class="bj"></rect>
  <polygon points="30.86 49.41 30.86 49.41 30.86 49.41 30.86 49.41" class="au"></polygon>
  <polygon points="30.86 49.41 30.86 49.41 30.86 49.41 30.86 49.42 30.86 49.41" class="au"></polygon>
  <path d="m33.1,49.18l.03-.02h0s-.02.01-.03.02" class="au"></path>
  <polygon points="35.31 47.86 35.32 47.86 35.32 47.85 35.31 47.86 35.31 47.86" class="au"></polygon>
  <polygon points="35.31 47.86 35.31 47.86 35.31 47.86 35.31 47.86" class="au"></polygon>
  <path d="m38.31,47.39s-.03.03-.05.04c-.05.04.02-.02.05-.04h0Z" class="au"></path>
  <path d="m38.31,47.38s0,0,0,0h0s.01,0,.01,0h0Z" class="au"></path>
  <path d="m39.85,44.15s0,0,0,0" class="au"></path>
  <polygon points="39.84 44.19 39.84 44.18 39.84 44.19 39.84 44.19" class="au"></polygon>
  <path d="m41.87,43.09h0s0,0,0,0c0,0,0,0,0,0" class="au"></path>
  <polyline points="41.87 43.09 41.87 43.09 41.87 43.09 41.87 43.09 41.87 43.09" class="au"></polyline>
  <polygon points="45.96 40.1 45.95 40.1 45.96 40.1 45.96 40.1" class="au"></polygon>
  <path d="m46.84,35.86s0,0-.01,0h0s0,0,.01,0h0Z" class="au"></path>
  <polygon points="46.85 35.86 46.84 35.86 46.85 35.86 46.85 35.86 46.85 35.86" class="au"></polygon>
  <path d="m42.25,8.76l.65.35-.65-.35c-.04.12.04.23.07.4,0,.01,0,.03,0,.04.02.18.03.33.15.46.19.21.34.44.37.73.02.17.13.24.3.26.16.01.31.03.47.05.13,0,.25.06.34.14.06.04.12.07.18.1.14.08.31.14.33.35.01.05.04.1.09.12.19.1.38.18.57.27.01,0,.03,0,.05,0,0,0,0,0,0,0,.28.04.54.11.73.34.14.18.31.28.52.21.04-.02.09-.02.14-.02.02,0,.05,0,.07,0,.18.02.36.07.52.14.27.13.41.42.57.67.03.05.04.11.04.16,0,.01,0,.03,0,.04,0,.08-.01.17-.01.25,0,.15.01.3.03.45,0,.01,0,.02,0,.03,0,.1-.02.19-.07.27-.06.13-.14.25-.25.36-.16.15-.2.28-.12.5.06.16.04.35.04.53,0,.3-.03.6-.21.85-.02.05-.04.1-.05.16,0,.06-.01.11-.03.17-.02.04-.02.08-.02.13,0,.06.01.12.05.17.1.2.12.43.14.65,0,.01,0,.03,0,.05,0,.04,0,.07-.02.11-.09.3-.08.3.24.33.19.02.38.05.52.2.17.18.33.37.49.55.09.09.14.21.14.34h0c0,.08.02.14.06.19.14.16.27.33.45.44.19.13.35.29.47.48.06.09.16.15.26.17.1.01.19.05.28.11.13.11.27.18.43.23.16.06.28.16.3.36.02.17.08.32.18.45.05.06.07.14.07.21,0,.05,0,.09-.03.13-.02.07-.06.14-.1.21-.07.09-.11.2-.11.31,0,.02,0,.03,0,.05,0,.01,0,.02,0,.04,0,.09-.05.18-.12.22-.23.16-.45.34-.67.53-.11.1-.18.23-.19.37-.03.3-.15.58-.35.81-.05.05-.09.12-.1.2,0,.1-.07.19-.16.24-.16.1-.26.27-.27.46-.02.36-.06.72-.24,1.05-.08.15-.14.31-.21.47-.02.04-.04.08-.05.12,0,.02,0,.03,0,.05,0,.05,0,.09.03.13.1.15.21.29.33.42.1.11.17.24.19.39.01.2.04.41.08.61.05.19.07.39.07.59,0,.02,0,.04,0,.06,0,.02,0,.03,0,.05,0,.14.06.27.16.36.16.13.23.27.19.47-.01.04.02.1.04.15.01.05.04.09.06.14.03.11.1.19.2.24.19.08.32.27.32.49h0s.01.09.03.13c.04.11.07.22.07.34,0,.09-.01.17-.04.25-.08.24-.16.47-.25.7-.04.1-.12.17-.21.2-.13.04-.24.1-.35.18-.13.11-.28.17-.45.17-.02,0-.04,0-.06,0h-.15c-.13,0-.25.08-.32.19-.09.15-.17.3-.27.44-.05.07-.12.13-.2.16-.12.02-.23.1-.29.21,0,.02-.03.04-.05.06-.16.19-.4.24-.63.28-.13.01-.24.09-.3.21-.07.12-.18.22-.23.35-.03.06-.07.12-.13.16-.08.07-.18.25-.3.28-.15.04-.29.13-.37.27-.04.05-.09.09-.14.13-.24.2-.24.38,0,.57.1.07.15.18.15.3,0,0,0,0,0,0,0,.11.02.22.03.33,0,.03.01.06.01.09,0,.08-.03.16-.07.22-.08.1-.12.22-.12.35,0,.02,0,.04,0,.06,0,.02,0,.04,0,.05,0,.16-.05.31-.13.43-.04.07-.05.14-.05.21h0c-.01.19,0,.39-.01.58,0,.14-.05.28-.13.4-.04.06-.05.12-.05.19h0c0,.18.02.35.04.52.02.06.05.11.09.16.03.06.09.12.09.18,0,.25-.02.5-.17.71-.05.07-.1.14-.14.22-.1.17-.22.32-.44.34-.05.01-.1.03-.14.04-.09.03-.18.04-.27.05-.13,0-.26-.02-.39-.03-.24-.02-.49-.03-.73-.05h-.01c-.1,0-.19.04-.26.1-.19.16-.39.31-.65.28h-.01s-.09.01-.14.03c-.17.09-.37.01-.54.13-.03.02-.1,0-.15,0-.04,0-.08-.01-.12-.01-.08,0-.16.02-.23.06-.05.03-.1.05-.16.06-.08.01-.15.06-.2.13-.04.06-.09.1-.16.13-.2.11-.42.17-.65.18-.08,0-.16.02-.24.06-.06.03-.11.07-.14.13-.07.16-.12.32-.17.48-.03.08-.1.16-.13.23-.01.03-.03.06-.05.08-.17.18-.24.45-.5.56-.07.03-.11.13-.15.21-.02.06-.03.13-.03.19v.02c0,.19-.07.36-.19.5-.06.07-.12.15-.18.22-.08.08-.12.18-.12.29,0,.05.01.11.03.16.07.18,0,.35-.04.53-.02.09-.07.16-.14.22-.1.08-.13.21-.19.32-.08.18-.25.3-.44.32-.22.03-.43.08-.64.15-.34.11-.48.06-.69-.24-.03-.04-.05-.07-.09-.1-.13-.11-.29-.18-.46-.18-.05,0-.11,0-.16.02-.16.04-.33.08-.49.14-.09.02-.16.06-.23.12-.11.13-.27.22-.43.25-.08.01-.16.05-.22.1-.12.11-.23.25-.35.37-.17.18-.38.31-.61.39-.04.01-.08.03-.11.05-.38.28-.79.42-1.26.24-.15-.05-.31-.09-.48-.11-.24-.04-.45.05-.64.17-.08.05-.17.08-.26.08-.03,0-.06,0-.09,0-.03,0-.06,0-.1,0-.04,0-.09,0-.13.01-.08.02-.16.03-.25.03-.25,0-.49-.09-.68-.26-.04-.04-.08-.06-.13-.08-.2-.05-.37-.17-.51-.32-.13-.18-.33-.29-.55-.29h0c-.26.01-.49-.08-.73-.12-.2-.03-.38-.15-.57-.23-.09-.04-.18-.06-.24.02-.05.06-.11.11-.17.14-.06-.03-.12-.07-.17-.14-.06-.08-.16-.06-.24-.02-.19.08-.37.2-.57.23-.24.04-.47.14-.73.12h0c-.22,0-.42.11-.55.29-.13.16-.31.27-.51.32-.05.02-.09.05-.13.08-.19.17-.43.26-.68.26-.08,0-.17-.01-.25-.03-.04,0-.08-.01-.13-.01-.03,0-.06,0-.1,0-.03,0-.06,0-.09,0-.09,0-.19-.03-.26-.08-.2-.12-.4-.22-.64-.17-.16.02-.32.06-.48.11-.47.18-.88.04-1.26-.24-.03-.02-.07-.04-.11-.05-.23-.07-.44-.21-.61-.39-.12-.12-.22-.26-.35-.37-.06-.05-.14-.09-.22-.1-.17-.03-.32-.12-.43-.25-.07-.06-.14-.1-.23-.12-.16-.05-.32-.1-.49-.14-.05-.01-.1-.02-.16-.02-.17,0-.33.06-.46.18-.03.03-.06.06-.08.1-.22.29-.35.34-.7.24-.21-.07-.42-.12-.64-.15-.19-.02-.36-.15-.44-.32-.05-.11-.09-.24-.19-.32-.07-.05-.12-.13-.14-.22-.04-.17-.11-.34-.04-.53.02-.05.03-.1.03-.16,0-.11-.04-.21-.12-.29-.06-.07-.12-.15-.18-.22-.12-.14-.19-.32-.2-.5v-.02c0-.06-.01-.13-.03-.19-.03-.08-.08-.18-.15-.21-.26-.11-.32-.38-.5-.56-.02-.02-.04-.05-.05-.08-.03-.07-.1-.14-.13-.23-.06-.16-.11-.33-.17-.48-.03-.06-.08-.11-.14-.13-.07-.03-.16-.06-.24-.06-.23-.02-.45-.08-.65-.18-.06-.03-.12-.07-.16-.13-.04-.07-.12-.12-.2-.13-.06-.01-.11-.03-.16-.06-.07-.04-.15-.06-.23-.06-.04,0-.08,0-.12.01-.05,0-.12.03-.15,0-.16-.12-.37-.05-.54-.13-.04-.02-.09-.03-.13-.03h-.01c-.27.02-.47-.12-.65-.28-.07-.07-.17-.1-.26-.1h-.01c-.25.01-.49.03-.73.05-.13,0-.26.03-.39.03-.09,0-.19-.02-.27-.05-.05-.02-.1-.03-.14-.04-.22-.02-.33-.17-.43-.34-.04-.07-.09-.15-.14-.22-.16-.21-.18-.46-.18-.71,0-.06.06-.12.09-.18.04-.05.07-.1.09-.16.02-.17.04-.34.04-.51h0c0-.08-.02-.14-.05-.2-.08-.12-.12-.26-.13-.4-.01-.19,0-.38-.01-.57h0c0-.08-.02-.15-.05-.22-.09-.13-.13-.28-.13-.43,0-.02,0-.04,0-.05,0-.02,0-.04,0-.06,0-.13-.04-.25-.12-.35-.05-.06-.07-.14-.07-.22,0-.03,0-.06.01-.09.02-.11.03-.22.03-.33,0,0,0,0,0,0,0-.12.06-.23.15-.3.25-.19.24-.37,0-.57-.05-.04-.1-.08-.13-.13-.09-.13-.22-.23-.37-.27-.12-.03-.22-.21-.3-.28-.06-.04-.1-.1-.13-.16-.05-.13-.16-.23-.23-.35-.06-.11-.17-.19-.3-.21-.23-.04-.47-.09-.63-.28-.02-.02-.04-.03-.05-.06-.06-.11-.17-.19-.29-.21-.08-.03-.15-.09-.2-.16-.1-.14-.18-.29-.27-.44-.07-.11-.19-.19-.32-.19h-.15s-.04,0-.05,0c-.16,0-.32-.06-.45-.17-.1-.08-.22-.14-.35-.18-.1-.03-.18-.11-.21-.2-.09-.23-.17-.46-.25-.7-.02-.08-.04-.17-.04-.25,0-.12.02-.23.07-.34.01-.04.02-.09.02-.13h0c0-.21.13-.41.32-.49.1-.05.17-.13.2-.24.01-.05.04-.09.06-.14.01-.05.05-.1.04-.15-.05-.21.03-.34.19-.47.1-.09.16-.22.16-.36,0-.02,0-.04,0-.05,0-.02,0-.04,0-.06,0-.2.02-.4.07-.59.04-.2.07-.4.08-.61.02-.15.09-.29.19-.39.12-.13.23-.27.33-.42.02-.04.03-.09.03-.13,0-.01,0-.03,0-.05-.01-.04-.03-.08-.05-.12-.07-.16-.13-.32-.21-.47-.18-.33-.22-.68-.24-1.05,0-.19-.11-.36-.27-.46-.09-.05-.15-.14-.16-.24-.01-.07-.05-.14-.1-.2-.2-.23-.32-.51-.35-.81-.01-.14-.08-.28-.19-.37-.21-.19-.43-.37-.67-.53-.08-.05-.12-.13-.12-.22,0-.01,0-.02,0-.04,0-.02,0-.03,0-.05,0-.11-.04-.22-.1-.31-.04-.06-.08-.13-.1-.21-.02-.04-.02-.09-.02-.13,0-.08.02-.15.07-.21.1-.13.16-.29.18-.45.01-.19.13-.3.3-.36.16-.05.3-.13.43-.23.08-.06.18-.09.28-.11.11-.02.2-.08.26-.17.12-.19.28-.35.47-.48.17-.11.31-.28.45-.44.04-.05.06-.12.06-.18h0c0-.14.05-.27.14-.36.16-.18.33-.37.49-.55.14-.15.33-.18.51-.2.32-.03.33-.03.24-.33-.01-.04-.02-.07-.02-.11,0-.02,0-.03,0-.05.03-.22.04-.44.15-.65.03-.05.05-.11.05-.17,0-.04,0-.09-.02-.13-.01-.05-.02-.11-.03-.17,0-.06-.02-.11-.05-.16-.18-.26-.22-.55-.21-.85,0-.18-.02-.37.04-.53.08-.21.04-.35-.12-.5-.1-.1-.19-.22-.25-.36-.05-.08-.07-.18-.07-.27,0-.01,0-.02,0-.03.02-.15.03-.3.03-.45,0-.08,0-.17-.01-.25,0-.01,0-.03,0-.04,0-.06.02-.11.04-.16.16-.25.29-.54.57-.67.17-.07.34-.11.52-.14.02,0,.05,0,.07,0,.05,0,.09,0,.14.02.21.07.38-.02.52-.21.19-.24.45-.31.73-.34,0,0,0,0,0,0,.02,0,.03,0,.05,0,.19-.09.39-.17.57-.27.04-.02.08-.07.08-.12.02-.21.19-.27.33-.35.06-.03.13-.06.18-.1.1-.08.22-.13.34-.14.16-.02.31-.04.47-.05.17-.01.28-.09.3-.26.03-.3.17-.53.37-.73.12-.13.13-.28.15-.46,0-.01,0-.03,0-.04.04-.18.13-.3.06-.43-.02-.04-.03-.08-.03-.13s0-.09.03-.13c.06-.18.11-.36.18-.54.02-.07.06-.13.1-.18.17-.14.26-.35.26-.57,0-.02,0-.04,0-.05,0-.09,0-.17-.09-.24-.02-.02-.04-.03-.05-.05-.13-.15-.14-.29-.01-.44.07-.09.12-.19.14-.31,0,0,0,0,0,0,0-.03,0-.06.02-.08.14-.2.3-.37.49-.5.52-.37,1.19-.44,1.71-.02.04.03.08.05.13.05.03,0,.05,0,.08-.01.06-.02.13-.05.19-.07.09-.03.17-.07.26-.11.13-.07.24-.1.37-.02.05.03.1.04.15.04.05,0,.1-.01.14-.03.32-.15.68-.18,1.02-.23.06-.01.13,0,.19-.02.05,0,.1-.01.15-.01.11,0,.21.02.31.06.09.02.18.04.27.04h.02c.09,0,.17-.06.21-.14.07-.11.16-.21.23-.32.01-.02.02-.03.04-.05.11-.12.22-.23.34-.33.05-.04.12-.07.15-.13.06-.09.15-.14.25-.16.13,0,.24-.1.25-.23.03-.2.13-.39.29-.52.1-.09.18-.19.25-.31.07-.1.16-.19.27-.24.04-.02.07-.06.1-.09.07-.11.18-.19.3-.22.17-.04.19-.07.17-.25,0-.05-.02-.1,0-.13.12-.22.13-.48.26-.71.12-.2.29-.35.45-.51.05-.05.11-.08.18-.08.02,0,.04,0,.06,0,.12.02.24.02.36.02s.24,0,.36-.02c.02,0,.05,0,.07,0,.18,0,.37.02.55.05.07,0,.14.11.17.13.06.04.1.09.14.15.15.25.4.42.68.47.27.05.54.13.79.24.11.04.23.06.35.06.03,0,.06,0,.09,0,.02,0,.03,0,.05,0,.15,0,.29.03.43.09.15.08.31.11.48.12,0,0,.02,0,.02,0,.08,0,.17.03.23.08.15.12.31.22.33.44.01.11.11.16.21.2.2.1.39.21.58.32.05.03.09.07.12.12.13.18.26.36.39.53.04.05.07.08.11.1.04-.02.07-.05.11-.1.13-.18.26-.36.39-.53.03-.05.07-.09.12-.12.19-.11.38-.22.58-.32.09-.04.19-.1.21-.2.02-.22.18-.32.33-.44.07-.05.15-.08.23-.08,0,0,.02,0,.02,0,.17,0,.33-.04.48-.12.14-.06.28-.09.43-.09.02,0,.03,0,.05,0,.03,0,.06,0,.09,0,.12,0,.24-.02.35-.06.26-.11.52-.19.79-.24.28-.06.53-.23.68-.47.03-.06.08-.11.14-.15.03-.02.1-.12.17-.13.18-.03.36-.05.55-.05.02,0,.05,0,.07,0,.12.02.24.02.36.02s.24,0,.36-.02c.02,0,.04,0,.06,0,.07,0,.14.03.18.08.16.16.33.3.45.51.13.22.14.48.26.71.02.03,0,.09,0,.13-.02.18,0,.21.17.25.12.03.23.11.3.22.03.04.06.07.1.09.11.06.2.14.27.24.07.12.15.22.25.31.16.13.26.31.29.52.01.13.12.23.25.23.1.02.2.07.25.16.03.06.1.08.15.13.12.1.23.21.34.33.01.02.02.03.04.05.07.11.16.21.23.32.04.08.12.14.21.14h.02c.09,0,.19-.01.27-.04.1-.04.21-.06.31-.06.05,0,.1,0,.15.01.06.02.13,0,.19.02.35.06.7.08,1.02.23.04.02.09.03.14.03.05,0,.11-.02.15-.04.13-.07.25-.04.37.02.15.07.3.13.45.18.02.01.05.01.08.01.05,0,.1-.02.14-.05.29-.23.65-.25,1-.23.07,0,.14.03.21.03.51,0,.75.37,1,.73.01.03.02.06.02.08,0,0,0,0,0,0,.01.11.06.22.14.31.13.15.12.29-.01.44-.01.02-.03.04-.05.05-.08.06-.08.14-.09.24,0,.02,0,.04,0,.05,0,.22.1.43.26.57.05.05.08.11.1.18.06.18.11.36.18.54.02.04.03.09.03.13s0,.09-.03.13c0,.01-.01.02-.01.04" class="at"></path>
  <path d="m40.73,4.54h0s0,0,0,0" class="au"></path>
  <polygon points="40.73 4.54 40.73 4.54 40.73 4.54 40.73 4.55 40.74 4.55 40.74 4.54 40.73 4.54" class="au"></polygon>
  <path d="m11.13,4.55h0s0,0,0,0h0Z" class="au"></path>
  <path d="m8.87,9.16s0,0-.02,0h.02Z" class="au"></path>
  <polygon points="8.87 9.16 8.87 9.16 8.86 9.16 8.85 9.16 8.87 9.16" class="au"></polygon>
  <polygon points="2.62 27.36 2.62 27.37 2.62 27.36 2.62 27.36" class="au"></polygon>
  <polygon points="43.01 9.16 43.01 9.16 43.01 9.16 43.01 9.16" class="au"></polygon>
  <g class="bi">
    <rect height="6.53" width="9.81" y="3.15" x="14.75" class="by"></rect>
  </g>
  <path d="m15.13,8.81s-.32.24-.35.48c-.03.24.27,0,.5,0,.23,0,.33.09.53-.03.2-.12.51.25.78.05.27-.2.21-.49.41-.48.2,0,.45.42.78.25.33-.17.16-.4.2-.59.03-.19.31-.02.36.03.06.06,1.09,1.16,1.77.88.67-.28.6-.76.62-.88.02-.13.09-.11.3.06.2.17.58.58,1.23.24.66-.34.49-.75.43-1.1-.06-.35.11-.3.31-.3.2,0,.6.12,1-.38.41-.5.04-.94.04-.94,0,0,.52-.31.35-.87-.06-.21-.04-.14-.06-.21-.16-.45-.45-.74-.73-.82-.32-.1-.22-.11-.22-.11,0,0-.29-.83-.91-.58-.62.26-.59.38-.59.38,0,0-.05-.79-.78-.76-.74.03-1.15.51-1.27.9l-.11.39s-.24-.67-.9-.45c-.66.22-.8,1.11-.82,1.56-.02.44-.03.57-.03.57,0,0-.19-.47-.63-.22-.44.24-.62,1-.65,1.21-.02.22-.37.04-.52.2-.15.17-.41.53-.7.81-.29.28-.55.4-.44.55.11.14.12.14.12.14Z" class="bt"></path>
  <path d="m15.91,8.5s.45-.19.88-.46c.43-.27.96-.8,1.77-1.25.8-.44,1.92-.67,2.74-.87.82-.2,1.5-.38,1.86-.47l.36-.09" class="bt"></path>
  <line y2="8.05" x2="16.79" y1="8.5" x1="17.62" class="bt"></line>
  <path d="m17.44,7.49s-.03-.69.05-.87" class="bt"></path>
  <line y2="7.09" x2="18.09" y1="8.29" x1="19.74" class="bt"></line>
  <path d="m21.65,7.91s-1.77-1.47-2.02-1.55" class="bt"></path>
  <path d="m20.34,6.17s.79-1.55.77-2.28" class="bt"></path>
  <path d="m21.1,5.98s1.72.37,1.94.47" class="bt"></path>
  <line y2="3.95" x2="22.65" y1="5.8" x1="21.83" class="bt"></line>
  <line y2="5.15" x2="19.08" y1="6.6" x1="18.97" class="bt"></line>
  <g class="bd">
    <rect height="8.74" width="7.95" y="6.48" x="9.16" class="bl"></rect>
  </g>
  <path d="m9.48,14.41s-.2.34-.13.58c.07.23.25-.1.46-.2.21-.09.34-.05.48-.24.14-.19.57.03.74-.26.17-.29,0-.53.19-.61.18-.08.58.21.81-.08.23-.28,0-.43-.05-.62-.05-.19.27-.14.35-.11.07.03,1.46.63,1.97.11.51-.52.25-.93.22-1.06-.03-.13.04-.13.3-.06.25.07.76.31,1.23-.26.47-.58.16-.88-.04-1.18-.2-.3-.02-.32.17-.4.19-.08.59-.13.77-.75.18-.62-.34-.88-.34-.88,0,0,.35-.49-.02-.94-.14-.16-.09-.11-.14-.16-.33-.35-.7-.5-.99-.46-.33.04-.25,0-.25,0,0,0-.6-.65-1.06-.17-.47.48-.39.59-.39.59,0,0-.35-.71-1.02-.39-.66.32-.86.92-.81,1.33l.05.4s-.49-.52-1-.06c-.52.46-.3,1.34-.14,1.76.15.42.19.54.19.54,0,0-.36-.35-.67.04-.31.4-.18,1.16-.11,1.37.06.21-.32.18-.4.39-.08.21-.16.65-.32,1.02-.16.38-.34.59-.19.68.16.09.16.08.16.08Z" class="bt"></path>
  <path d="m10.07,13.81s.34-.35.63-.77c.29-.41.57-1.12,1.13-1.84.57-.72,1.5-1.37,2.18-1.89.68-.51,1.23-.94,1.53-1.17l.3-.23" class="bt"></path>
  <line y2="13.05" x2="10.7" y1="13.14" x1="11.64" class="bt"></line>
  <path d="m11.08,12.28s-.3-.62-.3-.82" class="bt"></path>
  <line y2="11.65" x2="11.52" y1="12.1" x1="13.51" class="bt"></line>
  <path d="m15.12,11s-2.2-.65-2.46-.63" class="bt"></path>
  <path d="m13.22,9.92s.12-1.73-.19-2.4" class="bt"></path>
  <path d="m13.85,9.44s1.73-.34,1.96-.33" class="bt"></path>
  <line y2="6.97" x2="14.46" y1="8.99" x1="14.45" class="bt"></line>
  <line y2="9.48" x2="11.66" y1="10.86" x1="12.13" class="bt"></line>
  <g class="bk">
    <rect height="10.33" width="6.39" y="11.78" x="5.45" class="be"></rect>
  </g>
  <path d="m6.58,21.34s-.06.39.1.59c.15.19.19-.19.35-.35.16-.17.3-.17.35-.4.06-.23.54-.18.59-.52.05-.33-.19-.49-.05-.63.14-.14.61-.03.72-.37.11-.35-.17-.4-.28-.55-.11-.16.2-.23.28-.23s1.59.04,1.87-.63c.28-.67-.12-.96-.19-1.06-.07-.11-.01-.14.25-.17.26-.03.82,0,1.04-.71.22-.71-.18-.88-.48-1.08-.29-.2-.13-.29,0-.43.14-.14.5-.34.43-.98-.07-.64-.64-.69-.64-.69,0,0,.15-.59-.37-.86-.19-.1-.13-.07-.19-.1-.43-.2-.84-.2-1.09-.06-.29.16-.23.08-.23.08,0,0-.8-.38-1.05.24-.25.62-.14.69-.14.69,0,0-.59-.53-1.09.02-.5.55-.45,1.18-.26,1.53l.2.36s-.64-.3-.95.32c-.31.62.23,1.35.52,1.68.3.33.38.43.38.43,0,0-.47-.19-.61.29-.14.48.27,1.14.4,1.31.14.17-.23.29-.22.52,0,.23.09.66.08,1.07,0,.41-.1.67.08.7.18.02.18.01.18.01Z" class="bt"></path>
  <path d="m6.91,20.57s.18-.45.3-.95c.12-.49.11-1.25.36-2.13.25-.88.88-1.83,1.32-2.56.44-.73.79-1.33.98-1.65l.19-.32" class="bt"></path>
  <line y2="19.62" x2="7.2" y1="19.35" x1="8.11" class="bt"></line>
  <path d="m7.26,18.77s-.51-.46-.58-.65" class="bt"></path>
  <line y2="18.02" x2="7.44" y1="17.69" x1="9.46" class="bt"></line>
  <path d="m10.54,16.07s-2.29.22-2.52.34" class="bt"></path>
  <path d="m8.37,15.77s-.54-1.65-1.07-2.15" class="bt"></path>
  <path d="m8.78,15.1s1.47-.96,1.7-1.04" class="bt"></path>
  <line y2="12.57" x2="8.43" y1="14.45" x1="9.16" class="bt"></line>
  <line y2="15.95" x2="6.76" y1="17.05" x1="7.72" class="bt"></line>
  <g class="cb">
    <rect height="10.57" width="6.01" y="19.24" x="3.27" class="aw"></rect>
  </g>
  <path d="m6.54,29.19s.1.38.32.5c.21.12.11-.25.19-.46.08-.22.21-.27.17-.51-.04-.23.42-.38.34-.7-.08-.33-.37-.38-.3-.56.07-.18.55-.26.52-.63-.03-.36-.31-.3-.47-.4-.16-.1.1-.29.17-.32.07-.03,1.48-.59,1.47-1.31,0-.73-.48-.83-.59-.9-.11-.07-.06-.12.17-.25.23-.13.76-.32.68-1.06-.07-.74-.51-.74-.86-.81-.35-.07-.24-.22-.16-.4.08-.19.33-.51.02-1.08-.31-.56-.86-.38-.86-.38,0,0-.1-.6-.68-.65-.21-.02-.15-.02-.21-.02-.48-.02-.85.14-1.03.37-.21.26-.18.17-.18.17,0,0-.88-.04-.87.63,0,.67.14.69.14.69,0,0-.75-.25-.99.44-.24.7.04,1.26.36,1.51l.32.25s-.71-.02-.75.67c-.04.69.73,1.16,1.14,1.34.4.19.52.25.52.25,0,0-.51,0-.45.51.06.5.69.95.88,1.05.19.1-.1.35,0,.56.1.21.34.57.49.95.15.38.17.66.34.61.17-.05.17-.06.17-.06Z" class="bt"></path>
  <path d="m6.54,28.35s0-.49-.09-.99c-.08-.5-.39-1.2-.5-2.11-.11-.91.1-2.03.22-2.87.12-.84.21-1.53.26-1.91l.05-.37" class="bt"></path>
  <line y2="27.36" x2="6.44" y1="26.76" x1="7.17" class="bt"></line>
  <path d="m6.17,26.55s-.65-.23-.79-.37" class="bt"></path>
  <line y2="25.8" x2="6.04" y1="24.71" x1="7.77" class="bt"></line>
  <path d="m8.13,22.79s-2.02,1.09-2.19,1.3" class="bt"></path>
  <path d="m6.02,23.36s-1.14-1.31-1.83-1.57" class="bt"></path>
  <path d="m6.13,22.58s.98-1.46,1.16-1.62" class="bt"></path>
  <line y2="20.39" x2="4.83" y1="21.84" x1="6.24" class="bt"></line>
  <line y2="24.15" x2="4.61" y1="24.8" x1="5.92" class="bt"></line>
  <g class="as">
    <rect height="9.62" width="6.6" y="27.14" x="3.73" class="cc"></rect>
  </g>
  <path d="m9.53,36.39s.24.31.49.34c.24.03,0-.27,0-.5,0-.23.08-.33-.04-.53-.13-.2.24-.51.04-.78-.2-.27-.49-.21-.49-.4,0-.2.41-.46.24-.78-.17-.32-.4-.16-.59-.19-.19-.03-.03-.31.03-.36.06-.06,1.14-1.11.85-1.78-.29-.67-.77-.58-.89-.61-.13-.02-.11-.09.06-.3.17-.21.58-.59.22-1.24-.35-.65-.75-.48-1.11-.41-.35.07-.3-.11-.31-.31,0-.2.11-.6-.4-1-.5-.4-.94-.02-.94-.02,0,0-.32-.52-.88-.33-.2.07-.14.04-.2.07-.45.17-.73.46-.81.74-.09.32-.1.23-.1.23,0,0-.83.31-.56.92.27.61.39.58.39.58,0,0-.79.06-.74.8.05.74.53,1.15.92,1.25l.39.11s-.66.25-.43.91c.23.66,1.13.78,1.57.8.44.02.57.03.57.03,0,0-.46.2-.22.64.25.44,1.01.61,1.22.63.22.02.04.37.21.52.17.15.54.4.82.69.29.29.41.54.55.43.14-.11.14-.12.14-.12Z" class="bt"></path>
  <path d="m9.2,35.62s-.2-.45-.47-.87c-.27-.43-.82-.95-1.27-1.75-.45-.8-.7-1.91-.91-2.73-.22-.82-.41-1.49-.5-1.86l-.1-.36" class="bt"></path>
  <line y2="34.74" x2="8.73" y1="33.91" x1="9.17" class="bt"></line>
  <path d="m8.16,34.1s-.69.04-.87-.04" class="bt"></path>
  <line y2="33.46" x2="7.75" y1="31.78" x1="8.93" class="bt"></line>
  <path d="m8.52,29.88s-1.44,1.79-1.52,2.04" class="bt"></path>
  <path d="m6.8,31.22s-1.56-.77-2.29-.74" class="bt"></path>
  <path d="m6.6,30.46s.34-1.73.44-1.95" class="bt"></path>
  <line y2="28.94" x2="4.55" y1="29.73" x1="6.41" class="bt"></line>
  <line y2="32.49" x2="5.8" y1="32.58" x1="7.26" class="bt"></line>
  <g class="bm">
    <rect height="7.69" width="9.16" y="34.69" x="6.99" class="ap"></rect>
  </g>
  <path d="m15.34,42.05s.35.19.58.12c.23-.07-.11-.25-.21-.46-.1-.21-.06-.34-.25-.47-.2-.13.02-.57-.28-.73-.29-.17-.53,0-.61-.17-.08-.18.19-.59-.1-.81-.29-.23-.43.02-.61.07-.18.05-.15-.27-.12-.34.03-.07.59-1.48.06-1.97-.53-.5-.94-.23-1.06-.2-.13.03-.14-.04-.07-.3.07-.26.29-.77-.29-1.22-.59-.46-.89-.14-1.18.07-.29.2-.32.02-.4-.16-.08-.18-.15-.59-.77-.75-.62-.16-.87.36-.87.36,0,0-.5-.34-.94.05-.16.14-.11.09-.16.14-.34.33-.48.71-.44,1,.05.33,0,.25,0,.25,0,0-.64.61-.15,1.07.49.45.59.38.59.38,0,0-.7.37-.36,1.03.34.66.94.84,1.35.78l.4-.06s-.5.5-.03,1c.47.51,1.35.26,1.76.1.41-.16.53-.21.53-.21,0,0-.34.37.06.67.4.3,1.16.15,1.37.08.21-.07.19.32.4.39.22.07.65.15,1.03.3.38.15.6.33.68.17.08-.16.08-.16.08-.16Z" class="bt"></path>
  <path d="m14.74,41.47s-.36-.33-.78-.61c-.42-.28-1.13-.54-1.87-1.09-.74-.55-1.41-1.47-1.93-2.13-.53-.67-.97-1.21-1.2-1.5l-.23-.29" class="bt"></path>
  <line y2="40.86" x2="13.96" y1="39.92" x1="14.02" class="bt"></line>
  <path d="m13.18,40.5s-.61.31-.81.32" class="bt"></path>
  <line y2="40.08" x2="12.54" y1="38.07" x1="12.94" class="bt"></line>
  <path d="m11.81,36.49s-.6,2.22-.57,2.48" class="bt"></path>
  <path d="m10.77,38.42s-1.73-.08-2.39.25" class="bt"></path>
  <path d="m10.28,37.8s-.38-1.72-.38-1.96" class="bt"></path>
  <line y2="37.24" x2="7.79" y1="37.21" x1="9.81" class="bt"></line>
  <line y2="39.99" x2="10.36" y1="39.48" x1="11.74" class="bt"></line>
  <g class="bq">
    <rect height="6.23" width="10.38" y="40.09" x="13.33" class="br"></rect>
  </g>
  <path d="m22.95,44.89s.4.03.58-.13c.18-.16-.2-.18-.37-.33-.18-.15-.19-.29-.42-.33-.23-.04-.21-.53-.55-.56-.34-.03-.48.22-.63.09-.15-.13-.06-.61-.41-.7-.35-.09-.39.19-.54.31-.15.12-.24-.19-.25-.27,0-.08-.05-1.59-.74-1.83-.69-.24-.95.17-1.05.25-.1.08-.14.02-.18-.24-.04-.26-.04-.82-.76-1-.72-.18-.86.23-1.05.54-.19.31-.28.15-.43.02-.15-.13-.37-.48-1-.38-.64.1-.65.68-.65.68,0,0-.6-.11-.84.42-.09.2-.07.13-.09.2-.18.44-.15.85,0,1.1.18.28.1.23.1.23,0,0-.33.82.3,1.04.63.22.69.1.69.1,0,0-.49.62.08,1.09.58.46,1.2.39,1.54.17l.34-.22s-.26.66.38.93c.64.28,1.34-.3,1.65-.62.31-.31.41-.4.41-.4,0,0-.17.48.32.59.49.11,1.13-.33,1.29-.48.16-.15.3.22.52.19.23-.02.65-.13,1.06-.14.41-.02.68.06.69-.12.01-.18,0-.18,0-.18Z" class="bt"></path>
  <path d="m22.16,44.6s-.46-.16-.96-.24c-.5-.09-1.25-.04-2.15-.25-.89-.2-1.88-.78-2.63-1.17-.75-.4-1.37-.71-1.7-.89l-.33-.17" class="bt"></path>
  <line y2="44.36" x2="21.2" y1="43.47" x1="20.88" class="bt"></line>
  <path d="m20.34,44.34s-.44.53-.62.62" class="bt"></path>
  <line y2="44.21" x2="19.59" y1="42.21" x1="19.15" class="bt"></line>
  <path d="m17.47,41.22s.35,2.27.48,2.5" class="bt"></path>
  <path d="m17.29,43.4s-1.62.63-2.09,1.19" class="bt"></path>
  <path d="m16.6,43.04s-1.04-1.42-1.14-1.64" class="bt"></path>
  <line y2="43.53" x2="14.1" y1="42.69" x1="15.93" class="bt"></line>
  <line y2="45" x2="17.56" y1="43.99" x1="18.61" class="bt"></line>
  <g class="ba">
    <rect height="6.53" width="9.8" y="3.15" x="27.3" class="bb"></rect>
  </g>
  <path d="m36.73,8.81s.32.24.35.48c.03.24-.27,0-.5,0-.23,0-.33.09-.53-.03-.2-.12-.51.25-.78.05-.27-.2-.21-.49-.41-.48-.2,0-.45.42-.78.25-.33-.17-.16-.4-.2-.59-.03-.19-.31-.02-.36.03-.06.06-1.09,1.16-1.77.88-.67-.28-.6-.76-.62-.88-.02-.13-.09-.11-.3.06-.2.17-.58.58-1.23.24-.66-.34-.49-.75-.43-1.1.06-.35-.11-.3-.31-.3-.2,0-.59.12-1-.38-.41-.5-.04-.94-.04-.94,0,0-.52-.31-.35-.87.06-.21.04-.14.06-.21.16-.45.45-.74.73-.82.32-.1.23-.11.23-.11,0,0,.29-.83.91-.58.62.26.59.38.59.38,0,0,.04-.79.78-.76.74.03,1.15.51,1.27.9l.11.39s.24-.67.9-.45c.66.22.8,1.11.82,1.56.02.44.04.57.04.57,0,0,.19-.47.63-.22.44.24.62,1,.65,1.21.02.22.37.04.52.2.15.17.41.53.7.81.29.28.55.4.44.55-.11.14-.12.14-.12.14Z" class="bt"></path>
  <path d="m35.95,8.5s-.45-.19-.88-.46c-.43-.27-.96-.8-1.77-1.25-.8-.44-1.92-.67-2.74-.87-.83-.2-1.5-.38-1.86-.47l-.36-.09" class="bt"></path>
  <line y2="8.05" x2="35.07" y1="8.5" x1="34.24" class="bt"></line>
  <path d="m34.42,7.49s.03-.69-.05-.87" class="bt"></path>
  <line y2="7.09" x2="33.77" y1="8.29" x1="32.12" class="bt"></line>
  <path d="m30.21,7.91s1.77-1.47,2.02-1.55" class="bt"></path>
  <path d="m31.52,6.17s-.79-1.55-.77-2.28" class="bt"></path>
  <path d="m30.76,5.98s-1.72.37-1.93.47" class="bt"></path>
  <line y2="3.95" x2="29.21" y1="5.8" x1="30.03" class="bt"></line>
  <line y2="5.15" x2="32.78" y1="6.6" x1="32.89" class="bt"></line>
  <g class="ay">
    <rect height="8.74" width="7.95" y="6.48" x="34.75" class="az"></rect>
  </g>
  <path d="m42.38,14.41s.2.34.13.58c-.07.23-.25-.1-.46-.2-.21-.09-.34-.05-.48-.24-.14-.19-.57.03-.74-.26-.17-.29,0-.53-.19-.61-.18-.08-.58.21-.81-.08-.23-.28,0-.43.05-.62.05-.19-.27-.14-.35-.11-.07.03-1.46.63-1.97.11-.51-.52-.25-.93-.22-1.06.03-.13-.04-.13-.3-.06-.25.07-.76.31-1.23-.26-.47-.58-.16-.88.04-1.18.2-.3.02-.32-.17-.4-.19-.08-.59-.13-.77-.75-.18-.62.34-.88.34-.88,0,0-.35-.49.02-.94.14-.16.09-.11.14-.16.33-.35.7-.5.99-.46.33.04.25,0,.25,0,0,0,.6-.65,1.06-.17.47.48.39.59.39.59,0,0,.35-.71,1.02-.39.66.32.86.92.81,1.33l-.05.4s.49-.52,1-.06c.52.46.3,1.34.14,1.76-.15.42-.19.54-.19.54,0,0,.36-.35.67.04.31.4.18,1.16.11,1.37-.06.21.32.18.4.39.08.21.16.65.32,1.02.16.38.34.59.19.68-.16.09-.16.08-.16.08Z" class="bt"></path>
  <path d="m41.79,13.81s-.34-.35-.63-.77c-.29-.41-.57-1.12-1.13-1.84-.57-.72-1.5-1.37-2.18-1.89-.68-.51-1.23-.94-1.53-1.17l-.3-.23" class="bt"></path>
  <line y2="13.05" x2="41.16" y1="13.14" x1="40.22" class="bt"></line>
  <path d="m40.78,12.28s.3-.62.3-.82" class="bt"></path>
  <line y2="11.65" x2="40.34" y1="12.1" x1="38.35" class="bt"></line>
  <path d="m36.74,11s2.2-.65,2.47-.63" class="bt"></path>
  <path d="m38.64,9.92s-.12-1.73.19-2.4" class="bt"></path>
  <path d="m38.01,9.44s-1.73-.34-1.96-.33" class="bt"></path>
  <line y2="6.97" x2="37.4" y1="8.99" x1="37.41" class="bt"></line>
  <line y2="9.48" x2="40.2" y1="10.86" x1="39.73" class="bt"></line>
  <g class="av">
    <rect height="10.33" width="6.39" y="11.78" x="40.03" class="bu"></rect>
  </g>
  <path d="m45.28,21.34s.06.39-.09.59c-.15.19-.19-.19-.35-.35-.16-.17-.3-.17-.35-.4-.06-.23-.54-.18-.59-.52-.05-.33.19-.49.05-.63-.14-.14-.61-.03-.72-.37-.11-.35.17-.4.28-.55.11-.16-.2-.23-.28-.23s-1.59.04-1.87-.63c-.28-.67.12-.96.19-1.06.07-.11.01-.14-.25-.17-.26-.03-.82,0-1.04-.71-.22-.71.18-.88.48-1.08.29-.2.14-.29,0-.43-.14-.14-.5-.34-.43-.98.07-.64.64-.69.64-.69,0,0-.15-.59.37-.86.19-.1.13-.07.19-.1.43-.2.84-.2,1.09-.06.29.16.23.08.23.08,0,0,.8-.38,1.05.24.25.62.14.69.14.69,0,0,.59-.53,1.09.02.5.55.45,1.18.26,1.53l-.2.36s.64-.3.95.32c.31.62-.23,1.35-.52,1.68-.3.33-.38.43-.38.43,0,0,.47-.19.61.29.14.48-.27,1.14-.41,1.31-.14.17.23.29.22.52,0,.23-.09.66-.08,1.07,0,.41.1.67-.08.7-.18.02-.18.01-.18.01Z" class="bt"></path>
  <path d="m44.95,20.57s-.18-.45-.3-.95c-.12-.49-.11-1.25-.36-2.13-.25-.88-.88-1.83-1.32-2.56-.44-.73-.79-1.33-.98-1.65l-.19-.32" class="bt"></path>
  <line y2="19.62" x2="44.66" y1="19.35" x1="43.75" class="bt"></line>
  <path d="m44.6,18.77s.51-.46.58-.65" class="bt"></path>
  <line y2="18.02" x2="44.42" y1="17.69" x1="42.4" class="bt"></line>
  <path d="m41.32,16.07s2.29.22,2.52.34" class="bt"></path>
  <path d="m43.49,15.77s.54-1.65,1.07-2.15" class="bt"></path>
  <path d="m43.08,15.1s-1.48-.96-1.7-1.04" class="bt"></path>
  <line y2="12.57" x2="43.43" y1="14.45" x1="42.7" class="bt"></line>
  <line y2="15.95" x2="45.1" y1="17.05" x1="44.14" class="bt"></line>
  <g class="bg">
    <rect height="10.57" width="6.01" y="19.24" x="42.58" class="ca"></rect>
  </g>
  <path d="m45.32,29.19s-.1.38-.32.5c-.21.12-.11-.25-.19-.46-.08-.22-.21-.27-.17-.51.04-.23-.42-.38-.34-.7.08-.33.37-.38.3-.56-.08-.18-.56-.26-.52-.63.03-.36.31-.3.47-.4.16-.1-.1-.29-.17-.32-.07-.03-1.48-.59-1.47-1.31,0-.73.48-.83.59-.9.11-.07.06-.12-.17-.25-.23-.13-.76-.32-.68-1.06.07-.74.51-.74.86-.81.35-.07.24-.22.16-.4-.08-.19-.33-.51-.02-1.08.31-.56.86-.38.86-.38,0,0,.1-.6.68-.65.21-.02.15-.02.21-.02.48-.02.85.14,1.03.37.21.26.18.17.18.17,0,0,.88-.04.87.63,0,.67-.14.69-.14.69,0,0,.75-.25.99.44.24.7-.04,1.26-.36,1.51l-.32.25s.71-.02.75.67c.04.69-.73,1.16-1.14,1.34-.4.19-.52.25-.52.25,0,0,.51,0,.45.51-.06.5-.69.95-.88,1.05-.19.1.1.35,0,.56-.1.21-.34.57-.49.95-.15.38-.17.66-.34.61-.17-.05-.17-.06-.17-.06Z" class="bt"></path>
  <path d="m45.32,28.35s0-.49.09-.99c.08-.5.39-1.2.5-2.11.11-.91-.1-2.03-.22-2.87-.12-.84-.21-1.53-.26-1.91l-.05-.37" class="bt"></path>
  <line y2="27.36" x2="45.42" y1="26.76" x1="44.69" class="bt"></line>
  <path d="m45.69,26.55s.65-.23.79-.37" class="bt"></path>
  <line y2="25.8" x2="45.82" y1="24.71" x1="44.09" class="bt"></line>
  <path d="m43.73,22.79s2.02,1.09,2.19,1.3" class="bt"></path>
  <path d="m45.84,23.36s1.14-1.31,1.83-1.57" class="bt"></path>
  <path d="m45.73,22.58s-.98-1.46-1.16-1.62" class="bt"></path>
  <line y2="20.39" x2="47.03" y1="21.84" x1="45.62" class="bt"></line>
  <line y2="24.15" x2="47.25" y1="24.8" x1="45.94" class="bt"></line>
  <g class="bh">
    <rect height="9.62" width="6.6" y="27.14" x="41.53" class="bp"></rect>
  </g>
  <path d="m42.33,36.39s-.24.31-.48.34c-.24.03,0-.27,0-.5,0-.23-.08-.33.04-.53.13-.2-.24-.51-.04-.78.2-.27.49-.21.49-.4,0-.2-.41-.46-.24-.78.17-.32.4-.16.59-.19.19-.03.02-.31-.03-.36-.06-.06-1.14-1.11-.85-1.78.29-.67.77-.58.89-.61.13-.02.11-.09-.06-.3-.17-.21-.58-.59-.22-1.24.35-.65.75-.48,1.1-.41.35.07.3-.11.31-.31,0-.2-.11-.6.4-1,.5-.4.94-.02.94-.02,0,0,.32-.52.88-.33.2.07.14.04.2.07.45.17.73.46.81.74.09.32.1.23.1.23,0,0,.83.31.56.92-.27.61-.39.58-.39.58,0,0,.79.06.74.8-.05.74-.53,1.15-.92,1.25l-.39.11s.66.25.43.91c-.23.66-1.13.78-1.57.8-.44.02-.57.03-.57.03,0,0,.46.2.22.64-.25.44-1.01.61-1.22.63-.22.02-.04.37-.21.52-.17.15-.54.4-.82.69-.29.29-.41.54-.55.43-.14-.11-.14-.12-.14-.12Z" class="bt"></path>
  <path d="m42.66,35.62s.2-.45.47-.87c.27-.43.82-.95,1.27-1.75.45-.8.7-1.91.91-2.73.22-.82.41-1.49.5-1.86l.1-.36" class="bt"></path>
  <line y2="34.74" x2="43.13" y1="33.91" x1="42.69" class="bt"></line>
  <path d="m43.7,34.1s.69.04.87-.04" class="bt"></path>
  <line y2="33.46" x2="44.11" y1="31.78" x1="42.93" class="bt"></line>
  <path d="m43.34,29.88s1.44,1.79,1.52,2.04" class="bt"></path>
  <path d="m45.06,31.22s1.56-.77,2.29-.74" class="bt"></path>
  <path d="m45.26,30.46s-.34-1.73-.44-1.95" class="bt"></path>
  <line y2="28.94" x2="47.31" y1="29.73" x1="45.45" class="bt"></line>
  <line y2="32.49" x2="46.06" y1="32.58" x1="44.6" class="bt"></line>
  <g class="ax">
    <rect height="7.69" width="9.16" y="34.69" x="35.7" class="aq"></rect>
  </g>
  <path d="m36.52,42.05s-.35.19-.58.12c-.23-.07.11-.25.21-.46.1-.21.06-.34.25-.47.2-.13-.02-.57.28-.73.29-.17.53,0,.61-.17.08-.18-.19-.59.1-.81.29-.23.43.02.61.07.18.05.15-.27.12-.34-.03-.07-.59-1.48-.06-1.97.53-.5.93-.23,1.06-.2.12.03.14-.04.07-.3-.07-.26-.29-.77.29-1.22.59-.46.88-.14,1.18.07.29.2.32.02.4-.16.08-.18.15-.59.77-.75.62-.16.87.36.87.36,0,0,.5-.34.94.05.16.14.11.09.16.14.34.33.48.71.44,1-.05.33,0,.25,0,.25,0,0,.63.61.14,1.07-.49.45-.59.38-.59.38,0,0,.7.37.36,1.03-.34.66-.94.84-1.35.78l-.4-.06s.5.5.03,1c-.47.51-1.35.26-1.76.1-.41-.16-.53-.21-.53-.21,0,0,.34.37-.06.67-.4.3-1.16.15-1.37.08-.21-.07-.19.32-.4.39-.22.07-.65.15-1.03.3-.38.15-.6.33-.68.17-.08-.16-.08-.16-.08-.16Z" class="bt"></path>
  <path d="m37.12,41.47s.36-.33.78-.61c.42-.28,1.13-.54,1.87-1.09.74-.55,1.41-1.47,1.94-2.13.53-.67.97-1.21,1.2-1.5l.23-.29" class="bt"></path>
  <line y2="40.86" x2="37.9" y1="39.92" x1="37.84" class="bt"></line>
  <path d="m38.68,40.5s.61.31.81.32" class="bt"></path>
  <line y2="40.08" x2="39.32" y1="38.07" x1="38.92" class="bt"></line>
  <path d="m40.05,36.49s.6,2.22.57,2.48" class="bt"></path>
  <path d="m41.09,38.42s1.73-.08,2.39.25" class="bt"></path>
  <path d="m41.58,37.8s.38-1.72.38-1.96" class="bt"></path>
  <line y2="37.24" x2="44.07" y1="37.21" x1="42.05" class="bt"></line>
  <line y2="39.99" x2="41.49" y1="39.48" x1="40.12" class="bt"></line>
  <g class="bf">
    <rect height="6.23" width="10.38" y="40.09" x="28.15" class="cd"></rect>
  </g>
  <path d="m28.91,44.89s-.4.03-.58-.13c-.18-.16.2-.18.37-.33.18-.15.19-.29.42-.33.23-.04.21-.53.55-.56.34-.03.48.22.63.09.15-.13.06-.61.41-.7.35-.09.39.19.53.31.15.12.24-.19.25-.27,0-.08.05-1.59.74-1.83.69-.24.95.17,1.05.25.1.08.14.02.18-.24.04-.26.04-.82.76-1,.72-.18.86.23,1.05.54.19.31.28.15.43.02.15-.13.37-.48,1-.38.64.1.65.68.65.68,0,0,.6-.11.84.42.09.2.07.13.09.2.18.44.15.85,0,1.1-.18.28-.1.23-.1.23,0,0,.33.82-.3,1.04-.63.22-.69.1-.69.1,0,0,.49.62-.08,1.09-.57.46-1.2.39-1.54.17l-.34-.22s.26.66-.38.93c-.64.28-1.34-.3-1.65-.62-.31-.31-.41-.4-.41-.4,0,0,.17.48-.32.59-.49.11-1.13-.33-1.29-.48-.16-.15-.3.22-.53.19-.23-.02-.65-.13-1.06-.14-.41-.02-.68.06-.69-.12-.01-.18,0-.18,0-.18Z" class="bt"></path>
  <path d="m29.7,44.6s.46-.16.96-.24c.5-.09,1.25-.04,2.15-.25.89-.2,1.88-.78,2.63-1.17.75-.4,1.37-.71,1.7-.89l.33-.17" class="bt"></path>
  <line y2="44.36" x2="30.66" y1="43.47" x1="30.98" class="bt"></line>
  <path d="m31.52,44.34s.43.53.62.62" class="bt"></path>
  <line y2="44.21" x2="32.27" y1="42.21" x1="32.71" class="bt"></line>
  <path d="m34.39,41.22s-.35,2.27-.48,2.5" class="bt"></path>
  <path d="m34.57,43.4s1.62.63,2.09,1.19" class="bt"></path>
  <path d="m35.26,43.04s1.04-1.42,1.14-1.64" class="bt"></path>
  <line y2="43.53" x2="37.76" y1="42.69" x1="35.93" class="bt"></line>
  <line y2="45" x2="34.3" y1="43.99" x1="33.25" class="bt"></line>
  <g class="ao">
    <rect height="6.03" width="10.63" y="41.61" x="23.81" class="bv"></rect>
  </g>
  <path d="m24.49,45.05s-.39-.06-.53-.25c-.14-.2.23-.14.44-.24.21-.11.25-.24.48-.23.24.01.32-.46.66-.42.33.04.42.32.59.23.17-.1.19-.58.56-.59.37-.01.33.27.45.42.12.15.28-.13.3-.2.02-.08.41-1.54,1.13-1.62.72-.08.88.38.97.48.08.1.13.05.23-.2.1-.25.22-.79.96-.81.74-.02.79.42.9.76.11.34.24.21.42.11.18-.1.47-.39,1.06-.15.6.24.48.81.48.81,0,0,.61.03.72.6.04.21.03.14.04.21.07.47-.04.86-.24,1.07-.24.24-.15.2-.15.2,0,0,.14.87-.52.94-.66.07-.7-.05-.7-.05,0,0,.34.72-.32,1.04-.66.32-1.26.11-1.54-.18l-.29-.29s.11.7-.57.83c-.68.13-1.24-.59-1.47-.97-.23-.38-.3-.49-.3-.49,0,0,.05.5-.45.5s-1.02-.58-1.15-.75c-.13-.18-.34.14-.56.07-.22-.07-.61-.27-1-.38-.4-.11-.68-.09-.65-.27.03-.18.03-.18.03-.18Z" class="bt"></path>
  <path d="m25.32,44.95s.48-.05.99-.02c.51.02,1.23.24,2.15.24s2.01-.34,2.83-.56c.82-.22,1.5-.39,1.86-.48l.36-.1" class="bt"></path>
  <line y2="44.93" x2="26.31" y1="44.13" x1="26.82" class="bt"></line>
  <path d="m27.15,45.1s.31.62.46.74" class="bt"></path>
  <line y2="45.14" x2="27.91" y1="43.29" x1="28.78" class="bt"></line>
  <path d="m30.64,42.7s-.84,2.14-1.03,2.33" class="bt"></path>
  <path d="m30.33,44.87s1.43.98,1.77,1.63" class="bt"></path>
  <path d="m31.09,44.66s1.33-1.15,1.47-1.34" class="bt"></path>
  <line y2="45.7" x2="33.41" y1="44.47" x1="31.82" class="bt"></line>
  <line y2="46.37" x2="29.71" y1="45.14" x1="28.91" class="bt"></line>
  <g class="bo">
    <rect height="5.87" width="10.53" y="41.76" x="17.5" class="bw"></rect>
  </g>
  <path d="m27.36,45.11s.39-.05.53-.25c.14-.19-.23-.13-.43-.24-.2-.11-.25-.23-.48-.22-.24.01-.32-.45-.65-.41-.33.04-.42.32-.59.22-.17-.1-.19-.57-.56-.58-.36,0-.33.26-.45.41-.12.15-.28-.13-.3-.2-.02-.07-.4-1.5-1.12-1.58-.71-.08-.88.37-.96.46-.08.1-.13.05-.23-.19-.1-.24-.22-.77-.96-.79-.73-.02-.78.41-.89.74-.11.33-.24.21-.42.11-.18-.09-.46-.38-1.05-.14-.59.24-.48.79-.48.79,0,0-.6.02-.72.58-.04.21-.03.14-.04.21-.07.46.04.84.24,1.04.23.23.14.2.14.2,0,0-.14.85.52.92.66.07.69-.05.69-.05,0,0-.34.7.32,1.02.66.32,1.24.11,1.53-.18l.28-.28s-.11.68.57.81c.68.12,1.23-.58,1.46-.94.23-.37.3-.47.3-.47,0,0-.05.49.44.49s1.01-.56,1.14-.74c.12-.17.34.14.55.07.21-.07.6-.26.99-.37.39-.1.67-.09.64-.26-.03-.17-.03-.17-.03-.17Z" class="bt"></path>
  <path d="m26.53,45.01s-.48-.05-.98-.02c-.5.02-1.22.24-2.13.24s-1.99-.33-2.8-.54c-.81-.21-1.48-.38-1.84-.47l-.36-.1" class="bt"></path>
  <line y2="44.99" x2="25.55" y1="44.22" x1="25.05" class="bt"></line>
  <path d="m24.72,45.16s-.3.6-.46.72" class="bt"></path>
  <line y2="45.2" x2="23.97" y1="43.4" x1="23.1" class="bt"></line>
  <path d="m21.27,42.82s.84,2.08,1.02,2.27" class="bt"></path>
  <path d="m21.57,44.94s-1.42.95-1.75,1.59" class="bt"></path>
  <path d="m20.82,44.74s-1.32-1.12-1.46-1.31" class="bt"></path>
  <line y2="45.75" x2="18.52" y1="44.55" x1="20.1" class="bt"></line>
  <line y2="46.4" x2="22.18" y1="45.2" x1="22.97" class="bt"></line>
  <g class="bz">
    <rect height="31.02" width="31.05" y="9.31" x="10.4" class="bn"></rect>
  </g>
  <g class="bc">
    <rect height="26.2" width="26.23" y="11.72" x="12.81" class="cf"></rect>
  </g>
  <g class="ce">
    <rect height="49.71" width="51.86" x="0" class="ar"></rect>
  </g>
  <path d="m48.84,7.25c0,1.1-.89,1.98-2.02,1.98s-2.03-.88-2.03-1.98.9-1.97,2.04-1.97,2,.86,2,1.97Zm-3.54,0c0,.88.66,1.57,1.54,1.57.85.01,1.5-.7,1.5-1.56s-.65-1.58-1.52-1.58-1.51.71-1.51,1.57Zm1.21,1.02h-.46v-1.97c.18-.02.43-.06.76-.06.37,0,.54.06.67.16.12.08.2.23.2.42,0,.24-.18.4-.41.47v.02c.19.06.29.22.35.48.06.3.11.41.14.48h-.48c-.06-.07-.1-.24-.16-.48-.04-.2-.16-.3-.41-.3h-.22v.78Zm.01-1.1h.22c.25,0,.46-.08.46-.29,0-.18-.13-.3-.42-.3-.12,0-.2.01-.25.02v.56Z" class="bx"></path>
</svg>